%FSAX44Y44*%
%MOMM*%
G71*
G01*
G75*
G04 Layer_Color=8388736*
%ADD10C,1.0160*%
%ADD11C,0.2540*%
%ADD12C,0.5080*%
%ADD13R,9.1440X5.0800*%
%ADD14O,3.0480X1.5240*%
%ADD15C,1.5240*%
%ADD16C,2.0320*%
%ADD17C,5.0038*%
%ADD18C,1.5000*%
%ADD19R,1.5000X1.5000*%
%ADD20R,1.5000X1.5000*%
%ADD21C,0.8128*%
%ADD22C,5.0800*%
%ADD23C,1.6256*%
%ADD24C,1.4732*%
%ADD25R,1.5400X3.1400*%
%ADD26R,1.3000X1.3000*%
%ADD27R,1.3000X1.3000*%
G04:AMPARAMS|DCode=28|XSize=1.3mm|YSize=1.3mm|CornerRadius=0mm|HoleSize=0mm|Usage=FLASHONLY|Rotation=225.000|XOffset=0mm|YOffset=0mm|HoleType=Round|Shape=Rectangle|*
%AMROTATEDRECTD28*
4,1,4,0.0000,0.9192,0.9192,0.0000,0.0000,-0.9192,-0.9192,0.0000,0.0000,0.9192,0.0*
%
%ADD28ROTATEDRECTD28*%

%ADD29P,1.8385X4X270.0*%
G04:AMPARAMS|DCode=30|XSize=0.55mm|YSize=1.45mm|CornerRadius=0mm|HoleSize=0mm|Usage=FLASHONLY|Rotation=135.000|XOffset=0mm|YOffset=0mm|HoleType=Round|Shape=Round|*
%AMOVALD30*
21,1,0.9000,0.5500,0.0000,0.0000,225.0*
1,1,0.5500,0.3182,0.3182*
1,1,0.5500,-0.3182,-0.3182*
%
%ADD30OVALD30*%

G04:AMPARAMS|DCode=31|XSize=0.55mm|YSize=1.45mm|CornerRadius=0mm|HoleSize=0mm|Usage=FLASHONLY|Rotation=45.000|XOffset=0mm|YOffset=0mm|HoleType=Round|Shape=Round|*
%AMOVALD31*
21,1,0.9000,0.5500,0.0000,0.0000,135.0*
1,1,0.5500,0.3182,-0.3182*
1,1,0.5500,-0.3182,0.3182*
%
%ADD31OVALD31*%

%ADD32R,1.4000X0.4000*%
%ADD33R,1.9000X2.3000*%
%ADD34R,1.9000X1.8000*%
%ADD35R,1.6000X0.3000*%
%ADD36R,14.4780X21.5900*%
%ADD37R,3.3020X3.0480*%
%ADD38C,0.3048*%
%ADD39O,3.2512X1.7272*%
%ADD40C,1.7272*%
%ADD41C,2.2352*%
%ADD42C,5.2070*%
%ADD43C,1.7032*%
%ADD44R,1.7032X1.7032*%
%ADD45R,1.7032X1.7032*%
%ADD46C,1.0160*%
%ADD47C,5.2832*%
%ADD48C,0.2032*%
%ADD49R,1.7432X3.3432*%
%ADD50R,1.5032X1.5032*%
%ADD51R,1.5032X1.5032*%
G04:AMPARAMS|DCode=52|XSize=1.5032mm|YSize=1.5032mm|CornerRadius=0mm|HoleSize=0mm|Usage=FLASHONLY|Rotation=225.000|XOffset=0mm|YOffset=0mm|HoleType=Round|Shape=Rectangle|*
%AMROTATEDRECTD52*
4,1,4,0.0000,1.0629,1.0629,0.0000,0.0000,-1.0629,-1.0629,0.0000,0.0000,1.0629,0.0*
%
%ADD52ROTATEDRECTD52*%

%ADD53P,2.1258X4X270.0*%
G04:AMPARAMS|DCode=54|XSize=0.7532mm|YSize=1.6532mm|CornerRadius=0mm|HoleSize=0mm|Usage=FLASHONLY|Rotation=135.000|XOffset=0mm|YOffset=0mm|HoleType=Round|Shape=Round|*
%AMOVALD54*
21,1,0.9000,0.7532,0.0000,0.0000,225.0*
1,1,0.7532,0.3182,0.3182*
1,1,0.7532,-0.3182,-0.3182*
%
%ADD54OVALD54*%

G04:AMPARAMS|DCode=55|XSize=0.7532mm|YSize=1.6532mm|CornerRadius=0mm|HoleSize=0mm|Usage=FLASHONLY|Rotation=45.000|XOffset=0mm|YOffset=0mm|HoleType=Round|Shape=Round|*
%AMOVALD55*
21,1,0.9000,0.7532,0.0000,0.0000,135.0*
1,1,0.7532,0.3182,-0.3182*
1,1,0.7532,-0.3182,0.3182*
%
%ADD55OVALD55*%

%ADD56R,1.6032X0.6032*%
%ADD57R,2.1032X2.5032*%
%ADD58R,2.1032X2.0032*%
%ADD59R,1.8032X0.5032*%
%ADD60C,0.0000*%
%ADD61R,1.5000X2.0000*%
D11*
X01205738Y01319530D02*
Y01385570D01*
Y01319530D02*
X01248918D01*
Y01385570D01*
X01205738D02*
X01248918D01*
X01083818Y01337310D02*
X01093978D01*
X01088898Y01357630D02*
Y01367790D01*
X01083818Y01362710D02*
X01093978D01*
X00966978Y01337310D02*
X00977138D01*
X00972058Y01357630D02*
Y01367790D01*
X00966978Y01362710D02*
X00977138D01*
X00611378Y01306830D02*
X00621538D01*
X00616458Y01362710D02*
Y01372870D01*
X00611378Y01367790D02*
X00621538D01*
X00616458Y01413510D02*
X00626618D01*
Y01400810D02*
Y01426210D01*
X00682498D01*
Y01400810D02*
Y01426210D01*
X00626618Y01400810D02*
X00682498D01*
Y01413510D02*
X00692658D01*
X01073658Y01477010D02*
X01083818D01*
Y01464310D02*
Y01489710D01*
X01139698D01*
Y01464310D02*
Y01489710D01*
X01083818Y01464310D02*
X01139698D01*
Y01477010D02*
X01149858D01*
X01200658Y01606550D02*
Y01616710D01*
X01187958Y01606550D02*
X01213358D01*
Y01550670D02*
Y01606550D01*
X01187958Y01550670D02*
X01213358D01*
X01187958D02*
Y01606550D01*
X01200658Y01540510D02*
Y01550670D01*
X00565658Y01540510D02*
Y01550670D01*
X00552958D02*
Y01606550D01*
Y01550670D02*
X00578358D01*
Y01606550D01*
X00552958D02*
X00578358D01*
X00565658D02*
Y01616710D01*
X00641858Y01499870D02*
Y01510030D01*
X00636778Y01504950D02*
X00646938D01*
X00611378D02*
X00621538D01*
X01162558Y01527810D02*
X01170178D01*
X01101598D02*
X01111758D01*
X01106678Y01522730D02*
Y01532890D01*
X00682498Y01446530D02*
X00692658D01*
X00626618Y01433830D02*
X00682498D01*
Y01459230D01*
X00626618D02*
X00682498D01*
X00626618Y01433830D02*
Y01459230D01*
X00616458Y01446530D02*
X00626618D01*
X00682498Y01479550D02*
X00692658D01*
X00626618Y01466850D02*
X00682498D01*
Y01492250D01*
X00626618D02*
X00682498D01*
X00626618Y01466850D02*
Y01492250D01*
X00616458Y01479550D02*
X00626618D01*
X00710438Y01642110D02*
X00725678D01*
Y01489710D02*
Y01642110D01*
X00710438Y01489710D02*
X00725678D01*
X00710438D02*
Y01642110D01*
X00685038Y01616710D02*
X00710438D01*
X00685038Y01515110D02*
Y01616710D01*
Y01515110D02*
X00710438D01*
X01152638Y01438750D02*
X01182638D01*
X01152638Y01418750D02*
X01182638D01*
Y01438750D01*
X01152638Y01418750D02*
Y01438750D01*
X01124638Y01407250D02*
Y01450250D01*
X01210638Y01407250D02*
Y01450250D01*
X01124638Y01407250D02*
X01210638D01*
X01124638Y01450250D02*
X01210638D01*
X00690123Y01530350D02*
X00705358D01*
X00697740D01*
Y01540507D01*
X00690123D01*
X00705358D01*
X00692662Y01555742D02*
X00690123Y01553203D01*
Y01548124D01*
X00692662Y01545585D01*
X00702819D01*
X00705358Y01548124D01*
Y01553203D01*
X00702819Y01555742D01*
X00697740Y01560820D02*
Y01570977D01*
X00692662Y01576055D02*
X00690123Y01578594D01*
Y01583673D01*
X00692662Y01586212D01*
X00702819D01*
X00705358Y01583673D01*
Y01578594D01*
X00702819Y01576055D01*
X00692662D01*
X00690123Y01601447D02*
X00692662Y01596369D01*
X00697740Y01591290D01*
X00702819D01*
X00705358Y01593829D01*
Y01598908D01*
X00702819Y01601447D01*
X00700280D01*
X00697740Y01598908D01*
Y01591290D01*
X00639318Y01438910D02*
Y01454145D01*
X00646936D01*
X00649475Y01451606D01*
Y01446528D01*
X00646936Y01443988D01*
X00639318D01*
X00644396D02*
X00649475Y01438910D01*
X00654553Y01441449D02*
X00657092Y01438910D01*
X00662171D01*
X00664710Y01441449D01*
Y01451606D01*
X00662171Y01454145D01*
X00657092D01*
X00654553Y01451606D01*
Y01449067D01*
X00657092Y01446528D01*
X00664710D01*
X00639318Y01471930D02*
Y01487165D01*
X00646936D01*
X00649475Y01484626D01*
Y01479547D01*
X00646936Y01477008D01*
X00639318D01*
X00644396D02*
X00649475Y01471930D01*
X00654553Y01484626D02*
X00657092Y01487165D01*
X00662171D01*
X00664710Y01484626D01*
Y01482087D01*
X00662171Y01479547D01*
X00664710Y01477008D01*
Y01474469D01*
X00662171Y01471930D01*
X00657092D01*
X00654553Y01474469D01*
Y01477008D01*
X00657092Y01479547D01*
X00654553Y01482087D01*
Y01484626D01*
X00657092Y01479547D02*
X00662171D01*
X00591058Y01606545D02*
Y01591310D01*
X00601215D01*
X00606293Y01606545D02*
Y01591310D01*
X00613911D01*
X00616450Y01593849D01*
Y01604006D01*
X00613911Y01606545D01*
X00606293D01*
X00621528Y01591310D02*
Y01606545D01*
X00629146D01*
X00631685Y01604006D01*
Y01598927D01*
X00629146Y01596388D01*
X00621528D01*
X00626606D02*
X00631685Y01591310D01*
X00636763D02*
X00641842D01*
X00639302D01*
Y01606545D01*
X00636763Y01604006D01*
X01111758Y01606545D02*
Y01591310D01*
X01121915D01*
X01126993Y01606545D02*
Y01591310D01*
X01134611D01*
X01137150Y01593849D01*
Y01604006D01*
X01134611Y01606545D01*
X01126993D01*
X01142228Y01591310D02*
Y01606545D01*
X01149846D01*
X01152385Y01604006D01*
Y01598927D01*
X01149846Y01596388D01*
X01142228D01*
X01147307D02*
X01152385Y01591310D01*
X01167620D02*
X01157463D01*
X01167620Y01601467D01*
Y01604006D01*
X01165081Y01606545D01*
X01160002D01*
X01157463Y01604006D01*
X01025402Y01390647D02*
X01022863Y01388107D01*
Y01383029D01*
X01025402Y01380490D01*
X01035559D01*
X01038098Y01383029D01*
Y01388107D01*
X01035559Y01390647D01*
X01025402Y01395725D02*
X01022863Y01398264D01*
Y01403343D01*
X01025402Y01405882D01*
X01027941D01*
X01030480Y01403343D01*
Y01400803D01*
Y01403343D01*
X01033020Y01405882D01*
X01035559D01*
X01038098Y01403343D01*
Y01398264D01*
X01035559Y01395725D01*
X00540255Y01383025D02*
X00535176D01*
X00537715D01*
Y01370329D01*
X00535176Y01367790D01*
X00532637D01*
X00530098Y01370329D01*
X00545333Y01367790D02*
Y01383025D01*
X00552951D01*
X00555490Y01380486D01*
Y01375408D01*
X00552951Y01372868D01*
X00545333D01*
X00570725Y01367790D02*
X00560568D01*
X00570725Y01377947D01*
Y01380486D01*
X00568186Y01383025D01*
X00563107D01*
X00560568Y01380486D01*
X00989843Y01413507D02*
Y01408428D01*
Y01410968D01*
X01002539D01*
X01005078Y01408428D01*
Y01405889D01*
X01002539Y01403350D01*
X01005078Y01418585D02*
X00989843D01*
Y01426203D01*
X00992382Y01428742D01*
X00997460D01*
X01000000Y01426203D01*
Y01418585D01*
X00992382Y01433820D02*
X00989843Y01436359D01*
Y01441438D01*
X00992382Y01443977D01*
X00994921D01*
X00997460Y01441438D01*
Y01438898D01*
Y01441438D01*
X01000000Y01443977D01*
X01002539D01*
X01005078Y01441438D01*
Y01436359D01*
X01002539Y01433820D01*
X01055883Y01413507D02*
Y01408428D01*
Y01410968D01*
X01068579D01*
X01071118Y01408428D01*
Y01405889D01*
X01068579Y01403350D01*
X01071118Y01418585D02*
X01055883D01*
Y01426203D01*
X01058422Y01428742D01*
X01063501D01*
X01066040Y01426203D01*
Y01418585D01*
X01071118Y01441438D02*
X01055883D01*
X01063501Y01433820D01*
Y01443977D01*
X00591058Y01568445D02*
Y01553210D01*
X00601215D01*
X00616450Y01568445D02*
X00606293D01*
Y01553210D01*
X00616450D01*
X00606293Y01560827D02*
X00611371D01*
X00621528Y01568445D02*
Y01553210D01*
X00629146D01*
X00631685Y01555749D01*
Y01565906D01*
X00629146Y01568445D01*
X00621528D01*
X00636763Y01553210D02*
X00641842D01*
X00639302D01*
Y01568445D01*
X00636763Y01565906D01*
X01111758Y01568445D02*
Y01553210D01*
X01121915D01*
X01137150Y01568445D02*
X01126993D01*
Y01553210D01*
X01137150D01*
X01126993Y01560827D02*
X01132071D01*
X01142228Y01568445D02*
Y01553210D01*
X01149846D01*
X01152385Y01555749D01*
Y01565906D01*
X01149846Y01568445D01*
X01142228D01*
X01167620Y01553210D02*
X01157463D01*
X01167620Y01563367D01*
Y01565906D01*
X01165081Y01568445D01*
X01160002D01*
X01157463Y01565906D01*
X00542798Y01565910D02*
X00527563D01*
Y01573528D01*
X00530102Y01576067D01*
X00535181D01*
X00537720Y01573528D01*
Y01565910D01*
Y01570988D02*
X00542798Y01576067D01*
Y01581145D02*
Y01586223D01*
Y01583684D01*
X00527563D01*
X00530102Y01581145D01*
X01238758Y01565910D02*
X01223523D01*
Y01573528D01*
X01226062Y01576067D01*
X01231141D01*
X01233680Y01573528D01*
Y01565910D01*
Y01570988D02*
X01238758Y01576067D01*
Y01591302D02*
Y01581145D01*
X01228601Y01591302D01*
X01226062D01*
X01223523Y01588763D01*
Y01583684D01*
X01226062Y01581145D01*
X00639318Y01405890D02*
Y01421125D01*
X00646936D01*
X00649475Y01418586D01*
Y01413508D01*
X00646936Y01410968D01*
X00639318D01*
X00644396D02*
X00649475Y01405890D01*
X00662171D02*
Y01421125D01*
X00654553Y01413508D01*
X00664710D01*
X01060958Y01494790D02*
Y01510025D01*
X01068576D01*
X01071115Y01507486D01*
Y01502408D01*
X01068576Y01499868D01*
X01060958D01*
X01066036D02*
X01071115Y01494790D01*
X01086350Y01510025D02*
X01076193D01*
Y01502408D01*
X01081271Y01504947D01*
X01083811D01*
X01086350Y01502408D01*
Y01497329D01*
X01083811Y01494790D01*
X01078732D01*
X01076193Y01497329D01*
X01220983Y01332230D02*
X01233679D01*
X01236218Y01334769D01*
Y01339848D01*
X01233679Y01342387D01*
X01220983D01*
X01223522Y01357622D02*
X01220983Y01355083D01*
Y01350004D01*
X01223522Y01347465D01*
X01226061D01*
X01228600Y01350004D01*
Y01355083D01*
X01231140Y01357622D01*
X01233679D01*
X01236218Y01355083D01*
Y01350004D01*
X01233679Y01347465D01*
X01220983Y01362700D02*
X01236218D01*
Y01370318D01*
X01233679Y01372857D01*
X01231140D01*
X01228600Y01370318D01*
Y01362700D01*
Y01370318D01*
X01226061Y01372857D01*
X01223522D01*
X01220983Y01370318D01*
Y01362700D01*
X00964438Y01304290D02*
X00969516D01*
X00966977D01*
Y01319525D01*
X00964438D01*
X00984751Y01304290D02*
X00979673D01*
X00977134Y01306829D01*
Y01311908D01*
X00979673Y01314447D01*
X00984751D01*
X00987291Y01311908D01*
Y01309368D01*
X00977134D01*
X00994908Y01304290D02*
Y01316986D01*
Y01311908D01*
X00992369D01*
X00997447D01*
X00994908D01*
Y01316986D01*
X00997447Y01319525D01*
X01007604Y01316986D02*
Y01314447D01*
X01005065D01*
X01010143D01*
X01007604D01*
Y01306829D01*
X01010143Y01304290D01*
X01048231Y01314447D02*
Y01304290D01*
Y01309368D01*
X01050770Y01311908D01*
X01053309Y01314447D01*
X01055848D01*
X01063466Y01304290D02*
X01068544D01*
X01066005D01*
Y01314447D01*
X01063466D01*
X01081240Y01299212D02*
X01083779D01*
X01086319Y01301751D01*
Y01314447D01*
X01078701D01*
X01076162Y01311908D01*
Y01306829D01*
X01078701Y01304290D01*
X01086319D01*
X01091397Y01319525D02*
Y01304290D01*
Y01311908D01*
X01093936Y01314447D01*
X01099014D01*
X01101554Y01311908D01*
Y01304290D01*
X01109171Y01316986D02*
Y01314447D01*
X01106632D01*
X01111710D01*
X01109171D01*
Y01306829D01*
X01111710Y01304290D01*
X00644398Y01344925D02*
Y01329690D01*
X00652016D01*
X00654555Y01332229D01*
Y01334768D01*
X00652016Y01337307D01*
X00644398D01*
X00652016D01*
X00654555Y01339847D01*
Y01342386D01*
X00652016Y01344925D01*
X00644398D01*
X00662172Y01339847D02*
X00667251D01*
X00669790Y01337307D01*
Y01329690D01*
X00662172D01*
X00659633Y01332229D01*
X00662172Y01334768D01*
X00669790D01*
X00677407Y01342386D02*
Y01339847D01*
X00674868D01*
X00679947D01*
X00677407D01*
Y01332229D01*
X00679947Y01329690D01*
X00690103Y01342386D02*
Y01339847D01*
X00687564D01*
X00692642D01*
X00690103D01*
Y01332229D01*
X00692642Y01329690D01*
X00707878D02*
X00702799D01*
X00700260Y01332229D01*
Y01337307D01*
X00702799Y01339847D01*
X00707878D01*
X00710417Y01337307D01*
Y01334768D01*
X00700260D01*
X00715495Y01339847D02*
Y01329690D01*
Y01334768D01*
X00718034Y01337307D01*
X00720573Y01339847D01*
X00723112D01*
X00730730D02*
Y01332229D01*
X00733269Y01329690D01*
X00740887D01*
Y01327151D01*
X00738348Y01324612D01*
X00735808D01*
X00740887Y01329690D02*
Y01339847D01*
X00966978Y01586230D02*
X00956821D01*
X00951743Y01591308D01*
X00956821Y01596387D01*
X00966978D01*
X00959361D01*
Y01586230D01*
X00966978Y01611622D02*
Y01601465D01*
X00956821Y01611622D01*
X00954282D01*
X00951743Y01609083D01*
Y01604004D01*
X00954282Y01601465D01*
X00992378Y01586230D02*
X00982221D01*
X00977143Y01591308D01*
X00982221Y01596387D01*
X00992378D01*
X00984761D01*
Y01586230D01*
X00977143Y01611622D02*
Y01601465D01*
X00984761D01*
X00982221Y01606543D01*
Y01609083D01*
X00984761Y01611622D01*
X00989839D01*
X00992378Y01609083D01*
Y01604004D01*
X00989839Y01601465D01*
X00773943Y01583690D02*
X00789178D01*
Y01591308D01*
X00786639Y01593847D01*
X00776482D01*
X00773943Y01591308D01*
Y01583690D01*
X00789178Y01598925D02*
Y01604003D01*
Y01601464D01*
X00773943D01*
X00776482Y01598925D01*
X00799343Y01583690D02*
X00814578D01*
Y01591308D01*
X00812039Y01593847D01*
X00801882D01*
X00799343Y01591308D01*
Y01583690D01*
X00801882Y01598925D02*
X00799343Y01601464D01*
Y01606543D01*
X00801882Y01609082D01*
X00804421D01*
X00806961Y01606543D01*
Y01604003D01*
Y01606543D01*
X00809500Y01609082D01*
X00812039D01*
X00814578Y01606543D01*
Y01601464D01*
X00812039Y01598925D01*
X00824743Y01583690D02*
X00839978D01*
Y01591308D01*
X00837439Y01593847D01*
X00827282D01*
X00824743Y01591308D01*
Y01583690D01*
Y01609082D02*
Y01598925D01*
X00832361D01*
X00829821Y01604003D01*
Y01606543D01*
X00832361Y01609082D01*
X00837439D01*
X00839978Y01606543D01*
Y01601464D01*
X00837439Y01598925D01*
X00850143Y01583690D02*
X00865378D01*
Y01591308D01*
X00862839Y01593847D01*
X00852682D01*
X00850143Y01591308D01*
Y01583690D01*
Y01598925D02*
Y01609082D01*
X00852682D01*
X00862839Y01598925D01*
X00865378D01*
X00875543Y01583690D02*
X00890778D01*
Y01591308D01*
X00888239Y01593847D01*
X00878082D01*
X00875543Y01591308D01*
Y01583690D01*
X00888239Y01598925D02*
X00890778Y01601464D01*
Y01606543D01*
X00888239Y01609082D01*
X00878082D01*
X00875543Y01606543D01*
Y01601464D01*
X00878082Y01598925D01*
X00880621D01*
X00883160Y01601464D01*
Y01609082D01*
X00900943Y01583690D02*
X00916178D01*
Y01591308D01*
X00913639Y01593847D01*
X00903482D01*
X00900943Y01591308D01*
Y01583690D01*
X00916178Y01598925D02*
Y01604003D01*
Y01601464D01*
X00900943D01*
X00903482Y01598925D01*
X00916178Y01611621D02*
Y01616699D01*
Y01614160D01*
X00900943D01*
X00903482Y01611621D01*
X00926343Y01583690D02*
X00941578D01*
Y01591308D01*
X00939039Y01593847D01*
X00928882D01*
X00926343Y01591308D01*
Y01583690D01*
X00941578Y01598925D02*
Y01604003D01*
Y01601464D01*
X00926343D01*
X00928882Y01598925D01*
Y01611621D02*
X00926343Y01614160D01*
Y01619238D01*
X00928882Y01621778D01*
X00931421D01*
X00933960Y01619238D01*
Y01616699D01*
Y01619238D01*
X00936500Y01621778D01*
X00939039D01*
X00941578Y01619238D01*
Y01614160D01*
X00939039Y01611621D01*
X00926343Y01482090D02*
X00941578D01*
Y01489707D01*
X00939039Y01492247D01*
X00928882D01*
X00926343Y01489707D01*
Y01482090D01*
X00941578Y01497325D02*
Y01502403D01*
Y01499864D01*
X00926343D01*
X00928882Y01497325D01*
X00941578Y01520178D02*
Y01510021D01*
X00931421Y01520178D01*
X00928882D01*
X00926343Y01517639D01*
Y01512560D01*
X00928882Y01510021D01*
X00900943Y01482090D02*
X00916178D01*
Y01489707D01*
X00913639Y01492247D01*
X00903482D01*
X00900943Y01489707D01*
Y01482090D01*
X00916178Y01497325D02*
Y01502403D01*
Y01499864D01*
X00900943D01*
X00903482Y01497325D01*
Y01510021D02*
X00900943Y01512560D01*
Y01517639D01*
X00903482Y01520178D01*
X00913639D01*
X00916178Y01517639D01*
Y01512560D01*
X00913639Y01510021D01*
X00903482D01*
X00875543Y01482090D02*
X00890778D01*
Y01489707D01*
X00888239Y01492247D01*
X00878082D01*
X00875543Y01489707D01*
Y01482090D01*
X00878082Y01497325D02*
X00875543Y01499864D01*
Y01504943D01*
X00878082Y01507482D01*
X00880621D01*
X00883160Y01504943D01*
X00885700Y01507482D01*
X00888239D01*
X00890778Y01504943D01*
Y01499864D01*
X00888239Y01497325D01*
X00885700D01*
X00883160Y01499864D01*
X00880621Y01497325D01*
X00878082D01*
X00883160Y01499864D02*
Y01504943D01*
X00850143Y01482090D02*
X00865378D01*
Y01489707D01*
X00862839Y01492247D01*
X00852682D01*
X00850143Y01489707D01*
Y01482090D01*
Y01507482D02*
X00852682Y01502403D01*
X00857760Y01497325D01*
X00862839D01*
X00865378Y01499864D01*
Y01504943D01*
X00862839Y01507482D01*
X00860300D01*
X00857760Y01504943D01*
Y01497325D01*
X00824743Y01482090D02*
X00839978D01*
Y01489707D01*
X00837439Y01492247D01*
X00827282D01*
X00824743Y01489707D01*
Y01482090D01*
X00839978Y01504943D02*
X00824743D01*
X00832361Y01497325D01*
Y01507482D01*
X00799343Y01482090D02*
X00814578D01*
Y01489707D01*
X00812039Y01492247D01*
X00801882D01*
X00799343Y01489707D01*
Y01482090D01*
X00814578Y01507482D02*
Y01497325D01*
X00804421Y01507482D01*
X00801882D01*
X00799343Y01504943D01*
Y01499864D01*
X00801882Y01497325D01*
X00773943Y01482090D02*
X00789178D01*
Y01489707D01*
X00786639Y01492247D01*
X00776482D01*
X00773943Y01489707D01*
Y01482090D01*
X00776482Y01497325D02*
X00773943Y01499864D01*
Y01504943D01*
X00776482Y01507482D01*
X00786639D01*
X00789178Y01504943D01*
Y01499864D01*
X00786639Y01497325D01*
X00776482D01*
X00992378Y01484630D02*
X00982221D01*
X00977143Y01489708D01*
X00982221Y01494787D01*
X00992378D01*
X00984761D01*
Y01484630D01*
X00992378Y01507483D02*
X00977143D01*
X00984761Y01499865D01*
Y01510022D01*
X00966978Y01484630D02*
X00956821D01*
X00951743Y01489708D01*
X00956821Y01494787D01*
X00966978D01*
X00959361D01*
Y01484630D01*
X00954282Y01499865D02*
X00951743Y01502404D01*
Y01507483D01*
X00954282Y01510022D01*
X00964439D01*
X00966978Y01507483D01*
Y01502404D01*
X00964439Y01499865D01*
X00954282D01*
X00748543Y01482090D02*
X00758700D01*
X00763778Y01487168D01*
X00758700Y01492247D01*
X00748543D01*
X00751082Y01507482D02*
X00748543Y01504943D01*
Y01499864D01*
X00751082Y01497325D01*
X00761239D01*
X00763778Y01499864D01*
Y01504943D01*
X00761239Y01507482D01*
X00751082Y01522717D02*
X00748543Y01520178D01*
Y01515099D01*
X00751082Y01512560D01*
X00761239D01*
X00763778Y01515099D01*
Y01520178D01*
X00761239Y01522717D01*
X00748543Y01583690D02*
X00758700D01*
X00763778Y01588768D01*
X00758700Y01593847D01*
X00748543D01*
X00751082Y01609082D02*
X00748543Y01606543D01*
Y01601464D01*
X00751082Y01598925D01*
X00761239D01*
X00763778Y01601464D01*
Y01606543D01*
X00761239Y01609082D01*
X00751082Y01624317D02*
X00748543Y01621778D01*
Y01616699D01*
X00751082Y01614160D01*
X00761239D01*
X00763778Y01616699D01*
Y01621778D01*
X00761239Y01624317D01*
X01005082Y01492247D02*
X01002543Y01489707D01*
Y01484629D01*
X01005082Y01482090D01*
X01015239D01*
X01017778Y01484629D01*
Y01489707D01*
X01015239Y01492247D01*
X01010161D01*
Y01487168D01*
X01017778Y01497325D02*
X01002543D01*
X01017778Y01507482D01*
X01002543D01*
Y01512560D02*
X01017778D01*
Y01520178D01*
X01015239Y01522717D01*
X01005082D01*
X01002543Y01520178D01*
Y01512560D01*
X01005082Y01593847D02*
X01002543Y01591308D01*
Y01586229D01*
X01005082Y01583690D01*
X01015239D01*
X01017778Y01586229D01*
Y01591308D01*
X01015239Y01593847D01*
X01010161D01*
Y01588768D01*
X01017778Y01598925D02*
X01002543D01*
X01017778Y01609082D01*
X01002543D01*
Y01614160D02*
X01017778D01*
Y01621778D01*
X01015239Y01624317D01*
X01005082D01*
X01002543Y01621778D01*
Y01614160D01*
X00616458Y01695445D02*
Y01680210D01*
X00626615D01*
X00631693D02*
X00636771D01*
X00634232D01*
Y01690367D01*
X00631693D01*
X00649467Y01675132D02*
X00652007D01*
X00654546Y01677671D01*
Y01690367D01*
X00646928D01*
X00644389Y01687827D01*
Y01682749D01*
X00646928Y01680210D01*
X00654546D01*
X00659624Y01695445D02*
Y01680210D01*
Y01687827D01*
X00662163Y01690367D01*
X00667242D01*
X00669781Y01687827D01*
Y01680210D01*
X00677398Y01692906D02*
Y01690367D01*
X00674859D01*
X00679938D01*
X00677398D01*
Y01682749D01*
X00679938Y01680210D01*
X00687555Y01695445D02*
Y01680210D01*
X00695173D01*
X00697712Y01682749D01*
Y01685288D01*
Y01687827D01*
X00695173Y01690367D01*
X00687555D01*
X00702790D02*
Y01682749D01*
X00705329Y01680210D01*
X00712947D01*
Y01690367D01*
X00723103Y01675132D02*
X00725643D01*
X00728182Y01677671D01*
Y01690367D01*
X00720564D01*
X00718025Y01687827D01*
Y01682749D01*
X00720564Y01680210D01*
X00728182D01*
X00748495Y01690367D02*
X00753574Y01680210D01*
X00758652Y01690367D01*
X00763730Y01680210D02*
X00768809D01*
X00766270D01*
Y01695445D01*
X00763730Y01692906D01*
X00776426Y01680210D02*
Y01682749D01*
X00778965D01*
Y01680210D01*
X00776426D01*
X00789122D02*
X00794201D01*
X00791661D01*
Y01695445D01*
X00789122Y01692906D01*
X00626615Y01670045D02*
X00616458D01*
Y01662428D01*
X00621536D01*
X00616458D01*
Y01654810D01*
X00631693Y01670045D02*
Y01654810D01*
Y01662428D01*
X00641850D01*
Y01670045D01*
Y01654810D01*
X00646928Y01670045D02*
Y01654810D01*
X00652007Y01659888D01*
X00657085Y01654810D01*
Y01670045D01*
X00662163Y01654810D02*
Y01670045D01*
X00672320Y01654810D01*
Y01670045D01*
X00702790Y01654810D02*
X00692633D01*
X00702790Y01664967D01*
Y01667506D01*
X00700251Y01670045D01*
X00695173D01*
X00692633Y01667506D01*
X00707868D02*
X00710408Y01670045D01*
X00715486D01*
X00718025Y01667506D01*
Y01657349D01*
X00715486Y01654810D01*
X00710408D01*
X00707868Y01657349D01*
Y01667506D01*
X00723103Y01654810D02*
X00728182D01*
X00725643D01*
Y01670045D01*
X00723103Y01667506D01*
X00745956Y01670045D02*
X00740878Y01667506D01*
X00735799Y01662428D01*
Y01657349D01*
X00738339Y01654810D01*
X00743417D01*
X00745956Y01657349D01*
Y01659888D01*
X00743417Y01662428D01*
X00735799D01*
X01241298Y01408430D02*
X01226063D01*
Y01416048D01*
X01228602Y01418587D01*
X01233680D01*
X01236220Y01416048D01*
Y01408430D01*
X01231141Y01423665D02*
X01241298D01*
X01236220D01*
X01233680Y01426204D01*
X01231141Y01428743D01*
Y01431283D01*
X01241298Y01441439D02*
Y01446518D01*
X01238759Y01449057D01*
X01233680D01*
X01231141Y01446518D01*
Y01441439D01*
X01233680Y01438900D01*
X01238759D01*
X01241298Y01441439D01*
X01246376Y01459214D02*
Y01461753D01*
X01243837Y01464292D01*
X01231141D01*
Y01456674D01*
X01233680Y01454135D01*
X01238759D01*
X01241298Y01456674D01*
Y01464292D01*
Y01469370D02*
X01238759D01*
Y01471909D01*
X01241298D01*
Y01469370D01*
X01109218Y01408430D02*
X01093983D01*
Y01416048D01*
X01096522Y01418587D01*
X01101600D01*
X01104140Y01416048D01*
Y01408430D01*
Y01413508D02*
X01109218Y01418587D01*
X01099061Y01423665D02*
X01106679D01*
X01109218Y01426204D01*
Y01433822D01*
X01099061D01*
X01109218Y01438900D02*
X01099061D01*
Y01446518D01*
X01101600Y01449057D01*
X01109218D01*
D61*
X01175138Y01428750D02*
D03*
M02*
