%FSAX44Y44*%
%MOMM*%
G71*
G01*
G75*
G04 Layer_Physical_Order=1*
G04 Layer_Color=255*
%ADD10C,1.0160*%
%ADD11C,0.2540*%
%ADD12C,0.5080*%
%ADD13R,9.1440X5.0800*%
%ADD14O,3.0480X1.5240*%
%ADD15C,1.5240*%
%ADD16C,2.0320*%
%ADD17C,5.0038*%
%ADD18C,1.5000*%
%ADD19R,1.5000X1.5000*%
%ADD20R,1.5000X1.5000*%
%ADD21C,0.8128*%
%ADD22C,5.0800*%
%ADD23C,1.6256*%
%ADD24C,1.4732*%
D10*
X01147318Y01408430D02*
Y01428750D01*
X01101598Y01362710D02*
X01147318Y01408430D01*
X01063498Y01362710D02*
X01101598D01*
X01187958Y01400810D02*
Y01428750D01*
Y01400810D02*
X01200658Y01388110D01*
X01213358D01*
X00918718Y01352550D02*
X00933958Y01337310D01*
X00997458D01*
X00626618Y01324610D02*
X00654558Y01352550D01*
X01213358Y01316990D02*
X01233678Y01337310D01*
X01121918Y01316990D02*
X01213358D01*
X01101598Y01337310D02*
X01121918Y01316990D01*
X01063498Y01337310D02*
X01101598D01*
X00552958Y01350010D02*
X00616458D01*
X00997458Y01337310D02*
X01030478D01*
X01063498D01*
X01198118Y01527810D02*
X01200658D01*
X01233678Y01494790D01*
Y01337310D02*
Y01494790D01*
X00720598Y01352550D02*
X00758698Y01390650D01*
X00654558Y01352550D02*
X00720598D01*
X00758698Y01390650D02*
X00880618D01*
X00918718Y01352550D01*
D11*
X01172718Y01400810D02*
X01187958D01*
X00921258Y01489710D02*
Y01553210D01*
X00908558Y01565910D02*
X00921258Y01553210D01*
X00946658D02*
Y01573530D01*
X00933958Y01586230D02*
X00946658Y01573530D01*
X00829818Y01586230D02*
X00933958D01*
Y01540510D02*
X00946658Y01553210D01*
X00959358Y01492250D02*
X00997458Y01530350D01*
X00949198Y01492250D02*
X00959358D01*
X00949198Y01510030D02*
X00972058Y01532890D01*
X00931418Y01510030D02*
X00949198D01*
X00972058Y01532890D02*
Y01576070D01*
X00951738Y01596390D02*
X00972058Y01576070D01*
X00845058Y01510030D02*
Y01553210D01*
X00577850Y01370330D02*
X00712978D01*
X00535940Y01412240D02*
X00577850Y01370330D01*
X00794258Y01438910D02*
X00860298D01*
X00994918Y01446530D02*
Y01449070D01*
X00974598Y01451610D02*
X00989838Y01466850D01*
X01005078D01*
X00916178Y01451610D02*
X00974598D01*
X00908558Y01512803D02*
Y01540510D01*
X01035558Y01388110D02*
X01063498D01*
X00904864Y01405890D02*
X00960744Y01350010D01*
X01121918D01*
X01172718Y01400810D01*
X01022858Y01375410D02*
X01035558Y01388110D01*
X00951738D02*
X00997458D01*
X00954278Y01375410D02*
X01022858D01*
X00911098Y01418590D02*
X00954278Y01375410D01*
X00885698Y01418590D02*
X00911098D01*
X00870225Y01474470D02*
X00908558Y01512803D01*
X00911098Y01428750D02*
X00951738Y01388110D01*
X00893318Y01428750D02*
X00911098D01*
X00768858Y01553210D02*
X00781558Y01565910D01*
X00794258Y01553210D02*
X00806958Y01565910D01*
X00832358D02*
X00845058Y01553210D01*
X00809731Y01499637D02*
Y01520423D01*
X00819658Y01530350D01*
Y01576070D01*
X00895858Y01464310D02*
X00921258Y01489710D01*
X00819658Y01576070D02*
X00829818Y01586230D01*
X00781558Y01527810D02*
Y01540510D01*
X00870458Y01553210D02*
X00883158Y01565910D01*
X00870458Y01532890D02*
Y01553210D01*
X00856372Y01461770D02*
Y01475624D01*
X00888238Y01507490D01*
Y01515110D01*
X00870458Y01532890D02*
X00888238Y01515110D01*
X00841020Y01477010D02*
X00878078Y01514068D01*
X00771398Y01477010D02*
X00841020D01*
X00794258Y01515110D02*
Y01553210D01*
X00751078Y01471930D02*
X00794258Y01515110D01*
X00740918Y01487170D02*
X00781558Y01527810D01*
X00768858D02*
Y01553210D01*
X00997458Y01530350D02*
Y01576070D01*
X01012698Y01591310D01*
X01111758D01*
X01149858Y01629410D01*
X00735838Y01416050D02*
X00751078Y01431290D01*
Y01471930D01*
X00740918Y01438910D02*
Y01487170D01*
X00745998Y01504950D02*
X00768858Y01527810D01*
X00705358Y01479550D02*
X00730758Y01504950D01*
X00745998D01*
X00872998Y01431290D02*
X00885698Y01418590D01*
X00872998Y01431290D02*
Y01445144D01*
X00856372Y01461770D02*
X00872998Y01445144D01*
X00883158Y01438910D02*
X00893318Y01428750D01*
X00883158Y01438910D02*
Y01461537D01*
X00872628Y01472068D02*
X00883158Y01461537D01*
X00616458Y01629410D02*
X00634238Y01647190D01*
X00674878D01*
X00725678Y01596390D01*
X00951738D01*
D12*
X01167638Y01428750D02*
Y01441450D01*
X01160018Y01449070D02*
X01167638Y01441450D01*
X00994918Y01449070D02*
X01160018D01*
X00987298Y01438910D02*
X00994918Y01446530D01*
X00908558Y01438910D02*
X00987298D01*
X00900938Y01446530D02*
X00908558Y01438910D01*
X00893318Y01446530D02*
X00900938D01*
X00860298Y01390650D02*
Y01438910D01*
X01010158Y01540510D02*
X01045718Y01504950D01*
X01126998D01*
X01149858Y01527810D01*
X00705358Y01446530D02*
X00725678Y01426210D01*
X00677418Y01446530D02*
X00705358D01*
X00616458Y01507490D02*
X00677418Y01446530D01*
X00616458Y01507490D02*
Y01527810D01*
X00667258D02*
X00743458D01*
X00756158Y01540510D01*
X00616458Y01527810D02*
X00641858Y01553210D01*
X00669798D01*
X00550418Y01296670D02*
X00624078D01*
X00644398Y01316990D02*
X00941578D01*
X00624078Y01296670D02*
X00644398Y01316990D01*
X00748538Y01400810D02*
X00758698Y01390650D01*
X00725678Y01408430D02*
Y01426210D01*
Y01408430D02*
X00733298Y01400810D01*
X00748538D01*
D13*
X01053338Y01670050D02*
D03*
D14*
X01063498Y01362710D02*
D03*
Y01388110D02*
D03*
Y01337310D02*
D03*
X00997458Y01362710D02*
D03*
Y01388110D02*
D03*
Y01337310D02*
D03*
X00552958Y01350010D02*
D03*
Y01324610D02*
D03*
X00616458Y01350010D02*
D03*
Y01324610D02*
D03*
D15*
X01030478Y01362710D02*
D03*
Y01337310D02*
D03*
X01149858Y01527810D02*
D03*
X01124458D02*
D03*
X00616458D02*
D03*
X00641858D02*
D03*
X01167638Y01428750D02*
D03*
X01187638D02*
D03*
X01147638D02*
D03*
D16*
X00705358Y01413510D02*
D03*
X00603758D02*
D03*
X01060958Y01477010D02*
D03*
X01162558D02*
D03*
X00565658Y01527810D02*
D03*
Y01629410D02*
D03*
X00641858D02*
D03*
X00616458D02*
D03*
X01124458D02*
D03*
X01149858D02*
D03*
X01200658Y01527810D02*
D03*
Y01629410D02*
D03*
X00705358Y01446530D02*
D03*
X00603758D02*
D03*
Y01479550D02*
D03*
X00705358D02*
D03*
X00669798Y01527810D02*
D03*
Y01578610D02*
D03*
Y01604010D02*
D03*
Y01553210D02*
D03*
X01208638Y01428750D02*
D03*
X01126638D02*
D03*
D17*
X00657352Y00812292D02*
D03*
X01108202Y00812800D02*
D03*
X00789178D02*
D03*
X00976376D02*
D03*
X00657352Y01273175D02*
D03*
X01108202D02*
D03*
X00789178D02*
D03*
X00976376D02*
D03*
D18*
X00561340Y01412240D02*
D03*
X00535940D02*
D03*
X00561340Y01437640D02*
D03*
X00535940D02*
D03*
X00561340Y01463040D02*
D03*
X00756158Y01565910D02*
D03*
X00781558Y01540510D02*
D03*
Y01565910D02*
D03*
X00806958Y01540510D02*
D03*
Y01565910D02*
D03*
X00832358Y01540510D02*
D03*
Y01565910D02*
D03*
X00857758Y01540510D02*
D03*
Y01565910D02*
D03*
X00883158Y01540510D02*
D03*
Y01565910D02*
D03*
X00908558Y01540510D02*
D03*
Y01565910D02*
D03*
X00933958Y01540510D02*
D03*
Y01565910D02*
D03*
X00959358Y01540510D02*
D03*
Y01565910D02*
D03*
X00984758Y01540510D02*
D03*
Y01565910D02*
D03*
X01010158Y01540510D02*
D03*
Y01565910D02*
D03*
D19*
X00535940Y01463040D02*
D03*
D20*
X00756158Y01540510D02*
D03*
D21*
X00878078Y01514068D02*
D03*
X00803275Y01634617D02*
D03*
X00798068Y01647190D02*
D03*
X00803275Y01659763D02*
D03*
X00815848Y01664970D02*
D03*
X00828421Y01659763D02*
D03*
X00833628Y01647190D02*
D03*
X00828421Y01634617D02*
D03*
X00815848Y01629410D02*
D03*
X00950468D02*
D03*
X00963041Y01634617D02*
D03*
X00968248Y01647190D02*
D03*
X00963041Y01659763D02*
D03*
X00950468Y01664970D02*
D03*
X00937895Y01659763D02*
D03*
X00932688Y01647190D02*
D03*
X00937895Y01634617D02*
D03*
X00794258Y01438910D02*
D03*
X00994918Y01449070D02*
D03*
X01005078Y01466850D02*
D03*
X00712978Y01370330D02*
D03*
X00904864Y01405890D02*
D03*
X00856372Y01461770D02*
D03*
X00870225Y01474470D02*
D03*
X00931418Y01510030D02*
D03*
X00949198Y01492250D02*
D03*
X00916178Y01451610D02*
D03*
X00845058Y01510030D02*
D03*
X00809731Y01499637D02*
D03*
X00895858Y01464310D02*
D03*
X00893318Y01446530D02*
D03*
X00771398Y01477010D02*
D03*
X00735838Y01416050D02*
D03*
X00740918Y01438910D02*
D03*
D22*
X00815848Y01647190D02*
D03*
X00950468D02*
D03*
D23*
X00550418Y01296670D02*
D03*
X00941578Y01316990D02*
D03*
X00758698Y01390650D02*
D03*
X01213358Y01388110D02*
D03*
Y01316990D02*
D03*
X00918718Y01352550D02*
D03*
D24*
X00860298Y01438910D02*
D03*
M02*
