M48
;Layer_Color=9474304
;FILE_FORMAT=4:4
METRIC
;TYPE=PLATED
T1F00S00C0.4064
T2F00S00C0.7874
T3F00S00C0.8128
T4F00S00C0.9906
T5F00S00C1.0160
T6F00S00C1.5240
T7F00S00C2.2860
;TYPE=NON_PLATED
T8F00S00C5.0038
%
T01
X00794258Y01438910
X00809731Y01499637
X00845058Y01510030
X00878078Y01514068
X00870225Y01474470
X00856372Y01461770
X00895858Y01464310
X00893318Y01446530
X00916178Y01451610
X00904864Y01405890
X00931418Y01510030
X00949198Y01492250
X01005078Y01466850
X00994918Y01449070
X00771398Y01477010
X00740918Y01438910
X00735838Y01416050
X00712978Y01370330
X00803275Y01634617
X00798068Y01647190
X00803275Y01659763
X00815848Y01664970
X00828421Y01659763
X00833628Y01647190
X00828421Y01634617
X00815848Y01629410
X00937895Y01634617
X00950468Y01629410
X00963041Y01634617
X00968248Y01647190
X00963041Y01659763
X00950468Y01664970
X00937895Y01659763
X00932688Y01647190
T02
X01147638Y01428750
X01167638
T03
X01213358Y01316990
Y01388110
X01200658Y01527810
X01149858
X01124458
X01162558Y01477010
X01187638Y01428750
X01060958Y01477010
X01030478Y01362710
Y01337310
X00941578Y01316990
X00918718Y01352550
X00860298Y01438910
X00758698Y01390650
X00705358Y01413510
Y01446530
Y01479550
X00603758
Y01446530
Y01413510
X00616458Y01527810
X00641858
X00565658
X00550418Y01296670
X00565658Y01629410
X00616458
X00641858
X01124458
X01149858
X01200658
T04
X00669798Y01527810
Y01553210
Y01578610
Y01604010
T05
X00997458Y01337310
Y01362710
Y01388110
X01063498
Y01362710
Y01337310
X01010158Y01540510
X00984758
X00959358
X00933958
X00908558
X00883158
X00857758
X00832358
X00806958
Y01565910
X00832358
X00857758
X00883158
X00908558
X00933958
X00959358
X00984758
X01010158
X00781558
X00756158
Y01540510
X00781558
X00561340Y01463040
Y01437640
Y01412240
X00535940
Y01437640
Y01463040
X00552958Y01350010
Y01324610
X00616458
Y01350010
T06
X01208638Y01428750
X01126638
T07
X00815848Y01647190
X00950468
T08
X00657352Y00812292
X00789178Y00812800
X00976376
X01108202
Y01273175
X00976376
X00789178
X00657352
M30
