%FSAX44Y44*%
%MOMM*%
G71*
G01*
G75*
G04 Layer_Color=8388736*
%ADD10C,1.0160*%
%ADD11C,0.2540*%
%ADD12C,0.5080*%
%ADD13R,9.1440X5.0800*%
%ADD14O,3.0480X1.5240*%
%ADD15C,1.5240*%
%ADD16C,2.0320*%
%ADD17C,5.0038*%
%ADD18C,1.5000*%
%ADD19R,1.5000X1.5000*%
%ADD20R,1.5000X1.5000*%
%ADD21C,0.8128*%
%ADD22C,5.0800*%
%ADD23C,1.6256*%
%ADD24C,1.4732*%
%ADD25R,1.5400X3.1400*%
%ADD26R,1.3000X1.3000*%
%ADD27R,1.3000X1.3000*%
G04:AMPARAMS|DCode=28|XSize=1.3mm|YSize=1.3mm|CornerRadius=0mm|HoleSize=0mm|Usage=FLASHONLY|Rotation=225.000|XOffset=0mm|YOffset=0mm|HoleType=Round|Shape=Rectangle|*
%AMROTATEDRECTD28*
4,1,4,0.0000,0.9192,0.9192,0.0000,0.0000,-0.9192,-0.9192,0.0000,0.0000,0.9192,0.0*
%
%ADD28ROTATEDRECTD28*%

%ADD29P,1.8385X4X270.0*%
G04:AMPARAMS|DCode=30|XSize=0.55mm|YSize=1.45mm|CornerRadius=0mm|HoleSize=0mm|Usage=FLASHONLY|Rotation=135.000|XOffset=0mm|YOffset=0mm|HoleType=Round|Shape=Round|*
%AMOVALD30*
21,1,0.9000,0.5500,0.0000,0.0000,225.0*
1,1,0.5500,0.3182,0.3182*
1,1,0.5500,-0.3182,-0.3182*
%
%ADD30OVALD30*%

G04:AMPARAMS|DCode=31|XSize=0.55mm|YSize=1.45mm|CornerRadius=0mm|HoleSize=0mm|Usage=FLASHONLY|Rotation=45.000|XOffset=0mm|YOffset=0mm|HoleType=Round|Shape=Round|*
%AMOVALD31*
21,1,0.9000,0.5500,0.0000,0.0000,135.0*
1,1,0.5500,0.3182,-0.3182*
1,1,0.5500,-0.3182,0.3182*
%
%ADD31OVALD31*%

%ADD32R,1.4000X0.4000*%
%ADD33R,1.9000X2.3000*%
%ADD34R,1.9000X1.8000*%
%ADD35R,1.6000X0.3000*%
%ADD36R,14.4780X21.5900*%
%ADD37R,3.3020X3.0480*%
%ADD38C,0.3048*%
%ADD39O,3.2512X1.7272*%
%ADD40C,1.7272*%
%ADD41C,2.2352*%
%ADD42C,5.2070*%
%ADD43C,1.7032*%
%ADD44R,1.7032X1.7032*%
%ADD45R,1.7032X1.7032*%
%ADD46C,1.0160*%
%ADD47C,5.2832*%
D38*
X01087628Y01657350D02*
X01090676Y01661414D01*
X01081786Y01657350D02*
X01090676Y01661414D01*
X01081786Y01657350D02*
X01092708Y01667256D01*
X01089660Y01674368D02*
X01092708Y01667256D01*
X01087628Y01677416D02*
X01089660Y01674368D01*
X01087628Y01677416D02*
X01089660Y01678432D01*
X01084580Y01680464D02*
X01089660Y01678432D01*
X01084580Y01680464D02*
X01090676Y01682242D01*
X01079754Y01683258D02*
X01090676Y01682242D01*
X01079754Y01683258D02*
X01091692Y01670304D01*
X01078738Y01656334D02*
X01091692Y01670304D01*
X01076706Y01655318D02*
X01078738Y01656334D01*
X01072642Y01659382D02*
X01076706Y01655318D01*
X01069594Y01657350D02*
X01072642Y01659382D01*
X01069594Y01657350D02*
X01072642Y01665478D01*
X01064768Y01655318D02*
X01072642Y01665478D01*
X01067816Y01683258D02*
X01068578Y01680464D01*
X01070610Y01682242D01*
X01072642Y01676400D01*
X01061720Y01684274D02*
X01072642Y01676400D01*
X01061720Y01684274D02*
X01074674Y01670304D01*
X01061720Y01656334D02*
X01074674Y01670304D01*
X01090676Y01682242D02*
Y01684274D01*
Y01661414D02*
Y01682242D01*
Y01656334D02*
Y01661414D01*
X01078738Y01656334D02*
X01090676D01*
X01061720D02*
X01078738D01*
X01057656D02*
X01061720D01*
X01057656Y01653286D02*
Y01656334D01*
Y01653286D02*
X01092708D01*
Y01656334D01*
X01078738D02*
X01092708D01*
X01074674D02*
X01078738D01*
X01074674D02*
Y01670304D01*
Y01687322D01*
X01093724D01*
Y01684274D02*
Y01687322D01*
X01090676Y01684274D02*
X01093724D01*
X01061720D02*
X01090676D01*
X01057656D02*
X01061720D01*
X01057656Y01653286D02*
Y01684274D01*
X01056640Y01686306D02*
X01071626D01*
X01056640Y01650238D02*
Y01686306D01*
Y01650238D02*
X01073658D01*
Y01688338D01*
X01054608D02*
X01073658D01*
X01054608Y01650238D02*
Y01688338D01*
X01012576Y01650238D02*
X01054608D01*
X01056640D01*
X01073658D02*
X01093724D01*
Y01684274D01*
Y01690370D01*
X01052576D02*
X01093724D01*
X01052576Y01651254D02*
Y01690370D01*
X01012576Y01650238D02*
Y01690370D01*
X01052576D01*
X01045076Y01660398D02*
Y01670304D01*
Y01680464D01*
X01035076Y01670304D02*
X01045076D01*
X01035076Y01660398D02*
Y01670304D01*
Y01680464D01*
X01022576Y01670304D02*
X01027576D01*
X01020076Y01680464D02*
X01030076D01*
X01020076Y01660398D02*
Y01680464D01*
D39*
X01063498Y01362710D02*
D03*
Y01388110D02*
D03*
Y01337310D02*
D03*
X00997458Y01362710D02*
D03*
Y01388110D02*
D03*
Y01337310D02*
D03*
X00552958Y01350010D02*
D03*
Y01324610D02*
D03*
X00616458Y01350010D02*
D03*
Y01324610D02*
D03*
D40*
X01030478Y01362710D02*
D03*
Y01337310D02*
D03*
X01149858Y01527810D02*
D03*
X01124458D02*
D03*
X00616458D02*
D03*
X00641858D02*
D03*
X01167638Y01428750D02*
D03*
X01187638D02*
D03*
X01147638D02*
D03*
D41*
X00705358Y01413510D02*
D03*
X00603758D02*
D03*
X01060958Y01477010D02*
D03*
X01162558D02*
D03*
X00565658Y01527810D02*
D03*
Y01629410D02*
D03*
X00641858D02*
D03*
X00616458D02*
D03*
X01124458D02*
D03*
X01149858D02*
D03*
X01200658Y01527810D02*
D03*
Y01629410D02*
D03*
X00705358Y01446530D02*
D03*
X00603758D02*
D03*
Y01479550D02*
D03*
X00705358D02*
D03*
X00669798Y01527810D02*
D03*
Y01578610D02*
D03*
Y01604010D02*
D03*
Y01553210D02*
D03*
X01208638Y01428750D02*
D03*
X01126638D02*
D03*
D42*
X00657352Y00812292D02*
D03*
X01108202Y00812800D02*
D03*
X00789178D02*
D03*
X00976376D02*
D03*
X00657352Y01273175D02*
D03*
X01108202D02*
D03*
X00789178D02*
D03*
X00976376D02*
D03*
D43*
X00561340Y01412240D02*
D03*
X00535940D02*
D03*
X00561340Y01437640D02*
D03*
X00535940D02*
D03*
X00561340Y01463040D02*
D03*
X00756158Y01565910D02*
D03*
X00781558Y01540510D02*
D03*
Y01565910D02*
D03*
X00806958Y01540510D02*
D03*
Y01565910D02*
D03*
X00832358Y01540510D02*
D03*
Y01565910D02*
D03*
X00857758Y01540510D02*
D03*
Y01565910D02*
D03*
X00883158Y01540510D02*
D03*
Y01565910D02*
D03*
X00908558Y01540510D02*
D03*
Y01565910D02*
D03*
X00933958Y01540510D02*
D03*
Y01565910D02*
D03*
X00959358Y01540510D02*
D03*
Y01565910D02*
D03*
X00984758Y01540510D02*
D03*
Y01565910D02*
D03*
X01010158Y01540510D02*
D03*
Y01565910D02*
D03*
D44*
X00535940Y01463040D02*
D03*
D45*
X00756158Y01540510D02*
D03*
D46*
X00803275Y01634617D02*
D03*
X00798068Y01647190D02*
D03*
X00803275Y01659763D02*
D03*
X00815848Y01664970D02*
D03*
X00828421Y01659763D02*
D03*
X00833628Y01647190D02*
D03*
X00828421Y01634617D02*
D03*
X00815848Y01629410D02*
D03*
X00950468D02*
D03*
X00963041Y01634617D02*
D03*
X00968248Y01647190D02*
D03*
X00963041Y01659763D02*
D03*
X00950468Y01664970D02*
D03*
X00937895Y01659763D02*
D03*
X00932688Y01647190D02*
D03*
X00937895Y01634617D02*
D03*
D47*
X00815848Y01647190D02*
D03*
X00950468D02*
D03*
M02*
