%FSAX44Y44*%
%MOMM*%
G71*
G01*
G75*
G04 Layer_Color=16711935*
%ADD10C,1.0160*%
%ADD11C,0.2540*%
%ADD12C,0.5080*%
%ADD13R,9.1440X5.0800*%
%ADD14O,3.0480X1.5240*%
%ADD15C,1.5240*%
%ADD16C,2.0320*%
%ADD17C,5.0038*%
%ADD18C,1.5000*%
%ADD19R,1.5000X1.5000*%
%ADD20R,1.5000X1.5000*%
%ADD21C,0.8128*%
%ADD22C,5.0800*%
%ADD23C,1.6256*%
%ADD24C,1.4732*%
%ADD25R,1.5400X3.1400*%
%ADD26R,1.3000X1.3000*%
%ADD27R,1.3000X1.3000*%
G04:AMPARAMS|DCode=28|XSize=1.3mm|YSize=1.3mm|CornerRadius=0mm|HoleSize=0mm|Usage=FLASHONLY|Rotation=225.000|XOffset=0mm|YOffset=0mm|HoleType=Round|Shape=Rectangle|*
%AMROTATEDRECTD28*
4,1,4,0.0000,0.9192,0.9192,0.0000,0.0000,-0.9192,-0.9192,0.0000,0.0000,0.9192,0.0*
%
%ADD28ROTATEDRECTD28*%

%ADD29P,1.8385X4X270.0*%
G04:AMPARAMS|DCode=30|XSize=0.55mm|YSize=1.45mm|CornerRadius=0mm|HoleSize=0mm|Usage=FLASHONLY|Rotation=135.000|XOffset=0mm|YOffset=0mm|HoleType=Round|Shape=Round|*
%AMOVALD30*
21,1,0.9000,0.5500,0.0000,0.0000,225.0*
1,1,0.5500,0.3182,0.3182*
1,1,0.5500,-0.3182,-0.3182*
%
%ADD30OVALD30*%

G04:AMPARAMS|DCode=31|XSize=0.55mm|YSize=1.45mm|CornerRadius=0mm|HoleSize=0mm|Usage=FLASHONLY|Rotation=45.000|XOffset=0mm|YOffset=0mm|HoleType=Round|Shape=Round|*
%AMOVALD31*
21,1,0.9000,0.5500,0.0000,0.0000,135.0*
1,1,0.5500,0.3182,-0.3182*
1,1,0.5500,-0.3182,0.3182*
%
%ADD31OVALD31*%

%ADD32R,1.4000X0.4000*%
%ADD33R,1.9000X2.3000*%
%ADD34R,1.9000X1.8000*%
%ADD35R,1.6000X0.3000*%
%ADD36R,14.4780X21.5900*%
%ADD37R,3.3020X3.0480*%
%ADD38C,0.3048*%
%ADD39O,3.2512X1.7272*%
%ADD40C,1.7272*%
%ADD41C,2.2352*%
%ADD42C,5.2070*%
%ADD43C,1.7032*%
%ADD44R,1.7032X1.7032*%
%ADD45R,1.7032X1.7032*%
%ADD46C,1.0160*%
%ADD47C,5.2832*%
%ADD48C,0.2032*%
%ADD49R,1.7432X3.3432*%
%ADD50R,1.5032X1.5032*%
%ADD51R,1.5032X1.5032*%
G04:AMPARAMS|DCode=52|XSize=1.5032mm|YSize=1.5032mm|CornerRadius=0mm|HoleSize=0mm|Usage=FLASHONLY|Rotation=225.000|XOffset=0mm|YOffset=0mm|HoleType=Round|Shape=Rectangle|*
%AMROTATEDRECTD52*
4,1,4,0.0000,1.0629,1.0629,0.0000,0.0000,-1.0629,-1.0629,0.0000,0.0000,1.0629,0.0*
%
%ADD52ROTATEDRECTD52*%

%ADD53P,2.1258X4X270.0*%
G04:AMPARAMS|DCode=54|XSize=0.7532mm|YSize=1.6532mm|CornerRadius=0mm|HoleSize=0mm|Usage=FLASHONLY|Rotation=135.000|XOffset=0mm|YOffset=0mm|HoleType=Round|Shape=Round|*
%AMOVALD54*
21,1,0.9000,0.7532,0.0000,0.0000,225.0*
1,1,0.7532,0.3182,0.3182*
1,1,0.7532,-0.3182,-0.3182*
%
%ADD54OVALD54*%

G04:AMPARAMS|DCode=55|XSize=0.7532mm|YSize=1.6532mm|CornerRadius=0mm|HoleSize=0mm|Usage=FLASHONLY|Rotation=45.000|XOffset=0mm|YOffset=0mm|HoleType=Round|Shape=Round|*
%AMOVALD55*
21,1,0.9000,0.7532,0.0000,0.0000,135.0*
1,1,0.7532,0.3182,-0.3182*
1,1,0.7532,-0.3182,0.3182*
%
%ADD55OVALD55*%

%ADD56R,1.6032X0.6032*%
%ADD57R,2.1032X2.5032*%
%ADD58R,2.1032X2.0032*%
%ADD59R,1.8032X0.5032*%
G36*
X01055702Y01107103D02*
X01056198Y01107054D01*
X01056669Y01106979D01*
X01057091Y01106880D01*
X01057487Y01106781D01*
X01057859Y01106657D01*
X01058182Y01106508D01*
X01058479Y01106359D01*
X01058752Y01106235D01*
X01059000Y01106087D01*
X01059198Y01105963D01*
X01059347Y01105839D01*
X01059471Y01105764D01*
X01059570Y01105690D01*
X01059619Y01105640D01*
X01059644Y01105616D01*
X01059917Y01105318D01*
X01060165Y01104996D01*
X01060388Y01104674D01*
X01060561Y01104327D01*
X01060710Y01104004D01*
X01060834Y01103657D01*
X01061032Y01103013D01*
X01061107Y01102690D01*
X01061156Y01102418D01*
X01061181Y01102170D01*
X01061206Y01101947D01*
X01061231Y01101773D01*
Y01101649D01*
Y01101550D01*
Y01101525D01*
X01061181Y01100781D01*
X01061082Y01100137D01*
X01060908Y01099542D01*
X01060735Y01099071D01*
X01060636Y01098848D01*
X01060561Y01098674D01*
X01060462Y01098526D01*
X01060388Y01098402D01*
X01060338Y01098278D01*
X01060289Y01098203D01*
X01060239Y01098179D01*
Y01098154D01*
X01059842Y01097708D01*
X01059371Y01097311D01*
X01058900Y01097013D01*
X01058454Y01096766D01*
X01058033Y01096567D01*
X01057859Y01096493D01*
X01057710Y01096443D01*
X01057587Y01096394D01*
X01057487Y01096369D01*
X01057438Y01096344D01*
X01057413D01*
X01057140Y01098402D01*
X01057587Y01098600D01*
X01057983Y01098798D01*
X01058305Y01098997D01*
X01058553Y01099195D01*
X01058776Y01099369D01*
X01058900Y01099517D01*
X01059000Y01099616D01*
X01059024Y01099641D01*
X01059223Y01099939D01*
X01059347Y01100261D01*
X01059446Y01100583D01*
X01059520Y01100881D01*
X01059570Y01101129D01*
X01059594Y01101327D01*
Y01101476D01*
Y01101500D01*
Y01101525D01*
X01059545Y01102046D01*
X01059446Y01102517D01*
X01059272Y01102938D01*
X01059074Y01103310D01*
X01058900Y01103583D01*
X01058727Y01103806D01*
X01058628Y01103930D01*
X01058578Y01103979D01*
X01058157Y01104302D01*
X01057661Y01104575D01*
X01057165Y01104748D01*
X01056694Y01104897D01*
X01056248Y01104996D01*
X01056074Y01105021D01*
X01055901Y01105045D01*
X01055777D01*
X01055653Y01105070D01*
X01055579D01*
Y01096294D01*
X01055355Y01096270D01*
X01055058D01*
X01054512Y01096294D01*
X01054017Y01096344D01*
X01053546Y01096418D01*
X01053124Y01096493D01*
X01052703Y01096617D01*
X01052331Y01096741D01*
X01052009Y01096889D01*
X01051686Y01097013D01*
X01051414Y01097162D01*
X01051191Y01097311D01*
X01050992Y01097435D01*
X01050819Y01097534D01*
X01050695Y01097633D01*
X01050596Y01097708D01*
X01050546Y01097757D01*
X01050521Y01097782D01*
X01050224Y01098079D01*
X01049976Y01098377D01*
X01049753Y01098699D01*
X01049579Y01099021D01*
X01049406Y01099344D01*
X01049282Y01099666D01*
X01049083Y01100261D01*
X01049009Y01100558D01*
X01048959Y01100806D01*
X01048935Y01101054D01*
X01048910Y01101253D01*
X01048885Y01101426D01*
Y01101550D01*
Y01101624D01*
Y01101649D01*
X01048910Y01102095D01*
X01048959Y01102517D01*
X01049034Y01102914D01*
X01049133Y01103285D01*
X01049282Y01103657D01*
X01049406Y01103979D01*
X01049554Y01104277D01*
X01049703Y01104550D01*
X01049877Y01104798D01*
X01050025Y01104996D01*
X01050149Y01105194D01*
X01050273Y01105343D01*
X01050397Y01105467D01*
X01050472Y01105541D01*
X01050521Y01105591D01*
X01050546Y01105616D01*
X01050868Y01105888D01*
X01051215Y01106112D01*
X01051587Y01106310D01*
X01051959Y01106483D01*
X01052356Y01106632D01*
X01052728Y01106756D01*
X01053471Y01106930D01*
X01053818Y01107004D01*
X01054141Y01107054D01*
X01054438Y01107078D01*
X01054686Y01107103D01*
X01054884Y01107128D01*
X01055182D01*
X01055702Y01107103D01*
D02*
G37*
G36*
X01060958Y01091832D02*
X01054785D01*
X01054314Y01091807D01*
X01053893Y01091783D01*
X01053496Y01091733D01*
X01053149Y01091659D01*
X01052851Y01091609D01*
X01052628Y01091560D01*
X01052505Y01091535D01*
X01052455Y01091510D01*
X01052207Y01091411D01*
X01051984Y01091312D01*
X01051786Y01091188D01*
X01051637Y01091064D01*
X01051513Y01090965D01*
X01051414Y01090865D01*
X01051364Y01090816D01*
X01051339Y01090791D01*
X01051215Y01090593D01*
X01051116Y01090394D01*
X01051042Y01090196D01*
X01050992Y01090023D01*
X01050967Y01089849D01*
X01050943Y01089725D01*
Y01089651D01*
Y01089626D01*
X01050967Y01089353D01*
X01051017Y01089081D01*
X01051091Y01088833D01*
X01051166Y01088609D01*
X01051240Y01088436D01*
X01051314Y01088287D01*
X01051364Y01088188D01*
X01051389Y01088163D01*
X01049554Y01087444D01*
X01049331Y01087841D01*
X01049158Y01088213D01*
X01049059Y01088560D01*
X01048959Y01088857D01*
X01048910Y01089130D01*
X01048885Y01089328D01*
Y01089452D01*
Y01089502D01*
X01048910Y01089750D01*
X01048959Y01089998D01*
X01049009Y01090221D01*
X01049083Y01090394D01*
X01049183Y01090568D01*
X01049232Y01090692D01*
X01049282Y01090766D01*
X01049306Y01090791D01*
X01049480Y01091014D01*
X01049728Y01091212D01*
X01050001Y01091436D01*
X01050273Y01091634D01*
X01050521Y01091783D01*
X01050744Y01091907D01*
X01050893Y01092006D01*
X01050918Y01092030D01*
X01049158D01*
Y01093840D01*
X01060958D01*
Y01091832D01*
D02*
G37*
G36*
X01055702Y01132389D02*
X01056198Y01132340D01*
X01056669Y01132265D01*
X01057091Y01132166D01*
X01057487Y01132067D01*
X01057859Y01131943D01*
X01058182Y01131794D01*
X01058479Y01131646D01*
X01058752Y01131522D01*
X01059000Y01131373D01*
X01059198Y01131249D01*
X01059347Y01131125D01*
X01059471Y01131051D01*
X01059570Y01130976D01*
X01059619Y01130927D01*
X01059644Y01130902D01*
X01059917Y01130604D01*
X01060165Y01130282D01*
X01060388Y01129960D01*
X01060561Y01129613D01*
X01060710Y01129290D01*
X01060834Y01128943D01*
X01061032Y01128299D01*
X01061107Y01127977D01*
X01061156Y01127704D01*
X01061181Y01127456D01*
X01061206Y01127233D01*
X01061231Y01127059D01*
Y01126935D01*
Y01126836D01*
Y01126812D01*
X01061181Y01126068D01*
X01061082Y01125423D01*
X01060908Y01124828D01*
X01060735Y01124357D01*
X01060636Y01124134D01*
X01060561Y01123961D01*
X01060462Y01123812D01*
X01060388Y01123688D01*
X01060338Y01123564D01*
X01060289Y01123490D01*
X01060239Y01123465D01*
Y01123440D01*
X01059842Y01122994D01*
X01059371Y01122597D01*
X01058900Y01122300D01*
X01058454Y01122052D01*
X01058033Y01121853D01*
X01057859Y01121779D01*
X01057710Y01121729D01*
X01057587Y01121680D01*
X01057487Y01121655D01*
X01057438Y01121630D01*
X01057413D01*
X01057140Y01123688D01*
X01057587Y01123886D01*
X01057983Y01124084D01*
X01058305Y01124283D01*
X01058553Y01124481D01*
X01058776Y01124655D01*
X01058900Y01124803D01*
X01059000Y01124903D01*
X01059024Y01124927D01*
X01059223Y01125225D01*
X01059347Y01125547D01*
X01059446Y01125869D01*
X01059520Y01126167D01*
X01059570Y01126415D01*
X01059594Y01126613D01*
Y01126762D01*
Y01126787D01*
Y01126812D01*
X01059545Y01127332D01*
X01059446Y01127803D01*
X01059272Y01128224D01*
X01059074Y01128596D01*
X01058900Y01128869D01*
X01058727Y01129092D01*
X01058628Y01129216D01*
X01058578Y01129266D01*
X01058157Y01129588D01*
X01057661Y01129861D01*
X01057165Y01130034D01*
X01056694Y01130183D01*
X01056248Y01130282D01*
X01056074Y01130307D01*
X01055901Y01130332D01*
X01055777D01*
X01055653Y01130357D01*
X01055579D01*
Y01121581D01*
X01055355Y01121556D01*
X01055058D01*
X01054512Y01121581D01*
X01054017Y01121630D01*
X01053546Y01121705D01*
X01053124Y01121779D01*
X01052703Y01121903D01*
X01052331Y01122027D01*
X01052009Y01122176D01*
X01051686Y01122300D01*
X01051414Y01122448D01*
X01051191Y01122597D01*
X01050992Y01122721D01*
X01050819Y01122820D01*
X01050695Y01122919D01*
X01050596Y01122994D01*
X01050546Y01123043D01*
X01050521Y01123068D01*
X01050224Y01123366D01*
X01049976Y01123663D01*
X01049753Y01123985D01*
X01049579Y01124308D01*
X01049406Y01124630D01*
X01049282Y01124952D01*
X01049083Y01125547D01*
X01049009Y01125845D01*
X01048959Y01126093D01*
X01048935Y01126340D01*
X01048910Y01126539D01*
X01048885Y01126712D01*
Y01126836D01*
Y01126911D01*
Y01126935D01*
X01048910Y01127382D01*
X01048959Y01127803D01*
X01049034Y01128200D01*
X01049133Y01128572D01*
X01049282Y01128943D01*
X01049406Y01129266D01*
X01049554Y01129563D01*
X01049703Y01129836D01*
X01049877Y01130084D01*
X01050025Y01130282D01*
X01050149Y01130480D01*
X01050273Y01130629D01*
X01050397Y01130753D01*
X01050472Y01130827D01*
X01050521Y01130877D01*
X01050546Y01130902D01*
X01050868Y01131175D01*
X01051215Y01131398D01*
X01051587Y01131596D01*
X01051959Y01131769D01*
X01052356Y01131918D01*
X01052728Y01132042D01*
X01053471Y01132216D01*
X01053818Y01132290D01*
X01054141Y01132340D01*
X01054438Y01132365D01*
X01054686Y01132389D01*
X01054884Y01132414D01*
X01055182D01*
X01055702Y01132389D01*
D02*
G37*
G36*
X01060958Y01117118D02*
X01054116D01*
X01053744Y01117069D01*
X01053397Y01117044D01*
X01053075Y01116970D01*
X01052802Y01116895D01*
X01052554Y01116821D01*
X01052331Y01116747D01*
X01052133Y01116647D01*
X01051959Y01116573D01*
X01051810Y01116499D01*
X01051612Y01116350D01*
X01051488Y01116251D01*
X01051439Y01116201D01*
X01051166Y01115854D01*
X01050967Y01115458D01*
X01050819Y01115110D01*
X01050720Y01114763D01*
X01050670Y01114441D01*
X01050620Y01114218D01*
Y01114119D01*
Y01114044D01*
Y01114020D01*
Y01113995D01*
X01050645Y01113697D01*
X01050670Y01113449D01*
X01050744Y01113202D01*
X01050794Y01113003D01*
X01050868Y01112830D01*
X01050943Y01112706D01*
X01050967Y01112631D01*
X01050992Y01112607D01*
X01051141Y01112408D01*
X01051314Y01112235D01*
X01051463Y01112086D01*
X01051637Y01111962D01*
X01051761Y01111888D01*
X01051885Y01111838D01*
X01051959Y01111788D01*
X01051984D01*
X01052232Y01111714D01*
X01052505Y01111640D01*
X01052827Y01111590D01*
X01053099Y01111565D01*
X01053372Y01111541D01*
X01060958D01*
Y01109533D01*
X01053223D01*
X01052827Y01109557D01*
X01052480Y01109582D01*
X01052207D01*
X01052009Y01109607D01*
X01051860Y01109632D01*
X01051786Y01109657D01*
X01051761D01*
X01051463Y01109731D01*
X01051166Y01109830D01*
X01050918Y01109929D01*
X01050720Y01110028D01*
X01050546Y01110127D01*
X01050397Y01110202D01*
X01050323Y01110251D01*
X01050298Y01110276D01*
X01050075Y01110450D01*
X01049877Y01110673D01*
X01049703Y01110896D01*
X01049554Y01111119D01*
X01049430Y01111318D01*
X01049356Y01111466D01*
X01049306Y01111565D01*
X01049282Y01111615D01*
X01049158Y01111962D01*
X01049059Y01112284D01*
X01048984Y01112631D01*
X01048935Y01112929D01*
X01048910Y01113177D01*
X01048885Y01113400D01*
Y01113524D01*
Y01113549D01*
Y01113573D01*
X01048910Y01114020D01*
X01048959Y01114441D01*
X01049059Y01114838D01*
X01049183Y01115185D01*
X01049331Y01115532D01*
X01049505Y01115829D01*
X01049678Y01116102D01*
X01049852Y01116375D01*
X01050050Y01116598D01*
X01050224Y01116771D01*
X01050397Y01116945D01*
X01050546Y01117069D01*
X01050670Y01117193D01*
X01050769Y01117267D01*
X01050819Y01117292D01*
X01050844Y01117317D01*
X01049158D01*
Y01119126D01*
X01060958D01*
Y01117118D01*
D02*
G37*
G36*
X01057314Y01050903D02*
X01057636D01*
X01057909Y01050879D01*
X01058107Y01050854D01*
X01058231D01*
X01058330Y01050829D01*
X01058355D01*
X01058677Y01050754D01*
X01058950Y01050655D01*
X01059198Y01050556D01*
X01059421Y01050432D01*
X01059594Y01050358D01*
X01059743Y01050284D01*
X01059818Y01050234D01*
X01059842Y01050209D01*
X01060066Y01050011D01*
X01060239Y01049812D01*
X01060413Y01049589D01*
X01060561Y01049366D01*
X01060685Y01049168D01*
X01060760Y01049019D01*
X01060809Y01048920D01*
X01060834Y01048870D01*
X01060958Y01048523D01*
X01061057Y01048176D01*
X01061132Y01047854D01*
X01061181Y01047557D01*
X01061206Y01047284D01*
X01061231Y01047085D01*
Y01046962D01*
Y01046912D01*
X01061206Y01046491D01*
X01061156Y01046069D01*
X01061057Y01045697D01*
X01060908Y01045325D01*
X01060760Y01045003D01*
X01060611Y01044681D01*
X01060413Y01044408D01*
X01060239Y01044160D01*
X01060066Y01043937D01*
X01059867Y01043739D01*
X01059718Y01043565D01*
X01059545Y01043417D01*
X01059421Y01043317D01*
X01059322Y01043243D01*
X01059272Y01043193D01*
X01059248Y01043169D01*
X01060958D01*
Y01041384D01*
X01049158D01*
Y01043392D01*
X01055504D01*
X01056025Y01043417D01*
X01056496Y01043441D01*
X01056892Y01043491D01*
X01057215Y01043565D01*
X01057487Y01043640D01*
X01057661Y01043689D01*
X01057760Y01043714D01*
X01057810Y01043739D01*
X01058082Y01043888D01*
X01058330Y01044036D01*
X01058553Y01044235D01*
X01058727Y01044408D01*
X01058876Y01044582D01*
X01058975Y01044730D01*
X01059049Y01044830D01*
X01059074Y01044854D01*
X01059223Y01045152D01*
X01059322Y01045449D01*
X01059421Y01045722D01*
X01059471Y01045970D01*
X01059495Y01046193D01*
X01059520Y01046367D01*
Y01046466D01*
Y01046515D01*
X01059495Y01046838D01*
X01059446Y01047135D01*
X01059371Y01047383D01*
X01059297Y01047606D01*
X01059223Y01047780D01*
X01059148Y01047904D01*
X01059099Y01048003D01*
X01059074Y01048028D01*
X01058900Y01048226D01*
X01058702Y01048399D01*
X01058479Y01048548D01*
X01058281Y01048647D01*
X01058107Y01048722D01*
X01057958Y01048771D01*
X01057859Y01048821D01*
X01057834D01*
X01057587Y01048846D01*
X01057264Y01048870D01*
X01056917Y01048895D01*
X01056570D01*
X01056248Y01048920D01*
X01049158D01*
Y01050928D01*
X01056942D01*
X01057314Y01050903D01*
D02*
G37*
G36*
X01058107Y01038905D02*
X01058677Y01038682D01*
X01059173Y01038434D01*
X01059570Y01038186D01*
X01059892Y01037938D01*
X01060115Y01037740D01*
X01060239Y01037591D01*
X01060289Y01037566D01*
Y01037541D01*
X01060462Y01037293D01*
X01060611Y01037045D01*
X01060834Y01036475D01*
X01061008Y01035905D01*
X01061107Y01035335D01*
X01061181Y01034814D01*
X01061206Y01034591D01*
Y01034393D01*
X01061231Y01034244D01*
Y01034120D01*
Y01034046D01*
Y01034021D01*
X01061206Y01033525D01*
X01061156Y01033054D01*
X01061082Y01032633D01*
X01060983Y01032261D01*
X01060908Y01031963D01*
X01060834Y01031740D01*
X01060785Y01031591D01*
X01060760Y01031542D01*
X01060561Y01031145D01*
X01060338Y01030798D01*
X01060115Y01030501D01*
X01059892Y01030278D01*
X01059694Y01030079D01*
X01059545Y01029931D01*
X01059446Y01029856D01*
X01059396Y01029831D01*
X01059049Y01029633D01*
X01058727Y01029484D01*
X01058405Y01029385D01*
X01058107Y01029311D01*
X01057884Y01029261D01*
X01057686Y01029236D01*
X01057512D01*
X01057140Y01029261D01*
X01056818Y01029311D01*
X01056520Y01029385D01*
X01056273Y01029484D01*
X01056074Y01029584D01*
X01055926Y01029658D01*
X01055826Y01029707D01*
X01055802Y01029732D01*
X01055554Y01029931D01*
X01055355Y01030129D01*
X01055157Y01030352D01*
X01055008Y01030575D01*
X01054909Y01030749D01*
X01054835Y01030897D01*
X01054785Y01030997D01*
X01054760Y01031046D01*
X01054686Y01031220D01*
X01054612Y01031418D01*
X01054463Y01031864D01*
X01054289Y01032360D01*
X01054141Y01032856D01*
X01054017Y01033302D01*
X01053967Y01033500D01*
X01053917Y01033674D01*
X01053868Y01033823D01*
X01053843Y01033922D01*
X01053818Y01033996D01*
Y01034021D01*
X01053744Y01034294D01*
X01053670Y01034517D01*
X01053570Y01034913D01*
X01053471Y01035236D01*
X01053397Y01035459D01*
X01053347Y01035632D01*
X01053323Y01035732D01*
X01053298Y01035781D01*
Y01035806D01*
X01053223Y01035979D01*
X01053124Y01036153D01*
X01053050Y01036277D01*
X01052951Y01036376D01*
X01052827Y01036525D01*
X01052802Y01036550D01*
X01052777Y01036574D01*
X01052529Y01036698D01*
X01052306Y01036773D01*
X01052207D01*
X01052133Y01036797D01*
X01052058D01*
X01051835Y01036773D01*
X01051637Y01036698D01*
X01051439Y01036624D01*
X01051290Y01036500D01*
X01051166Y01036401D01*
X01051067Y01036327D01*
X01051017Y01036252D01*
X01050992Y01036227D01*
X01050844Y01035979D01*
X01050720Y01035657D01*
X01050645Y01035335D01*
X01050571Y01035013D01*
X01050546Y01034715D01*
X01050521Y01034467D01*
Y01034368D01*
Y01034294D01*
Y01034269D01*
Y01034244D01*
X01050546Y01033823D01*
X01050596Y01033476D01*
X01050695Y01033153D01*
X01050769Y01032905D01*
X01050868Y01032707D01*
X01050967Y01032558D01*
X01051017Y01032459D01*
X01051042Y01032434D01*
X01051240Y01032211D01*
X01051488Y01032038D01*
X01051711Y01031889D01*
X01051934Y01031790D01*
X01052133Y01031715D01*
X01052306Y01031666D01*
X01052405Y01031641D01*
X01052455D01*
X01052182Y01029683D01*
X01051786Y01029782D01*
X01051439Y01029881D01*
X01051116Y01030005D01*
X01050868Y01030104D01*
X01050670Y01030228D01*
X01050521Y01030327D01*
X01050422Y01030377D01*
X01050397Y01030402D01*
X01050149Y01030600D01*
X01049926Y01030848D01*
X01049753Y01031121D01*
X01049579Y01031368D01*
X01049480Y01031591D01*
X01049381Y01031790D01*
X01049331Y01031914D01*
X01049306Y01031939D01*
Y01031963D01*
X01049158Y01032360D01*
X01049059Y01032782D01*
X01048984Y01033178D01*
X01048935Y01033575D01*
X01048910Y01033897D01*
X01048885Y01034170D01*
Y01034269D01*
Y01034318D01*
Y01034368D01*
Y01034393D01*
Y01034740D01*
X01048935Y01035062D01*
X01048959Y01035335D01*
X01049009Y01035608D01*
X01049059Y01035831D01*
X01049083Y01035979D01*
X01049133Y01036079D01*
Y01036128D01*
X01049232Y01036401D01*
X01049331Y01036649D01*
X01049430Y01036872D01*
X01049530Y01037045D01*
X01049604Y01037194D01*
X01049678Y01037293D01*
X01049703Y01037368D01*
X01049728Y01037393D01*
X01049902Y01037616D01*
X01050100Y01037814D01*
X01050273Y01037988D01*
X01050447Y01038111D01*
X01050596Y01038235D01*
X01050720Y01038310D01*
X01050819Y01038359D01*
X01050844Y01038384D01*
X01051091Y01038508D01*
X01051364Y01038582D01*
X01051612Y01038657D01*
X01051835Y01038682D01*
X01052009Y01038706D01*
X01052182Y01038731D01*
X01052306D01*
X01052628Y01038706D01*
X01052926Y01038657D01*
X01053199Y01038607D01*
X01053422Y01038508D01*
X01053620Y01038434D01*
X01053769Y01038384D01*
X01053868Y01038335D01*
X01053893Y01038310D01*
X01054141Y01038136D01*
X01054364Y01037913D01*
X01054562Y01037715D01*
X01054711Y01037492D01*
X01054835Y01037318D01*
X01054934Y01037169D01*
X01054984Y01037045D01*
X01055008Y01037021D01*
X01055083Y01036847D01*
X01055157Y01036649D01*
X01055331Y01036178D01*
X01055479Y01035657D01*
X01055628Y01035161D01*
X01055777Y01034690D01*
X01055826Y01034492D01*
X01055876Y01034294D01*
X01055926Y01034145D01*
X01055950Y01034046D01*
X01055975Y01033971D01*
Y01033947D01*
X01056049Y01033649D01*
X01056124Y01033376D01*
X01056173Y01033153D01*
X01056248Y01032930D01*
X01056372Y01032583D01*
X01056446Y01032310D01*
X01056545Y01032112D01*
X01056595Y01031988D01*
X01056620Y01031914D01*
X01056645Y01031889D01*
X01056793Y01031691D01*
X01056967Y01031542D01*
X01057165Y01031443D01*
X01057314Y01031368D01*
X01057487Y01031319D01*
X01057587Y01031294D01*
X01057710D01*
X01057983Y01031319D01*
X01058231Y01031393D01*
X01058479Y01031517D01*
X01058677Y01031616D01*
X01058826Y01031740D01*
X01058950Y01031864D01*
X01059024Y01031939D01*
X01059049Y01031963D01*
X01059223Y01032236D01*
X01059371Y01032558D01*
X01059471Y01032905D01*
X01059520Y01033252D01*
X01059570Y01033550D01*
X01059594Y01033798D01*
Y01033897D01*
Y01033971D01*
Y01033996D01*
Y01034021D01*
X01059570Y01034492D01*
X01059495Y01034938D01*
X01059396Y01035285D01*
X01059272Y01035608D01*
X01059173Y01035831D01*
X01059074Y01036004D01*
X01059000Y01036128D01*
X01058975Y01036153D01*
X01058702Y01036401D01*
X01058405Y01036624D01*
X01058107Y01036773D01*
X01057810Y01036897D01*
X01057537Y01036971D01*
X01057314Y01037045D01*
X01057165Y01037070D01*
X01057115D01*
X01057438Y01039053D01*
X01058107Y01038905D01*
D02*
G37*
G36*
X01060958Y01077652D02*
X01048166D01*
X01060958Y01069099D01*
Y01066893D01*
X01044671D01*
Y01068951D01*
X01057463D01*
X01044671Y01077528D01*
Y01079710D01*
X01060958D01*
Y01077652D01*
D02*
G37*
G36*
X01055702Y01064166D02*
X01056198Y01064117D01*
X01056669Y01064042D01*
X01057091Y01063943D01*
X01057487Y01063844D01*
X01057859Y01063720D01*
X01058182Y01063571D01*
X01058479Y01063422D01*
X01058752Y01063298D01*
X01059000Y01063150D01*
X01059198Y01063026D01*
X01059347Y01062902D01*
X01059471Y01062827D01*
X01059570Y01062753D01*
X01059619Y01062703D01*
X01059644Y01062679D01*
X01059917Y01062381D01*
X01060165Y01062059D01*
X01060388Y01061737D01*
X01060561Y01061390D01*
X01060710Y01061067D01*
X01060834Y01060720D01*
X01061032Y01060076D01*
X01061107Y01059753D01*
X01061156Y01059481D01*
X01061181Y01059233D01*
X01061206Y01059010D01*
X01061231Y01058836D01*
Y01058712D01*
Y01058613D01*
Y01058588D01*
X01061181Y01057845D01*
X01061082Y01057200D01*
X01060908Y01056605D01*
X01060735Y01056134D01*
X01060636Y01055911D01*
X01060561Y01055737D01*
X01060462Y01055589D01*
X01060388Y01055465D01*
X01060338Y01055341D01*
X01060289Y01055266D01*
X01060239Y01055242D01*
Y01055217D01*
X01059842Y01054771D01*
X01059371Y01054374D01*
X01058900Y01054076D01*
X01058454Y01053829D01*
X01058033Y01053630D01*
X01057859Y01053556D01*
X01057710Y01053506D01*
X01057587Y01053457D01*
X01057487Y01053432D01*
X01057438Y01053407D01*
X01057413D01*
X01057140Y01055465D01*
X01057587Y01055663D01*
X01057983Y01055861D01*
X01058305Y01056060D01*
X01058553Y01056258D01*
X01058776Y01056432D01*
X01058900Y01056580D01*
X01059000Y01056679D01*
X01059024Y01056704D01*
X01059223Y01057002D01*
X01059347Y01057324D01*
X01059446Y01057646D01*
X01059520Y01057944D01*
X01059570Y01058192D01*
X01059594Y01058390D01*
Y01058539D01*
Y01058564D01*
Y01058588D01*
X01059545Y01059109D01*
X01059446Y01059580D01*
X01059272Y01060001D01*
X01059074Y01060373D01*
X01058900Y01060646D01*
X01058727Y01060869D01*
X01058628Y01060993D01*
X01058578Y01061042D01*
X01058157Y01061365D01*
X01057661Y01061637D01*
X01057165Y01061811D01*
X01056694Y01061960D01*
X01056248Y01062059D01*
X01056074Y01062084D01*
X01055901Y01062109D01*
X01055777D01*
X01055653Y01062133D01*
X01055579D01*
Y01053357D01*
X01055355Y01053333D01*
X01055058D01*
X01054512Y01053357D01*
X01054017Y01053407D01*
X01053546Y01053482D01*
X01053124Y01053556D01*
X01052703Y01053680D01*
X01052331Y01053804D01*
X01052009Y01053952D01*
X01051686Y01054076D01*
X01051414Y01054225D01*
X01051191Y01054374D01*
X01050992Y01054498D01*
X01050819Y01054597D01*
X01050695Y01054696D01*
X01050596Y01054771D01*
X01050546Y01054820D01*
X01050521Y01054845D01*
X01050224Y01055142D01*
X01049976Y01055440D01*
X01049753Y01055762D01*
X01049579Y01056085D01*
X01049406Y01056407D01*
X01049282Y01056729D01*
X01049083Y01057324D01*
X01049009Y01057622D01*
X01048959Y01057869D01*
X01048935Y01058117D01*
X01048910Y01058316D01*
X01048885Y01058489D01*
Y01058613D01*
Y01058687D01*
Y01058712D01*
X01048910Y01059158D01*
X01048959Y01059580D01*
X01049034Y01059977D01*
X01049133Y01060348D01*
X01049282Y01060720D01*
X01049406Y01061042D01*
X01049554Y01061340D01*
X01049703Y01061613D01*
X01049877Y01061861D01*
X01050025Y01062059D01*
X01050149Y01062257D01*
X01050273Y01062406D01*
X01050397Y01062530D01*
X01050472Y01062604D01*
X01050521Y01062654D01*
X01050546Y01062679D01*
X01050868Y01062951D01*
X01051215Y01063175D01*
X01051587Y01063373D01*
X01051959Y01063546D01*
X01052356Y01063695D01*
X01052728Y01063819D01*
X01053471Y01063993D01*
X01053818Y01064067D01*
X01054141Y01064117D01*
X01054438Y01064141D01*
X01054686Y01064166D01*
X01054884Y01064191D01*
X01055182D01*
X01055702Y01064166D01*
D02*
G37*
G36*
X01046951Y01134794D02*
X01044671D01*
Y01136802D01*
X01046951D01*
Y01134794D01*
D02*
G37*
G36*
X01035558Y01035260D02*
X01029112D01*
X01028617Y01035236D01*
X01028195Y01035211D01*
X01027823Y01035161D01*
X01027501Y01035087D01*
X01027253Y01035037D01*
X01027080Y01034988D01*
X01026956Y01034963D01*
X01026931Y01034938D01*
X01026658Y01034790D01*
X01026386Y01034641D01*
X01026187Y01034442D01*
X01025989Y01034269D01*
X01025865Y01034095D01*
X01025741Y01033971D01*
X01025691Y01033872D01*
X01025667Y01033848D01*
X01025518Y01033550D01*
X01025394Y01033252D01*
X01025320Y01032955D01*
X01025245Y01032707D01*
X01025220Y01032484D01*
X01025196Y01032310D01*
Y01032211D01*
Y01032162D01*
X01025220Y01031740D01*
X01025295Y01031393D01*
X01025419Y01031071D01*
X01025543Y01030823D01*
X01025667Y01030625D01*
X01025791Y01030476D01*
X01025865Y01030377D01*
X01025890Y01030352D01*
X01026187Y01030129D01*
X01026534Y01029955D01*
X01026881Y01029856D01*
X01027228Y01029757D01*
X01027576Y01029707D01*
X01027823Y01029683D01*
X01035558D01*
Y01027675D01*
X01028096D01*
X01027476Y01027699D01*
X01026956Y01027749D01*
X01026485Y01027799D01*
X01026113Y01027873D01*
X01025815Y01027972D01*
X01025617Y01028022D01*
X01025493Y01028071D01*
X01025443Y01028096D01*
X01025121Y01028270D01*
X01024824Y01028493D01*
X01024576Y01028716D01*
X01024378Y01028939D01*
X01024229Y01029162D01*
X01024105Y01029336D01*
X01024031Y01029435D01*
X01024006Y01029484D01*
X01023832Y01029856D01*
X01023708Y01030253D01*
X01023609Y01030625D01*
X01023559Y01030972D01*
X01023510Y01031269D01*
X01023485Y01031517D01*
Y01031616D01*
Y01031691D01*
Y01031715D01*
Y01031740D01*
X01023510Y01032137D01*
X01023559Y01032509D01*
X01023634Y01032856D01*
X01023733Y01033178D01*
X01024006Y01033798D01*
X01024130Y01034046D01*
X01024278Y01034294D01*
X01024452Y01034517D01*
X01024576Y01034715D01*
X01024725Y01034864D01*
X01024848Y01035013D01*
X01024948Y01035112D01*
X01025022Y01035186D01*
X01025072Y01035236D01*
X01025097Y01035260D01*
X01019271D01*
Y01037269D01*
X01035558D01*
Y01035260D01*
D02*
G37*
G36*
X01031914Y01024625D02*
X01032236D01*
X01032509Y01024601D01*
X01032707Y01024576D01*
X01032831D01*
X01032930Y01024551D01*
X01032955D01*
X01033277Y01024477D01*
X01033550Y01024378D01*
X01033798Y01024278D01*
X01034021Y01024154D01*
X01034194Y01024080D01*
X01034343Y01024006D01*
X01034418Y01023956D01*
X01034442Y01023931D01*
X01034666Y01023733D01*
X01034839Y01023535D01*
X01035013Y01023311D01*
X01035161Y01023088D01*
X01035285Y01022890D01*
X01035360Y01022741D01*
X01035409Y01022642D01*
X01035434Y01022593D01*
X01035558Y01022246D01*
X01035657Y01021898D01*
X01035732Y01021576D01*
X01035781Y01021279D01*
X01035806Y01021006D01*
X01035831Y01020808D01*
Y01020684D01*
Y01020634D01*
X01035806Y01020213D01*
X01035756Y01019791D01*
X01035657Y01019419D01*
X01035508Y01019048D01*
X01035360Y01018725D01*
X01035211Y01018403D01*
X01035013Y01018130D01*
X01034839Y01017882D01*
X01034666Y01017659D01*
X01034467Y01017461D01*
X01034318Y01017288D01*
X01034145Y01017139D01*
X01034021Y01017040D01*
X01033922Y01016965D01*
X01033872Y01016916D01*
X01033848Y01016891D01*
X01035558D01*
Y01015106D01*
X01023758D01*
Y01017114D01*
X01030104D01*
X01030625Y01017139D01*
X01031096Y01017163D01*
X01031492Y01017213D01*
X01031815Y01017288D01*
X01032087Y01017362D01*
X01032261Y01017411D01*
X01032360Y01017436D01*
X01032410Y01017461D01*
X01032682Y01017610D01*
X01032930Y01017758D01*
X01033153Y01017957D01*
X01033327Y01018130D01*
X01033476Y01018304D01*
X01033575Y01018453D01*
X01033649Y01018552D01*
X01033674Y01018577D01*
X01033823Y01018874D01*
X01033922Y01019172D01*
X01034021Y01019444D01*
X01034071Y01019692D01*
X01034095Y01019915D01*
X01034120Y01020089D01*
Y01020188D01*
Y01020238D01*
X01034095Y01020560D01*
X01034046Y01020857D01*
X01033971Y01021105D01*
X01033897Y01021328D01*
X01033823Y01021502D01*
X01033748Y01021626D01*
X01033699Y01021725D01*
X01033674Y01021750D01*
X01033500Y01021948D01*
X01033302Y01022122D01*
X01033079Y01022270D01*
X01032881Y01022370D01*
X01032707Y01022444D01*
X01032558Y01022494D01*
X01032459Y01022543D01*
X01032434D01*
X01032187Y01022568D01*
X01031864Y01022593D01*
X01031517Y01022617D01*
X01031170D01*
X01030848Y01022642D01*
X01023758D01*
Y01024650D01*
X01031542D01*
X01031914Y01024625D01*
D02*
G37*
G36*
X01032707Y01060671D02*
X01033277Y01060448D01*
X01033773Y01060200D01*
X01034170Y01059952D01*
X01034492Y01059704D01*
X01034715Y01059505D01*
X01034839Y01059357D01*
X01034889Y01059332D01*
Y01059307D01*
X01035062Y01059059D01*
X01035211Y01058811D01*
X01035434Y01058241D01*
X01035608Y01057671D01*
X01035707Y01057101D01*
X01035781Y01056580D01*
X01035806Y01056357D01*
Y01056159D01*
X01035831Y01056010D01*
Y01055886D01*
Y01055812D01*
Y01055787D01*
X01035806Y01055291D01*
X01035756Y01054820D01*
X01035682Y01054399D01*
X01035583Y01054027D01*
X01035508Y01053729D01*
X01035434Y01053506D01*
X01035385Y01053357D01*
X01035360Y01053308D01*
X01035161Y01052911D01*
X01034938Y01052564D01*
X01034715Y01052267D01*
X01034492Y01052044D01*
X01034294Y01051845D01*
X01034145Y01051697D01*
X01034046Y01051622D01*
X01033996Y01051597D01*
X01033649Y01051399D01*
X01033327Y01051250D01*
X01033005Y01051151D01*
X01032707Y01051077D01*
X01032484Y01051027D01*
X01032286Y01051002D01*
X01032112D01*
X01031740Y01051027D01*
X01031418Y01051077D01*
X01031121Y01051151D01*
X01030873Y01051250D01*
X01030674Y01051349D01*
X01030526Y01051424D01*
X01030426Y01051473D01*
X01030402Y01051498D01*
X01030154Y01051697D01*
X01029955Y01051895D01*
X01029757Y01052118D01*
X01029608Y01052341D01*
X01029509Y01052515D01*
X01029435Y01052663D01*
X01029385Y01052763D01*
X01029360Y01052812D01*
X01029286Y01052986D01*
X01029212Y01053184D01*
X01029063Y01053630D01*
X01028889Y01054126D01*
X01028741Y01054622D01*
X01028617Y01055068D01*
X01028567Y01055266D01*
X01028518Y01055440D01*
X01028468Y01055589D01*
X01028443Y01055688D01*
X01028418Y01055762D01*
Y01055787D01*
X01028344Y01056060D01*
X01028270Y01056283D01*
X01028170Y01056679D01*
X01028071Y01057002D01*
X01027997Y01057225D01*
X01027947Y01057398D01*
X01027923Y01057497D01*
X01027898Y01057547D01*
Y01057572D01*
X01027823Y01057745D01*
X01027724Y01057919D01*
X01027650Y01058043D01*
X01027551Y01058142D01*
X01027427Y01058291D01*
X01027402Y01058316D01*
X01027377Y01058340D01*
X01027129Y01058464D01*
X01026906Y01058539D01*
X01026807D01*
X01026733Y01058564D01*
X01026658D01*
X01026435Y01058539D01*
X01026237Y01058464D01*
X01026039Y01058390D01*
X01025890Y01058266D01*
X01025766Y01058167D01*
X01025667Y01058092D01*
X01025617Y01058018D01*
X01025592Y01057993D01*
X01025443Y01057745D01*
X01025320Y01057423D01*
X01025245Y01057101D01*
X01025171Y01056779D01*
X01025146Y01056481D01*
X01025121Y01056233D01*
Y01056134D01*
Y01056060D01*
Y01056035D01*
Y01056010D01*
X01025146Y01055589D01*
X01025196Y01055242D01*
X01025295Y01054919D01*
X01025369Y01054671D01*
X01025468Y01054473D01*
X01025567Y01054324D01*
X01025617Y01054225D01*
X01025642Y01054200D01*
X01025840Y01053977D01*
X01026088Y01053804D01*
X01026311Y01053655D01*
X01026534Y01053556D01*
X01026733Y01053482D01*
X01026906Y01053432D01*
X01027005Y01053407D01*
X01027055D01*
X01026782Y01051449D01*
X01026386Y01051548D01*
X01026039Y01051647D01*
X01025716Y01051771D01*
X01025468Y01051870D01*
X01025270Y01051994D01*
X01025121Y01052093D01*
X01025022Y01052143D01*
X01024997Y01052168D01*
X01024749Y01052366D01*
X01024526Y01052614D01*
X01024353Y01052887D01*
X01024179Y01053134D01*
X01024080Y01053357D01*
X01023981Y01053556D01*
X01023931Y01053680D01*
X01023906Y01053705D01*
Y01053729D01*
X01023758Y01054126D01*
X01023659Y01054547D01*
X01023584Y01054944D01*
X01023535Y01055341D01*
X01023510Y01055663D01*
X01023485Y01055936D01*
Y01056035D01*
Y01056085D01*
Y01056134D01*
Y01056159D01*
Y01056506D01*
X01023535Y01056828D01*
X01023559Y01057101D01*
X01023609Y01057374D01*
X01023659Y01057597D01*
X01023683Y01057745D01*
X01023733Y01057845D01*
Y01057894D01*
X01023832Y01058167D01*
X01023931Y01058415D01*
X01024031Y01058638D01*
X01024130Y01058811D01*
X01024204Y01058960D01*
X01024278Y01059059D01*
X01024303Y01059134D01*
X01024328Y01059158D01*
X01024501Y01059382D01*
X01024700Y01059580D01*
X01024873Y01059753D01*
X01025047Y01059877D01*
X01025196Y01060001D01*
X01025320Y01060076D01*
X01025419Y01060125D01*
X01025443Y01060150D01*
X01025691Y01060274D01*
X01025964Y01060348D01*
X01026212Y01060423D01*
X01026435Y01060448D01*
X01026609Y01060472D01*
X01026782Y01060497D01*
X01026906D01*
X01027228Y01060472D01*
X01027526Y01060423D01*
X01027799Y01060373D01*
X01028022Y01060274D01*
X01028220Y01060200D01*
X01028369Y01060150D01*
X01028468Y01060100D01*
X01028493Y01060076D01*
X01028741Y01059902D01*
X01028964Y01059679D01*
X01029162Y01059481D01*
X01029311Y01059258D01*
X01029435Y01059084D01*
X01029534Y01058935D01*
X01029584Y01058811D01*
X01029608Y01058787D01*
X01029683Y01058613D01*
X01029757Y01058415D01*
X01029931Y01057944D01*
X01030079Y01057423D01*
X01030228Y01056927D01*
X01030377Y01056456D01*
X01030426Y01056258D01*
X01030476Y01056060D01*
X01030526Y01055911D01*
X01030550Y01055812D01*
X01030575Y01055737D01*
Y01055713D01*
X01030649Y01055415D01*
X01030724Y01055142D01*
X01030773Y01054919D01*
X01030848Y01054696D01*
X01030972Y01054349D01*
X01031046Y01054076D01*
X01031145Y01053878D01*
X01031195Y01053754D01*
X01031220Y01053680D01*
X01031245Y01053655D01*
X01031393Y01053457D01*
X01031567Y01053308D01*
X01031765Y01053209D01*
X01031914Y01053134D01*
X01032087Y01053085D01*
X01032187Y01053060D01*
X01032310D01*
X01032583Y01053085D01*
X01032831Y01053159D01*
X01033079Y01053283D01*
X01033277Y01053382D01*
X01033426Y01053506D01*
X01033550Y01053630D01*
X01033624Y01053705D01*
X01033649Y01053729D01*
X01033823Y01054002D01*
X01033971Y01054324D01*
X01034071Y01054671D01*
X01034120Y01055018D01*
X01034170Y01055316D01*
X01034194Y01055564D01*
Y01055663D01*
Y01055737D01*
Y01055762D01*
Y01055787D01*
X01034170Y01056258D01*
X01034095Y01056704D01*
X01033996Y01057051D01*
X01033872Y01057374D01*
X01033773Y01057597D01*
X01033674Y01057770D01*
X01033600Y01057894D01*
X01033575Y01057919D01*
X01033302Y01058167D01*
X01033005Y01058390D01*
X01032707Y01058539D01*
X01032410Y01058663D01*
X01032137Y01058737D01*
X01031914Y01058811D01*
X01031765Y01058836D01*
X01031715D01*
X01032038Y01060819D01*
X01032707Y01060671D01*
D02*
G37*
G36*
X01030253Y01049193D02*
X01030749Y01049143D01*
X01031245Y01049094D01*
X01031666Y01048994D01*
X01032087Y01048870D01*
X01032459Y01048746D01*
X01032806Y01048623D01*
X01033104Y01048474D01*
X01033376Y01048350D01*
X01033600Y01048226D01*
X01033798Y01048102D01*
X01033971Y01047978D01*
X01034095Y01047879D01*
X01034194Y01047829D01*
X01034244Y01047780D01*
X01034269Y01047755D01*
X01034542Y01047457D01*
X01034790Y01047160D01*
X01034988Y01046862D01*
X01035161Y01046540D01*
X01035310Y01046218D01*
X01035459Y01045896D01*
X01035632Y01045276D01*
X01035707Y01044978D01*
X01035756Y01044730D01*
X01035781Y01044482D01*
X01035806Y01044284D01*
X01035831Y01044111D01*
Y01043987D01*
Y01043912D01*
Y01043888D01*
X01035806Y01043540D01*
X01035781Y01043193D01*
X01035657Y01042574D01*
X01035459Y01042003D01*
X01035260Y01041533D01*
X01035062Y01041161D01*
X01034963Y01041012D01*
X01034864Y01040863D01*
X01034790Y01040764D01*
X01034740Y01040690D01*
X01034690Y01040665D01*
Y01040640D01*
X01034219Y01040194D01*
X01033724Y01039822D01*
X01033178Y01039525D01*
X01032682Y01039301D01*
X01032211Y01039153D01*
X01032013Y01039103D01*
X01031839Y01039053D01*
X01031715Y01039029D01*
X01031616Y01039004D01*
X01031542Y01038979D01*
X01031517D01*
X01031245Y01040938D01*
X01031765Y01041037D01*
X01032236Y01041185D01*
X01032608Y01041359D01*
X01032930Y01041533D01*
X01033178Y01041681D01*
X01033327Y01041830D01*
X01033451Y01041929D01*
X01033476Y01041954D01*
X01033724Y01042251D01*
X01033897Y01042574D01*
X01034021Y01042921D01*
X01034095Y01043218D01*
X01034145Y01043491D01*
X01034194Y01043714D01*
Y01043863D01*
Y01043888D01*
Y01043912D01*
X01034170Y01044185D01*
X01034145Y01044433D01*
X01034021Y01044879D01*
X01033848Y01045301D01*
X01033649Y01045623D01*
X01033476Y01045896D01*
X01033302Y01046094D01*
X01033178Y01046218D01*
X01033129Y01046267D01*
X01032905Y01046416D01*
X01032657Y01046565D01*
X01032137Y01046788D01*
X01031542Y01046937D01*
X01030972Y01047036D01*
X01030476Y01047110D01*
X01030253Y01047135D01*
X01030054D01*
X01029881Y01047160D01*
X01029236D01*
X01028840Y01047110D01*
X01028468Y01047085D01*
X01028121Y01047011D01*
X01027823Y01046937D01*
X01027526Y01046862D01*
X01027278Y01046788D01*
X01027055Y01046689D01*
X01026857Y01046615D01*
X01026683Y01046540D01*
X01026534Y01046466D01*
X01026410Y01046391D01*
X01026336Y01046317D01*
X01026262Y01046292D01*
X01026212Y01046243D01*
X01026014Y01046069D01*
X01025840Y01045871D01*
X01025592Y01045449D01*
X01025394Y01045053D01*
X01025245Y01044656D01*
X01025171Y01044309D01*
X01025146Y01044036D01*
X01025121Y01043937D01*
Y01043863D01*
Y01043813D01*
Y01043788D01*
X01025146Y01043441D01*
X01025220Y01043094D01*
X01025320Y01042822D01*
X01025419Y01042574D01*
X01025543Y01042375D01*
X01025642Y01042227D01*
X01025716Y01042128D01*
X01025741Y01042103D01*
X01025989Y01041855D01*
X01026262Y01041656D01*
X01026559Y01041483D01*
X01026857Y01041334D01*
X01027129Y01041235D01*
X01027328Y01041161D01*
X01027476Y01041136D01*
X01027501Y01041111D01*
X01027526D01*
X01027228Y01039177D01*
X01026609Y01039351D01*
X01026039Y01039574D01*
X01025567Y01039822D01*
X01025171Y01040095D01*
X01024873Y01040342D01*
X01024650Y01040541D01*
X01024526Y01040690D01*
X01024477Y01040714D01*
Y01040739D01*
X01024154Y01041210D01*
X01023906Y01041731D01*
X01023733Y01042276D01*
X01023609Y01042772D01*
X01023535Y01043218D01*
X01023510Y01043392D01*
Y01043565D01*
X01023485Y01043689D01*
Y01043813D01*
Y01043863D01*
Y01043888D01*
X01023510Y01044433D01*
X01023584Y01044954D01*
X01023708Y01045449D01*
X01023832Y01045846D01*
X01023981Y01046193D01*
X01024080Y01046466D01*
X01024130Y01046565D01*
X01024179Y01046639D01*
X01024204Y01046664D01*
Y01046689D01*
X01024501Y01047135D01*
X01024848Y01047532D01*
X01025196Y01047854D01*
X01025543Y01048127D01*
X01025865Y01048325D01*
X01026113Y01048474D01*
X01026212Y01048523D01*
X01026286Y01048573D01*
X01026336Y01048598D01*
X01026361D01*
X01026906Y01048796D01*
X01027501Y01048945D01*
X01028046Y01049069D01*
X01028567Y01049143D01*
X01029038Y01049193D01*
X01029212D01*
X01029385Y01049218D01*
X01029707D01*
X01030253Y01049193D01*
D02*
G37*
G36*
X01060958Y01155246D02*
Y01152990D01*
X01048563Y01149569D01*
X01048241Y01149495D01*
X01047918Y01149396D01*
X01047621Y01149321D01*
X01047299Y01149247D01*
X01047051Y01149172D01*
X01046827Y01149123D01*
X01046703Y01149073D01*
X01046654D01*
X01046728Y01149048D01*
X01046827Y01149024D01*
X01047100Y01148949D01*
X01047398Y01148875D01*
X01047745Y01148776D01*
X01048042Y01148701D01*
X01048315Y01148627D01*
X01048414Y01148602D01*
X01048488Y01148577D01*
X01048538Y01148553D01*
X01048563D01*
X01060958Y01145132D01*
Y01143024D01*
X01044671Y01138587D01*
Y01140769D01*
X01055157Y01143297D01*
X01055876Y01143471D01*
X01056545Y01143644D01*
X01057165Y01143768D01*
X01057686Y01143892D01*
X01057909Y01143942D01*
X01058107Y01143991D01*
X01058281Y01144016D01*
X01058429Y01144066D01*
X01058553Y01144090D01*
X01058628D01*
X01058677Y01144115D01*
X01058702D01*
X01057686Y01144289D01*
X01056669Y01144487D01*
X01055678Y01144710D01*
X01055231Y01144809D01*
X01054810Y01144909D01*
X01054413Y01145008D01*
X01054042Y01145082D01*
X01053719Y01145181D01*
X01053447Y01145231D01*
X01053223Y01145305D01*
X01053075Y01145330D01*
X01052951Y01145379D01*
X01052926D01*
X01044671Y01147710D01*
Y01150313D01*
X01055678Y01153412D01*
X01055777Y01153436D01*
X01055926Y01153461D01*
X01056124Y01153511D01*
X01056322Y01153560D01*
X01056818Y01153684D01*
X01057339Y01153808D01*
X01057859Y01153957D01*
X01058082Y01154007D01*
X01058281Y01154056D01*
X01058454Y01154106D01*
X01058578Y01154130D01*
X01058677Y01154155D01*
X01058702D01*
X01058082Y01154279D01*
X01057487Y01154378D01*
X01056917Y01154502D01*
X01056421Y01154602D01*
X01056000Y01154701D01*
X01055826Y01154750D01*
X01055653Y01154775D01*
X01055554Y01154800D01*
X01055454Y01154825D01*
X01055405Y01154849D01*
X01055380D01*
X01044671Y01157304D01*
Y01159510D01*
X01060958Y01155246D01*
D02*
G37*
G36*
Y01134794D02*
X01049158D01*
Y01136802D01*
X01060958D01*
Y01134794D01*
D02*
G37*
G36*
X01035558Y01009999D02*
X01019271D01*
Y01012007D01*
X01035558D01*
Y01009999D01*
D02*
G37*
G36*
X01030302Y01007545D02*
X01030798Y01007495D01*
X01031269Y01007421D01*
X01031691Y01007322D01*
X01032087Y01007223D01*
X01032459Y01007099D01*
X01032782Y01006950D01*
X01033079Y01006801D01*
X01033352Y01006677D01*
X01033600Y01006528D01*
X01033798Y01006404D01*
X01033947Y01006281D01*
X01034071Y01006206D01*
X01034170Y01006132D01*
X01034219Y01006082D01*
X01034244Y01006057D01*
X01034517Y01005760D01*
X01034765Y01005438D01*
X01034988Y01005115D01*
X01035161Y01004768D01*
X01035310Y01004446D01*
X01035434Y01004099D01*
X01035632Y01003454D01*
X01035707Y01003132D01*
X01035756Y01002859D01*
X01035781Y01002612D01*
X01035806Y01002388D01*
X01035831Y01002215D01*
Y01002091D01*
Y01001992D01*
Y01001967D01*
X01035781Y01001223D01*
X01035682Y01000579D01*
X01035508Y00999984D01*
X01035335Y00999513D01*
X01035236Y00999290D01*
X01035161Y00999116D01*
X01035062Y00998967D01*
X01034988Y00998843D01*
X01034938Y00998719D01*
X01034889Y00998645D01*
X01034839Y00998620D01*
Y00998596D01*
X01034442Y00998149D01*
X01033971Y00997753D01*
X01033500Y00997455D01*
X01033054Y00997207D01*
X01032633Y00997009D01*
X01032459Y00996935D01*
X01032310Y00996885D01*
X01032187Y00996835D01*
X01032087Y00996811D01*
X01032038Y00996786D01*
X01032013D01*
X01031740Y00998843D01*
X01032187Y00999042D01*
X01032583Y00999240D01*
X01032905Y00999438D01*
X01033153Y00999637D01*
X01033376Y00999810D01*
X01033500Y00999959D01*
X01033600Y01000058D01*
X01033624Y01000083D01*
X01033823Y01000380D01*
X01033947Y01000703D01*
X01034046Y01001025D01*
X01034120Y01001322D01*
X01034170Y01001570D01*
X01034194Y01001769D01*
Y01001917D01*
Y01001942D01*
Y01001967D01*
X01034145Y01002488D01*
X01034046Y01002959D01*
X01033872Y01003380D01*
X01033674Y01003752D01*
X01033500Y01004025D01*
X01033327Y01004248D01*
X01033228Y01004372D01*
X01033178Y01004421D01*
X01032757Y01004743D01*
X01032261Y01005016D01*
X01031765Y01005190D01*
X01031294Y01005339D01*
X01030848Y01005438D01*
X01030674Y01005462D01*
X01030501Y01005487D01*
X01030377D01*
X01030253Y01005512D01*
X01030179D01*
Y00996736D01*
X01029955Y00996711D01*
X01029658D01*
X01029112Y00996736D01*
X01028617Y00996786D01*
X01028146Y00996860D01*
X01027724Y00996935D01*
X01027303Y00997058D01*
X01026931Y00997182D01*
X01026609Y00997331D01*
X01026286Y00997455D01*
X01026014Y00997604D01*
X01025791Y00997753D01*
X01025592Y00997877D01*
X01025419Y00997976D01*
X01025295Y00998075D01*
X01025196Y00998149D01*
X01025146Y00998199D01*
X01025121Y00998224D01*
X01024824Y00998521D01*
X01024576Y00998819D01*
X01024353Y00999141D01*
X01024179Y00999463D01*
X01024006Y00999786D01*
X01023882Y01000108D01*
X01023683Y01000703D01*
X01023609Y01001000D01*
X01023559Y01001248D01*
X01023535Y01001496D01*
X01023510Y01001694D01*
X01023485Y01001868D01*
Y01001992D01*
Y01002066D01*
Y01002091D01*
X01023510Y01002537D01*
X01023559Y01002959D01*
X01023634Y01003355D01*
X01023733Y01003727D01*
X01023882Y01004099D01*
X01024006Y01004421D01*
X01024154Y01004719D01*
X01024303Y01004991D01*
X01024477Y01005239D01*
X01024625Y01005438D01*
X01024749Y01005636D01*
X01024873Y01005785D01*
X01024997Y01005909D01*
X01025072Y01005983D01*
X01025121Y01006033D01*
X01025146Y01006057D01*
X01025468Y01006330D01*
X01025815Y01006553D01*
X01026187Y01006752D01*
X01026559Y01006925D01*
X01026956Y01007074D01*
X01027328Y01007198D01*
X01028071Y01007371D01*
X01028418Y01007446D01*
X01028741Y01007495D01*
X01029038Y01007520D01*
X01029286Y01007545D01*
X01029484Y01007570D01*
X01029782D01*
X01030302Y01007545D01*
D02*
G37*
G36*
X01050720Y01026534D02*
X01058132D01*
X01058405Y01026509D01*
X01058652D01*
X01058876Y01026485D01*
X01059049Y01026460D01*
X01059371Y01026410D01*
X01059619Y01026386D01*
X01059768Y01026336D01*
X01059867Y01026311D01*
X01059892D01*
X01060090Y01026212D01*
X01060264Y01026063D01*
X01060413Y01025939D01*
X01060537Y01025791D01*
X01060636Y01025667D01*
X01060710Y01025567D01*
X01060760Y01025493D01*
X01060785Y01025468D01*
X01060884Y01025220D01*
X01060958Y01024948D01*
X01061032Y01024650D01*
X01061057Y01024378D01*
X01061082Y01024130D01*
X01061107Y01023931D01*
Y01023807D01*
Y01023758D01*
X01061082Y01023237D01*
X01061057Y01022989D01*
X01061008Y01022766D01*
X01060983Y01022543D01*
X01060958Y01022394D01*
X01060933Y01022295D01*
Y01022246D01*
X01059173Y01022518D01*
X01059223Y01022890D01*
Y01023039D01*
X01059248Y01023163D01*
Y01023262D01*
Y01023336D01*
Y01023386D01*
Y01023411D01*
X01059223Y01023708D01*
X01059173Y01023931D01*
X01059148Y01024055D01*
X01059124Y01024105D01*
X01059000Y01024254D01*
X01058876Y01024353D01*
X01058776Y01024402D01*
X01058727Y01024427D01*
X01058603Y01024452D01*
X01058454Y01024477D01*
X01058082Y01024501D01*
X01057909Y01024526D01*
X01050720D01*
Y01022518D01*
X01049158D01*
Y01024526D01*
X01045043D01*
X01046257Y01026534D01*
X01049158D01*
Y01028022D01*
X01050720D01*
Y01026534D01*
D02*
G37*
G36*
X01177798Y01051647D02*
X01175517D01*
Y01053928D01*
X01177798D01*
Y01051647D01*
D02*
G37*
G36*
X01175220Y01048796D02*
X01175716Y01048672D01*
X01176112Y01048523D01*
X01176459Y01048325D01*
X01176757Y01048127D01*
X01176955Y01047978D01*
X01177079Y01047854D01*
X01177129Y01047804D01*
X01177451Y01047383D01*
X01177674Y01046887D01*
X01177848Y01046416D01*
X01177947Y01045920D01*
X01178021Y01045499D01*
X01178046Y01045301D01*
Y01045152D01*
X01178071Y01045003D01*
Y01044904D01*
Y01044854D01*
Y01044830D01*
X01178046Y01044383D01*
X01177996Y01043987D01*
X01177947Y01043615D01*
X01177872Y01043268D01*
X01177798Y01042995D01*
X01177724Y01042797D01*
X01177699Y01042673D01*
X01177674Y01042623D01*
X01177501Y01042227D01*
X01177302Y01041855D01*
X01177079Y01041483D01*
X01176831Y01041161D01*
X01176633Y01040863D01*
X01176459Y01040665D01*
X01176360Y01040516D01*
X01176311Y01040467D01*
X01176633Y01040417D01*
X01176906Y01040367D01*
X01177153Y01040318D01*
X01177377Y01040243D01*
X01177550Y01040169D01*
X01177699Y01040119D01*
X01177773Y01040095D01*
X01177798Y01040070D01*
Y01037988D01*
X01177302Y01038211D01*
X01177054Y01038310D01*
X01176856Y01038384D01*
X01176682Y01038434D01*
X01176534Y01038458D01*
X01176434Y01038483D01*
X01176410D01*
X01176236Y01038508D01*
X01176038Y01038533D01*
X01175815D01*
X01175542Y01038558D01*
X01174972Y01038582D01*
X01174352D01*
X01173782Y01038607D01*
X01169716D01*
X01169344Y01038632D01*
X01169022Y01038657D01*
X01168774D01*
X01168576Y01038682D01*
X01168452Y01038706D01*
X01168378Y01038731D01*
X01168353D01*
X01168055Y01038805D01*
X01167783Y01038905D01*
X01167560Y01039004D01*
X01167361Y01039103D01*
X01167188Y01039202D01*
X01167088Y01039277D01*
X01167014Y01039326D01*
X01166989Y01039351D01*
X01166791Y01039549D01*
X01166618Y01039748D01*
X01166469Y01039995D01*
X01166345Y01040219D01*
X01166246Y01040417D01*
X01166146Y01040591D01*
X01166122Y01040690D01*
X01166097Y01040739D01*
X01165973Y01041111D01*
X01165874Y01041508D01*
X01165824Y01041929D01*
X01165775Y01042326D01*
X01165750Y01042673D01*
X01165725Y01042945D01*
Y01043045D01*
Y01043119D01*
Y01043169D01*
Y01043193D01*
X01165750Y01043739D01*
X01165799Y01044259D01*
X01165849Y01044706D01*
X01165923Y01045102D01*
X01166023Y01045425D01*
X01166072Y01045673D01*
X01166097Y01045747D01*
X01166122Y01045821D01*
X01166146Y01045846D01*
Y01045871D01*
X01166320Y01046267D01*
X01166518Y01046615D01*
X01166717Y01046937D01*
X01166890Y01047185D01*
X01167064Y01047383D01*
X01167213Y01047507D01*
X01167312Y01047606D01*
X01167337Y01047631D01*
X01167634Y01047854D01*
X01167981Y01048028D01*
X01168303Y01048176D01*
X01168626Y01048300D01*
X01168923Y01048375D01*
X01169146Y01048449D01*
X01169295Y01048474D01*
X01169320Y01048499D01*
X01169344D01*
X01169617Y01046540D01*
X01169196Y01046416D01*
X01168824Y01046243D01*
X01168526Y01046094D01*
X01168279Y01045920D01*
X01168105Y01045772D01*
X01167981Y01045648D01*
X01167907Y01045573D01*
X01167882Y01045548D01*
X01167708Y01045276D01*
X01167584Y01044929D01*
X01167510Y01044606D01*
X01167436Y01044259D01*
X01167411Y01043937D01*
X01167386Y01043689D01*
Y01043590D01*
Y01043516D01*
Y01043491D01*
Y01043466D01*
X01167411Y01042945D01*
X01167485Y01042475D01*
X01167609Y01042078D01*
X01167733Y01041756D01*
X01167857Y01041508D01*
X01167981Y01041334D01*
X01168055Y01041210D01*
X01168080Y01041185D01*
X01168303Y01040987D01*
X01168551Y01040863D01*
X01168849Y01040764D01*
X01169121Y01040690D01*
X01169369Y01040640D01*
X01169592Y01040615D01*
X01170088D01*
X01170237Y01040640D01*
X01170311D01*
X01170386Y01040863D01*
X01170460Y01041111D01*
X01170609Y01041681D01*
X01170708Y01042276D01*
X01170807Y01042846D01*
X01170906Y01043392D01*
X01170931Y01043615D01*
X01170956Y01043813D01*
X01170981Y01043987D01*
Y01044111D01*
X01171005Y01044185D01*
Y01044210D01*
X01171055Y01044631D01*
X01171105Y01044978D01*
X01171154Y01045301D01*
X01171204Y01045548D01*
X01171253Y01045747D01*
X01171278Y01045871D01*
X01171303Y01045970D01*
Y01045995D01*
X01171402Y01046292D01*
X01171501Y01046565D01*
X01171600Y01046788D01*
X01171724Y01047011D01*
X01171824Y01047185D01*
X01171898Y01047309D01*
X01171947Y01047408D01*
X01171972Y01047433D01*
X01172146Y01047656D01*
X01172319Y01047854D01*
X01172518Y01048052D01*
X01172691Y01048201D01*
X01172865Y01048325D01*
X01172989Y01048399D01*
X01173088Y01048449D01*
X01173113Y01048474D01*
X01173385Y01048598D01*
X01173658Y01048697D01*
X01173931Y01048746D01*
X01174179Y01048796D01*
X01174377Y01048821D01*
X01174550Y01048846D01*
X01174699D01*
X01175220Y01048796D01*
D02*
G37*
G36*
X01177798Y01081445D02*
Y01079313D01*
X01168725Y01076908D01*
X01170758Y01076437D01*
X01177798Y01074578D01*
Y01072521D01*
X01165998Y01068802D01*
Y01070736D01*
X01172840Y01072793D01*
X01175121Y01073463D01*
X01172865Y01074033D01*
X01165998Y01075818D01*
Y01077850D01*
X01172914Y01079734D01*
X01173311Y01079834D01*
X01173658Y01079933D01*
X01173980Y01080007D01*
X01174253Y01080082D01*
X01174476Y01080131D01*
X01174674Y01080181D01*
X01174848Y01080230D01*
X01174972Y01080255D01*
X01175096Y01080280D01*
X01175170Y01080305D01*
X01175269Y01080330D01*
X01175319Y01080354D01*
X01175344D01*
X01172815Y01081024D01*
X01165998Y01082883D01*
Y01084990D01*
X01177798Y01081445D01*
D02*
G37*
G36*
Y01065133D02*
X01170956D01*
X01170584Y01065083D01*
X01170237Y01065059D01*
X01169915Y01064984D01*
X01169642Y01064910D01*
X01169394Y01064836D01*
X01169171Y01064761D01*
X01168973Y01064662D01*
X01168799Y01064588D01*
X01168650Y01064513D01*
X01168452Y01064364D01*
X01168328Y01064265D01*
X01168279Y01064216D01*
X01168006Y01063869D01*
X01167807Y01063472D01*
X01167659Y01063125D01*
X01167560Y01062778D01*
X01167510Y01062456D01*
X01167460Y01062233D01*
Y01062133D01*
Y01062059D01*
Y01062034D01*
Y01062009D01*
X01167485Y01061712D01*
X01167510Y01061464D01*
X01167584Y01061216D01*
X01167634Y01061018D01*
X01167708Y01060844D01*
X01167783Y01060720D01*
X01167807Y01060646D01*
X01167832Y01060621D01*
X01167981Y01060423D01*
X01168155Y01060249D01*
X01168303Y01060100D01*
X01168477Y01059977D01*
X01168601Y01059902D01*
X01168725Y01059853D01*
X01168799Y01059803D01*
X01168824D01*
X01169072Y01059729D01*
X01169344Y01059654D01*
X01169667Y01059605D01*
X01169939Y01059580D01*
X01170212Y01059555D01*
X01177798D01*
Y01057547D01*
X01170063D01*
X01169667Y01057572D01*
X01169320Y01057597D01*
X01169047D01*
X01168849Y01057622D01*
X01168700Y01057646D01*
X01168626Y01057671D01*
X01168601D01*
X01168303Y01057745D01*
X01168006Y01057845D01*
X01167758Y01057944D01*
X01167560Y01058043D01*
X01167386Y01058142D01*
X01167237Y01058216D01*
X01167163Y01058266D01*
X01167138Y01058291D01*
X01166915Y01058464D01*
X01166717Y01058687D01*
X01166543Y01058911D01*
X01166394Y01059134D01*
X01166271Y01059332D01*
X01166196Y01059481D01*
X01166146Y01059580D01*
X01166122Y01059630D01*
X01165998Y01059977D01*
X01165899Y01060299D01*
X01165824Y01060646D01*
X01165775Y01060943D01*
X01165750Y01061191D01*
X01165725Y01061414D01*
Y01061538D01*
Y01061563D01*
Y01061588D01*
X01165750Y01062034D01*
X01165799Y01062456D01*
X01165899Y01062852D01*
X01166023Y01063199D01*
X01166171Y01063546D01*
X01166345Y01063844D01*
X01166518Y01064117D01*
X01166692Y01064389D01*
X01166890Y01064612D01*
X01167064Y01064786D01*
X01167237Y01064959D01*
X01167386Y01065083D01*
X01167510Y01065207D01*
X01167609Y01065282D01*
X01167659Y01065306D01*
X01167683Y01065331D01*
X01165998D01*
Y01067141D01*
X01177798D01*
Y01065133D01*
D02*
G37*
G36*
X01175220Y01018453D02*
X01175716Y01018329D01*
X01176112Y01018180D01*
X01176459Y01017982D01*
X01176757Y01017783D01*
X01176955Y01017635D01*
X01177079Y01017511D01*
X01177129Y01017461D01*
X01177451Y01017040D01*
X01177674Y01016544D01*
X01177848Y01016073D01*
X01177947Y01015577D01*
X01178021Y01015155D01*
X01178046Y01014957D01*
Y01014808D01*
X01178071Y01014660D01*
Y01014560D01*
Y01014511D01*
Y01014486D01*
X01178046Y01014040D01*
X01177996Y01013643D01*
X01177947Y01013271D01*
X01177872Y01012924D01*
X01177798Y01012652D01*
X01177724Y01012453D01*
X01177699Y01012329D01*
X01177674Y01012280D01*
X01177501Y01011883D01*
X01177302Y01011511D01*
X01177079Y01011140D01*
X01176831Y01010817D01*
X01176633Y01010520D01*
X01176459Y01010321D01*
X01176360Y01010173D01*
X01176311Y01010123D01*
X01176633Y01010073D01*
X01176906Y01010024D01*
X01177153Y01009974D01*
X01177377Y01009900D01*
X01177550Y01009826D01*
X01177699Y01009776D01*
X01177773Y01009751D01*
X01177798Y01009726D01*
Y01007644D01*
X01177302Y01007867D01*
X01177054Y01007966D01*
X01176856Y01008041D01*
X01176682Y01008090D01*
X01176534Y01008115D01*
X01176434Y01008140D01*
X01176410D01*
X01176236Y01008165D01*
X01176038Y01008189D01*
X01175815D01*
X01175542Y01008214D01*
X01174972Y01008239D01*
X01174352D01*
X01173782Y01008264D01*
X01169716D01*
X01169344Y01008289D01*
X01169022Y01008313D01*
X01168774D01*
X01168576Y01008338D01*
X01168452Y01008363D01*
X01168378Y01008388D01*
X01168353D01*
X01168055Y01008462D01*
X01167783Y01008561D01*
X01167560Y01008660D01*
X01167361Y01008760D01*
X01167188Y01008859D01*
X01167088Y01008933D01*
X01167014Y01008983D01*
X01166989Y01009007D01*
X01166791Y01009206D01*
X01166618Y01009404D01*
X01166469Y01009652D01*
X01166345Y01009875D01*
X01166246Y01010073D01*
X01166146Y01010247D01*
X01166122Y01010346D01*
X01166097Y01010396D01*
X01165973Y01010768D01*
X01165874Y01011164D01*
X01165824Y01011586D01*
X01165775Y01011982D01*
X01165750Y01012329D01*
X01165725Y01012602D01*
Y01012701D01*
Y01012776D01*
Y01012825D01*
Y01012850D01*
X01165750Y01013395D01*
X01165799Y01013916D01*
X01165849Y01014362D01*
X01165923Y01014759D01*
X01166023Y01015081D01*
X01166072Y01015329D01*
X01166097Y01015403D01*
X01166122Y01015478D01*
X01166146Y01015503D01*
Y01015527D01*
X01166320Y01015924D01*
X01166518Y01016271D01*
X01166717Y01016593D01*
X01166890Y01016841D01*
X01167064Y01017040D01*
X01167213Y01017163D01*
X01167312Y01017263D01*
X01167337Y01017288D01*
X01167634Y01017511D01*
X01167981Y01017684D01*
X01168303Y01017833D01*
X01168626Y01017957D01*
X01168923Y01018031D01*
X01169146Y01018106D01*
X01169295Y01018130D01*
X01169320Y01018155D01*
X01169344D01*
X01169617Y01016197D01*
X01169196Y01016073D01*
X01168824Y01015899D01*
X01168526Y01015751D01*
X01168279Y01015577D01*
X01168105Y01015428D01*
X01167981Y01015304D01*
X01167907Y01015230D01*
X01167882Y01015205D01*
X01167708Y01014932D01*
X01167584Y01014585D01*
X01167510Y01014263D01*
X01167436Y01013916D01*
X01167411Y01013594D01*
X01167386Y01013346D01*
Y01013247D01*
Y01013172D01*
Y01013148D01*
Y01013123D01*
X01167411Y01012602D01*
X01167485Y01012131D01*
X01167609Y01011734D01*
X01167733Y01011412D01*
X01167857Y01011164D01*
X01167981Y01010991D01*
X01168055Y01010867D01*
X01168080Y01010842D01*
X01168303Y01010644D01*
X01168551Y01010520D01*
X01168849Y01010421D01*
X01169121Y01010346D01*
X01169369Y01010297D01*
X01169592Y01010272D01*
X01170088D01*
X01170237Y01010297D01*
X01170311D01*
X01170386Y01010520D01*
X01170460Y01010768D01*
X01170609Y01011338D01*
X01170708Y01011933D01*
X01170807Y01012503D01*
X01170906Y01013048D01*
X01170931Y01013271D01*
X01170956Y01013470D01*
X01170981Y01013643D01*
Y01013767D01*
X01171005Y01013842D01*
Y01013866D01*
X01171055Y01014288D01*
X01171105Y01014635D01*
X01171154Y01014957D01*
X01171204Y01015205D01*
X01171253Y01015403D01*
X01171278Y01015527D01*
X01171303Y01015627D01*
Y01015651D01*
X01171402Y01015949D01*
X01171501Y01016221D01*
X01171600Y01016445D01*
X01171724Y01016668D01*
X01171824Y01016841D01*
X01171898Y01016965D01*
X01171947Y01017064D01*
X01171972Y01017089D01*
X01172146Y01017312D01*
X01172319Y01017511D01*
X01172518Y01017709D01*
X01172691Y01017858D01*
X01172865Y01017982D01*
X01172989Y01018056D01*
X01173088Y01018106D01*
X01173113Y01018130D01*
X01173385Y01018254D01*
X01173658Y01018354D01*
X01173931Y01018403D01*
X01174179Y01018453D01*
X01174377Y01018477D01*
X01174550Y01018502D01*
X01174699D01*
X01175220Y01018453D01*
D02*
G37*
G36*
X01167560Y01004843D02*
X01174972D01*
X01175245Y01004818D01*
X01175492D01*
X01175716Y01004793D01*
X01175889Y01004768D01*
X01176211Y01004719D01*
X01176459Y01004694D01*
X01176608Y01004644D01*
X01176707Y01004620D01*
X01176732D01*
X01176930Y01004520D01*
X01177104Y01004372D01*
X01177253Y01004248D01*
X01177377Y01004099D01*
X01177476Y01003975D01*
X01177550Y01003876D01*
X01177600Y01003801D01*
X01177625Y01003777D01*
X01177724Y01003529D01*
X01177798Y01003256D01*
X01177872Y01002959D01*
X01177897Y01002686D01*
X01177922Y01002438D01*
X01177947Y01002240D01*
Y01002116D01*
Y01002066D01*
X01177922Y01001546D01*
X01177897Y01001298D01*
X01177848Y01001075D01*
X01177823Y01000851D01*
X01177798Y01000703D01*
X01177773Y01000603D01*
Y01000554D01*
X01176013Y01000827D01*
X01176063Y01001199D01*
Y01001347D01*
X01176087Y01001471D01*
Y01001570D01*
Y01001645D01*
Y01001694D01*
Y01001719D01*
X01176063Y01002017D01*
X01176013Y01002240D01*
X01175988Y01002364D01*
X01175964Y01002413D01*
X01175840Y01002562D01*
X01175716Y01002661D01*
X01175616Y01002711D01*
X01175567Y01002736D01*
X01175443Y01002760D01*
X01175294Y01002785D01*
X01174922Y01002810D01*
X01174749Y01002835D01*
X01167560D01*
Y01000827D01*
X01165998D01*
Y01002835D01*
X01161883D01*
X01163097Y01004843D01*
X01165998D01*
Y01006330D01*
X01167560D01*
Y01004843D01*
D02*
G37*
G36*
X01172493Y01036079D02*
X01172989Y01036029D01*
X01173484Y01035979D01*
X01173906Y01035880D01*
X01174327Y01035756D01*
X01174699Y01035632D01*
X01175046Y01035508D01*
X01175344Y01035360D01*
X01175616Y01035236D01*
X01175840Y01035112D01*
X01176038Y01034988D01*
X01176211Y01034864D01*
X01176335Y01034765D01*
X01176434Y01034715D01*
X01176484Y01034666D01*
X01176509Y01034641D01*
X01176782Y01034343D01*
X01177029Y01034046D01*
X01177228Y01033748D01*
X01177401Y01033426D01*
X01177550Y01033104D01*
X01177699Y01032782D01*
X01177872Y01032162D01*
X01177947Y01031864D01*
X01177996Y01031616D01*
X01178021Y01031368D01*
X01178046Y01031170D01*
X01178071Y01030997D01*
Y01030873D01*
Y01030798D01*
Y01030773D01*
X01178046Y01030426D01*
X01178021Y01030079D01*
X01177897Y01029460D01*
X01177699Y01028889D01*
X01177501Y01028418D01*
X01177302Y01028046D01*
X01177203Y01027898D01*
X01177104Y01027749D01*
X01177029Y01027650D01*
X01176980Y01027576D01*
X01176930Y01027551D01*
Y01027526D01*
X01176459Y01027080D01*
X01175964Y01026708D01*
X01175418Y01026410D01*
X01174922Y01026187D01*
X01174451Y01026039D01*
X01174253Y01025989D01*
X01174079Y01025939D01*
X01173956Y01025915D01*
X01173856Y01025890D01*
X01173782Y01025865D01*
X01173757D01*
X01173484Y01027823D01*
X01174005Y01027923D01*
X01174476Y01028071D01*
X01174848Y01028245D01*
X01175170Y01028418D01*
X01175418Y01028567D01*
X01175567Y01028716D01*
X01175691Y01028815D01*
X01175716Y01028840D01*
X01175964Y01029137D01*
X01176137Y01029460D01*
X01176261Y01029807D01*
X01176335Y01030104D01*
X01176385Y01030377D01*
X01176434Y01030600D01*
Y01030749D01*
Y01030773D01*
Y01030798D01*
X01176410Y01031071D01*
X01176385Y01031319D01*
X01176261Y01031765D01*
X01176087Y01032187D01*
X01175889Y01032509D01*
X01175716Y01032782D01*
X01175542Y01032980D01*
X01175418Y01033104D01*
X01175368Y01033153D01*
X01175145Y01033302D01*
X01174898Y01033451D01*
X01174377Y01033674D01*
X01173782Y01033823D01*
X01173212Y01033922D01*
X01172716Y01033996D01*
X01172493Y01034021D01*
X01172294D01*
X01172121Y01034046D01*
X01171476D01*
X01171080Y01033996D01*
X01170708Y01033971D01*
X01170361Y01033897D01*
X01170063Y01033823D01*
X01169766Y01033748D01*
X01169518Y01033674D01*
X01169295Y01033575D01*
X01169097Y01033500D01*
X01168923Y01033426D01*
X01168774Y01033352D01*
X01168650Y01033277D01*
X01168576Y01033203D01*
X01168502Y01033178D01*
X01168452Y01033129D01*
X01168254Y01032955D01*
X01168080Y01032757D01*
X01167832Y01032335D01*
X01167634Y01031939D01*
X01167485Y01031542D01*
X01167411Y01031195D01*
X01167386Y01030922D01*
X01167361Y01030823D01*
Y01030749D01*
Y01030699D01*
Y01030674D01*
X01167386Y01030327D01*
X01167460Y01029980D01*
X01167560Y01029707D01*
X01167659Y01029460D01*
X01167783Y01029261D01*
X01167882Y01029112D01*
X01167956Y01029013D01*
X01167981Y01028988D01*
X01168229Y01028741D01*
X01168502Y01028542D01*
X01168799Y01028369D01*
X01169097Y01028220D01*
X01169369Y01028121D01*
X01169568Y01028046D01*
X01169716Y01028022D01*
X01169741Y01027997D01*
X01169766D01*
X01169468Y01026063D01*
X01168849Y01026237D01*
X01168279Y01026460D01*
X01167807Y01026708D01*
X01167411Y01026981D01*
X01167113Y01027228D01*
X01166890Y01027427D01*
X01166766Y01027576D01*
X01166717Y01027600D01*
Y01027625D01*
X01166394Y01028096D01*
X01166146Y01028617D01*
X01165973Y01029162D01*
X01165849Y01029658D01*
X01165775Y01030104D01*
X01165750Y01030278D01*
Y01030451D01*
X01165725Y01030575D01*
Y01030699D01*
Y01030749D01*
Y01030773D01*
X01165750Y01031319D01*
X01165824Y01031839D01*
X01165948Y01032335D01*
X01166072Y01032732D01*
X01166221Y01033079D01*
X01166320Y01033352D01*
X01166370Y01033451D01*
X01166419Y01033525D01*
X01166444Y01033550D01*
Y01033575D01*
X01166741Y01034021D01*
X01167088Y01034418D01*
X01167436Y01034740D01*
X01167783Y01035013D01*
X01168105Y01035211D01*
X01168353Y01035360D01*
X01168452Y01035409D01*
X01168526Y01035459D01*
X01168576Y01035484D01*
X01168601D01*
X01169146Y01035682D01*
X01169741Y01035831D01*
X01170286Y01035955D01*
X01170807Y01036029D01*
X01171278Y01036079D01*
X01171452D01*
X01171625Y01036103D01*
X01171947D01*
X01172493Y01036079D01*
D02*
G37*
G36*
X01177798Y01021303D02*
X01175517D01*
Y01023584D01*
X01177798D01*
Y01021303D01*
D02*
G37*
G36*
Y01094187D02*
X01171352D01*
X01170857Y01094163D01*
X01170435Y01094138D01*
X01170063Y01094088D01*
X01169741Y01094014D01*
X01169493Y01093964D01*
X01169320Y01093915D01*
X01169196Y01093890D01*
X01169171Y01093865D01*
X01168898Y01093716D01*
X01168626Y01093568D01*
X01168427Y01093369D01*
X01168229Y01093196D01*
X01168105Y01093022D01*
X01167981Y01092898D01*
X01167931Y01092799D01*
X01167907Y01092774D01*
X01167758Y01092477D01*
X01167634Y01092179D01*
X01167560Y01091882D01*
X01167485Y01091634D01*
X01167460Y01091411D01*
X01167436Y01091237D01*
Y01091138D01*
Y01091088D01*
X01167460Y01090667D01*
X01167535Y01090320D01*
X01167659Y01089998D01*
X01167783Y01089750D01*
X01167907Y01089551D01*
X01168031Y01089403D01*
X01168105Y01089304D01*
X01168130Y01089279D01*
X01168427Y01089056D01*
X01168774Y01088882D01*
X01169121Y01088783D01*
X01169468Y01088684D01*
X01169816Y01088634D01*
X01170063Y01088609D01*
X01177798D01*
Y01086601D01*
X01170336D01*
X01169716Y01086626D01*
X01169196Y01086676D01*
X01168725Y01086725D01*
X01168353Y01086800D01*
X01168055Y01086899D01*
X01167857Y01086948D01*
X01167733Y01086998D01*
X01167683Y01087023D01*
X01167361Y01087196D01*
X01167064Y01087420D01*
X01166816Y01087643D01*
X01166618Y01087866D01*
X01166469Y01088089D01*
X01166345Y01088262D01*
X01166271Y01088362D01*
X01166246Y01088411D01*
X01166072Y01088783D01*
X01165948Y01089180D01*
X01165849Y01089551D01*
X01165799Y01089899D01*
X01165750Y01090196D01*
X01165725Y01090444D01*
Y01090543D01*
Y01090618D01*
Y01090642D01*
Y01090667D01*
X01165750Y01091064D01*
X01165799Y01091436D01*
X01165874Y01091783D01*
X01165973Y01092105D01*
X01166246Y01092725D01*
X01166370Y01092973D01*
X01166518Y01093221D01*
X01166692Y01093444D01*
X01166816Y01093642D01*
X01166965Y01093791D01*
X01167088Y01093939D01*
X01167188Y01094039D01*
X01167262Y01094113D01*
X01167312Y01094163D01*
X01167337Y01094187D01*
X01161511D01*
Y01096195D01*
X01177798D01*
Y01094187D01*
D02*
G37*
G36*
X01050720Y00994927D02*
X01058132D01*
X01058405Y00994902D01*
X01058652D01*
X01058876Y00994877D01*
X01059049Y00994852D01*
X01059371Y00994803D01*
X01059619Y00994778D01*
X01059768Y00994728D01*
X01059867Y00994703D01*
X01059892D01*
X01060090Y00994604D01*
X01060264Y00994455D01*
X01060413Y00994332D01*
X01060537Y00994183D01*
X01060636Y00994059D01*
X01060710Y00993960D01*
X01060760Y00993885D01*
X01060785Y00993860D01*
X01060884Y00993613D01*
X01060958Y00993340D01*
X01061032Y00993043D01*
X01061057Y00992770D01*
X01061082Y00992522D01*
X01061107Y00992324D01*
Y00992200D01*
Y00992150D01*
X01061082Y00991629D01*
X01061057Y00991382D01*
X01061008Y00991158D01*
X01060983Y00990935D01*
X01060958Y00990787D01*
X01060933Y00990687D01*
Y00990638D01*
X01059173Y00990910D01*
X01059223Y00991282D01*
Y00991431D01*
X01059248Y00991555D01*
Y00991654D01*
Y00991729D01*
Y00991778D01*
Y00991803D01*
X01059223Y00992100D01*
X01059173Y00992324D01*
X01059148Y00992448D01*
X01059124Y00992497D01*
X01059000Y00992646D01*
X01058876Y00992745D01*
X01058776Y00992795D01*
X01058727Y00992819D01*
X01058603Y00992844D01*
X01058454Y00992869D01*
X01058082Y00992894D01*
X01057909Y00992918D01*
X01050720D01*
Y00990910D01*
X01049158D01*
Y00992918D01*
X01045043D01*
X01046257Y00994927D01*
X01049158D01*
Y00996414D01*
X01050720D01*
Y00994927D01*
D02*
G37*
G36*
X01177798Y01155965D02*
Y01153833D01*
X01168725Y01151428D01*
X01170758Y01150957D01*
X01177798Y01149098D01*
Y01147040D01*
X01165998Y01143322D01*
Y01145256D01*
X01172840Y01147313D01*
X01175121Y01147982D01*
X01172865Y01148553D01*
X01165998Y01150338D01*
Y01152370D01*
X01172914Y01154254D01*
X01173311Y01154354D01*
X01173658Y01154453D01*
X01173980Y01154527D01*
X01174253Y01154602D01*
X01174476Y01154651D01*
X01174674Y01154701D01*
X01174848Y01154750D01*
X01174972Y01154775D01*
X01175096Y01154800D01*
X01175170Y01154825D01*
X01175269Y01154849D01*
X01175319Y01154874D01*
X01175344D01*
X01172815Y01155544D01*
X01165998Y01157403D01*
Y01159510D01*
X01177798Y01155965D01*
D02*
G37*
G36*
X01058380Y01021180D02*
X01058876Y01021056D01*
X01059272Y01020907D01*
X01059619Y01020709D01*
X01059917Y01020510D01*
X01060115Y01020361D01*
X01060239Y01020238D01*
X01060289Y01020188D01*
X01060611Y01019766D01*
X01060834Y01019271D01*
X01061008Y01018800D01*
X01061107Y01018304D01*
X01061181Y01017882D01*
X01061206Y01017684D01*
Y01017535D01*
X01061231Y01017387D01*
Y01017288D01*
Y01017238D01*
Y01017213D01*
X01061206Y01016767D01*
X01061156Y01016370D01*
X01061107Y01015998D01*
X01061032Y01015651D01*
X01060958Y01015379D01*
X01060884Y01015180D01*
X01060859Y01015056D01*
X01060834Y01015007D01*
X01060660Y01014610D01*
X01060462Y01014238D01*
X01060239Y01013866D01*
X01059991Y01013544D01*
X01059793Y01013247D01*
X01059619Y01013048D01*
X01059520Y01012900D01*
X01059471Y01012850D01*
X01059793Y01012800D01*
X01060066Y01012751D01*
X01060313Y01012701D01*
X01060537Y01012627D01*
X01060710Y01012552D01*
X01060859Y01012503D01*
X01060933Y01012478D01*
X01060958Y01012453D01*
Y01010371D01*
X01060462Y01010594D01*
X01060214Y01010693D01*
X01060016Y01010768D01*
X01059842Y01010817D01*
X01059694Y01010842D01*
X01059594Y01010867D01*
X01059570D01*
X01059396Y01010892D01*
X01059198Y01010916D01*
X01058975D01*
X01058702Y01010941D01*
X01058132Y01010966D01*
X01057512D01*
X01056942Y01010991D01*
X01052876D01*
X01052505Y01011015D01*
X01052182Y01011040D01*
X01051934D01*
X01051736Y01011065D01*
X01051612Y01011090D01*
X01051538Y01011115D01*
X01051513D01*
X01051215Y01011189D01*
X01050943Y01011288D01*
X01050720Y01011387D01*
X01050521Y01011487D01*
X01050348Y01011586D01*
X01050248Y01011660D01*
X01050174Y01011710D01*
X01050149Y01011734D01*
X01049951Y01011933D01*
X01049778Y01012131D01*
X01049629Y01012379D01*
X01049505Y01012602D01*
X01049406Y01012800D01*
X01049306Y01012974D01*
X01049282Y01013073D01*
X01049257Y01013123D01*
X01049133Y01013494D01*
X01049034Y01013891D01*
X01048984Y01014313D01*
X01048935Y01014709D01*
X01048910Y01015056D01*
X01048885Y01015329D01*
Y01015428D01*
Y01015503D01*
Y01015552D01*
Y01015577D01*
X01048910Y01016122D01*
X01048959Y01016643D01*
X01049009Y01017089D01*
X01049083Y01017486D01*
X01049183Y01017808D01*
X01049232Y01018056D01*
X01049257Y01018130D01*
X01049282Y01018205D01*
X01049306Y01018230D01*
Y01018254D01*
X01049480Y01018651D01*
X01049678Y01018998D01*
X01049877Y01019320D01*
X01050050Y01019568D01*
X01050224Y01019766D01*
X01050372Y01019891D01*
X01050472Y01019990D01*
X01050497Y01020014D01*
X01050794Y01020238D01*
X01051141Y01020411D01*
X01051463Y01020560D01*
X01051786Y01020684D01*
X01052083Y01020758D01*
X01052306Y01020833D01*
X01052455Y01020857D01*
X01052480Y01020882D01*
X01052505D01*
X01052777Y01018924D01*
X01052356Y01018800D01*
X01051984Y01018626D01*
X01051686Y01018477D01*
X01051439Y01018304D01*
X01051265Y01018155D01*
X01051141Y01018031D01*
X01051067Y01017957D01*
X01051042Y01017932D01*
X01050868Y01017659D01*
X01050744Y01017312D01*
X01050670Y01016990D01*
X01050596Y01016643D01*
X01050571Y01016321D01*
X01050546Y01016073D01*
Y01015974D01*
Y01015899D01*
Y01015874D01*
Y01015850D01*
X01050571Y01015329D01*
X01050645Y01014858D01*
X01050769Y01014461D01*
X01050893Y01014139D01*
X01051017Y01013891D01*
X01051141Y01013718D01*
X01051215Y01013594D01*
X01051240Y01013569D01*
X01051463Y01013371D01*
X01051711Y01013247D01*
X01052009Y01013148D01*
X01052281Y01013073D01*
X01052529Y01013024D01*
X01052752Y01012999D01*
X01053248D01*
X01053397Y01013024D01*
X01053471D01*
X01053546Y01013247D01*
X01053620Y01013494D01*
X01053769Y01014065D01*
X01053868Y01014660D01*
X01053967Y01015230D01*
X01054066Y01015775D01*
X01054091Y01015998D01*
X01054116Y01016197D01*
X01054141Y01016370D01*
Y01016494D01*
X01054165Y01016569D01*
Y01016593D01*
X01054215Y01017015D01*
X01054265Y01017362D01*
X01054314Y01017684D01*
X01054364Y01017932D01*
X01054413Y01018130D01*
X01054438Y01018254D01*
X01054463Y01018354D01*
Y01018378D01*
X01054562Y01018676D01*
X01054661Y01018948D01*
X01054760Y01019172D01*
X01054884Y01019395D01*
X01054984Y01019568D01*
X01055058Y01019692D01*
X01055107Y01019791D01*
X01055132Y01019816D01*
X01055306Y01020039D01*
X01055479Y01020238D01*
X01055678Y01020436D01*
X01055851Y01020585D01*
X01056025Y01020709D01*
X01056149Y01020783D01*
X01056248Y01020833D01*
X01056273Y01020857D01*
X01056545Y01020981D01*
X01056818Y01021080D01*
X01057091Y01021130D01*
X01057339Y01021180D01*
X01057537Y01021204D01*
X01057710Y01021229D01*
X01057859D01*
X01058380Y01021180D01*
D02*
G37*
G36*
X01055752Y01008611D02*
X01056347Y01008537D01*
X01056892Y01008437D01*
X01057363Y01008313D01*
X01057760Y01008189D01*
X01057934Y01008140D01*
X01058057Y01008090D01*
X01058157Y01008041D01*
X01058231Y01008016D01*
X01058281Y01007991D01*
X01058305D01*
X01058801Y01007718D01*
X01059223Y01007446D01*
X01059594Y01007123D01*
X01059892Y01006851D01*
X01060140Y01006578D01*
X01060313Y01006380D01*
X01060437Y01006231D01*
X01060462Y01006206D01*
Y01006181D01*
X01060710Y01005735D01*
X01060908Y01005264D01*
X01061032Y01004843D01*
X01061132Y01004421D01*
X01061181Y01004099D01*
X01061206Y01003826D01*
X01061231Y01003727D01*
Y01003653D01*
Y01003603D01*
Y01003578D01*
X01061206Y01003182D01*
X01061156Y01002810D01*
X01061082Y01002463D01*
X01060958Y01002141D01*
X01060834Y01001868D01*
X01060685Y01001595D01*
X01060512Y01001347D01*
X01060363Y01001124D01*
X01060190Y01000926D01*
X01060041Y01000752D01*
X01059892Y01000603D01*
X01059768Y01000504D01*
X01059644Y01000405D01*
X01059570Y01000331D01*
X01059520Y01000306D01*
X01059495Y01000281D01*
X01060958D01*
Y00998422D01*
X01044671D01*
Y01000430D01*
X01050521D01*
X01050273Y01000628D01*
X01050025Y01000851D01*
X01049827Y01001099D01*
X01049678Y01001298D01*
X01049530Y01001496D01*
X01049430Y01001645D01*
X01049381Y01001744D01*
X01049356Y01001794D01*
X01049207Y01002116D01*
X01049083Y01002438D01*
X01049009Y01002760D01*
X01048935Y01003033D01*
X01048910Y01003306D01*
X01048885Y01003504D01*
Y01003628D01*
Y01003653D01*
Y01003678D01*
X01048910Y01004198D01*
X01049009Y01004694D01*
X01049133Y01005140D01*
X01049257Y01005537D01*
X01049406Y01005859D01*
X01049530Y01006107D01*
X01049629Y01006256D01*
X01049654Y01006281D01*
Y01006305D01*
X01049976Y01006727D01*
X01050323Y01007074D01*
X01050695Y01007371D01*
X01051067Y01007619D01*
X01051389Y01007818D01*
X01051637Y01007942D01*
X01051736Y01007991D01*
X01051810Y01008041D01*
X01051860Y01008065D01*
X01051885D01*
X01052430Y01008264D01*
X01053000Y01008388D01*
X01053521Y01008487D01*
X01054017Y01008561D01*
X01054438Y01008611D01*
X01054636D01*
X01054785Y01008636D01*
X01055083D01*
X01055752Y01008611D01*
D02*
G37*
G36*
X01177798Y01105987D02*
X01175517D01*
Y01108268D01*
X01177798D01*
Y01105987D01*
D02*
G37*
G36*
X01167560Y01102046D02*
X01177798D01*
Y01100038D01*
X01167560D01*
Y01097757D01*
X01165998D01*
Y01100063D01*
X01164932D01*
X01164560Y01100038D01*
X01164262Y01100013D01*
X01163990Y01099939D01*
X01163791Y01099864D01*
X01163643Y01099815D01*
X01163543Y01099740D01*
X01163494Y01099716D01*
X01163469Y01099691D01*
X01163345Y01099517D01*
X01163246Y01099319D01*
X01163172Y01099096D01*
X01163122Y01098897D01*
X01163097Y01098699D01*
X01163073Y01098550D01*
Y01098451D01*
Y01098402D01*
X01163097Y01097980D01*
X01163122Y01097782D01*
Y01097584D01*
X01163147Y01097435D01*
X01163172Y01097311D01*
X01163196Y01097236D01*
Y01097212D01*
X01161461Y01096914D01*
X01161387Y01097286D01*
X01161337Y01097633D01*
X01161288Y01097955D01*
X01161263Y01098228D01*
X01161238Y01098451D01*
Y01098625D01*
Y01098724D01*
Y01098773D01*
X01161263Y01099245D01*
X01161312Y01099641D01*
X01161387Y01100013D01*
X01161486Y01100286D01*
X01161585Y01100534D01*
X01161659Y01100682D01*
X01161709Y01100806D01*
X01161734Y01100831D01*
X01161932Y01101079D01*
X01162131Y01101277D01*
X01162329Y01101451D01*
X01162552Y01101600D01*
X01162725Y01101699D01*
X01162874Y01101773D01*
X01162973Y01101798D01*
X01162998Y01101823D01*
X01163246Y01101897D01*
X01163519Y01101947D01*
X01163816Y01101996D01*
X01164089Y01102021D01*
X01164362D01*
X01164560Y01102046D01*
X01165998D01*
Y01103806D01*
X01167560D01*
Y01102046D01*
D02*
G37*
G36*
X01177798Y01139554D02*
Y01137422D01*
X01168725Y01135017D01*
X01170758Y01134546D01*
X01177798Y01132687D01*
Y01130629D01*
X01165998Y01126911D01*
Y01128844D01*
X01172840Y01130902D01*
X01175121Y01131571D01*
X01172865Y01132141D01*
X01165998Y01133926D01*
Y01135959D01*
X01172914Y01137843D01*
X01173311Y01137942D01*
X01173658Y01138042D01*
X01173980Y01138116D01*
X01174253Y01138190D01*
X01174476Y01138240D01*
X01174674Y01138289D01*
X01174848Y01138339D01*
X01174972Y01138364D01*
X01175096Y01138389D01*
X01175170Y01138413D01*
X01175269Y01138438D01*
X01175319Y01138463D01*
X01175344D01*
X01172815Y01139132D01*
X01165998Y01140992D01*
Y01143099D01*
X01177798Y01139554D01*
D02*
G37*
G36*
Y01123142D02*
Y01121011D01*
X01168725Y01118606D01*
X01170758Y01118135D01*
X01177798Y01116275D01*
Y01114218D01*
X01165998Y01110499D01*
Y01112433D01*
X01172840Y01114491D01*
X01175121Y01115160D01*
X01172865Y01115730D01*
X01165998Y01117515D01*
Y01119548D01*
X01172914Y01121432D01*
X01173311Y01121531D01*
X01173658Y01121630D01*
X01173980Y01121705D01*
X01174253Y01121779D01*
X01174476Y01121829D01*
X01174674Y01121878D01*
X01174848Y01121928D01*
X01174972Y01121953D01*
X01175096Y01121977D01*
X01175170Y01122002D01*
X01175269Y01122027D01*
X01175319Y01122052D01*
X01175344D01*
X01172815Y01122721D01*
X01165998Y01124580D01*
Y01126687D01*
X01177798Y01123142D01*
D02*
G37*
G36*
X00865378Y01004570D02*
X00837438Y01032510D01*
X00893318D01*
X00865378Y01004570D01*
D02*
G37*
G36*
X01032980Y01146619D02*
X01033476Y01146495D01*
X01033872Y01146346D01*
X01034219Y01146148D01*
X01034517Y01145950D01*
X01034715Y01145801D01*
X01034839Y01145677D01*
X01034889Y01145627D01*
X01035211Y01145206D01*
X01035434Y01144710D01*
X01035608Y01144239D01*
X01035707Y01143743D01*
X01035781Y01143322D01*
X01035806Y01143123D01*
Y01142975D01*
X01035831Y01142826D01*
Y01142727D01*
Y01142677D01*
Y01142653D01*
X01035806Y01142206D01*
X01035756Y01141810D01*
X01035707Y01141438D01*
X01035632Y01141091D01*
X01035558Y01140818D01*
X01035484Y01140620D01*
X01035459Y01140496D01*
X01035434Y01140446D01*
X01035260Y01140050D01*
X01035062Y01139678D01*
X01034839Y01139306D01*
X01034591Y01138984D01*
X01034393Y01138686D01*
X01034219Y01138488D01*
X01034120Y01138339D01*
X01034071Y01138289D01*
X01034393Y01138240D01*
X01034666Y01138190D01*
X01034913Y01138141D01*
X01035137Y01138066D01*
X01035310Y01137992D01*
X01035459Y01137942D01*
X01035533Y01137918D01*
X01035558Y01137893D01*
Y01135810D01*
X01035062Y01136033D01*
X01034814Y01136133D01*
X01034616Y01136207D01*
X01034442Y01136257D01*
X01034294Y01136281D01*
X01034194Y01136306D01*
X01034170D01*
X01033996Y01136331D01*
X01033798Y01136356D01*
X01033575D01*
X01033302Y01136381D01*
X01032732Y01136405D01*
X01032112D01*
X01031542Y01136430D01*
X01027476D01*
X01027104Y01136455D01*
X01026782Y01136480D01*
X01026534D01*
X01026336Y01136505D01*
X01026212Y01136529D01*
X01026138Y01136554D01*
X01026113D01*
X01025815Y01136628D01*
X01025543Y01136728D01*
X01025320Y01136827D01*
X01025121Y01136926D01*
X01024948Y01137025D01*
X01024848Y01137100D01*
X01024774Y01137149D01*
X01024749Y01137174D01*
X01024551Y01137372D01*
X01024378Y01137570D01*
X01024229Y01137818D01*
X01024105Y01138042D01*
X01024006Y01138240D01*
X01023906Y01138413D01*
X01023882Y01138512D01*
X01023857Y01138562D01*
X01023733Y01138934D01*
X01023634Y01139331D01*
X01023584Y01139752D01*
X01023535Y01140149D01*
X01023510Y01140496D01*
X01023485Y01140769D01*
Y01140868D01*
Y01140942D01*
Y01140992D01*
Y01141016D01*
X01023510Y01141562D01*
X01023559Y01142082D01*
X01023609Y01142529D01*
X01023683Y01142925D01*
X01023783Y01143248D01*
X01023832Y01143495D01*
X01023857Y01143570D01*
X01023882Y01143644D01*
X01023906Y01143669D01*
Y01143694D01*
X01024080Y01144090D01*
X01024278Y01144437D01*
X01024477Y01144760D01*
X01024650Y01145008D01*
X01024824Y01145206D01*
X01024973Y01145330D01*
X01025072Y01145429D01*
X01025097Y01145454D01*
X01025394Y01145677D01*
X01025741Y01145851D01*
X01026063Y01145999D01*
X01026386Y01146123D01*
X01026683Y01146198D01*
X01026906Y01146272D01*
X01027055Y01146297D01*
X01027080Y01146321D01*
X01027104D01*
X01027377Y01144363D01*
X01026956Y01144239D01*
X01026584Y01144066D01*
X01026286Y01143917D01*
X01026039Y01143743D01*
X01025865Y01143595D01*
X01025741Y01143471D01*
X01025667Y01143396D01*
X01025642Y01143371D01*
X01025468Y01143099D01*
X01025344Y01142752D01*
X01025270Y01142429D01*
X01025196Y01142082D01*
X01025171Y01141760D01*
X01025146Y01141512D01*
Y01141413D01*
Y01141339D01*
Y01141314D01*
Y01141289D01*
X01025171Y01140769D01*
X01025245Y01140297D01*
X01025369Y01139901D01*
X01025493Y01139578D01*
X01025617Y01139331D01*
X01025741Y01139157D01*
X01025815Y01139033D01*
X01025840Y01139008D01*
X01026063Y01138810D01*
X01026311Y01138686D01*
X01026609Y01138587D01*
X01026881Y01138512D01*
X01027129Y01138463D01*
X01027352Y01138438D01*
X01027848D01*
X01027997Y01138463D01*
X01028071D01*
X01028146Y01138686D01*
X01028220Y01138934D01*
X01028369Y01139504D01*
X01028468Y01140099D01*
X01028567Y01140669D01*
X01028666Y01141215D01*
X01028691Y01141438D01*
X01028716Y01141636D01*
X01028741Y01141810D01*
Y01141934D01*
X01028765Y01142008D01*
Y01142033D01*
X01028815Y01142454D01*
X01028865Y01142801D01*
X01028914Y01143123D01*
X01028964Y01143371D01*
X01029013Y01143570D01*
X01029038Y01143694D01*
X01029063Y01143793D01*
Y01143818D01*
X01029162Y01144115D01*
X01029261Y01144388D01*
X01029360Y01144611D01*
X01029484Y01144834D01*
X01029584Y01145008D01*
X01029658Y01145132D01*
X01029707Y01145231D01*
X01029732Y01145256D01*
X01029906Y01145479D01*
X01030079Y01145677D01*
X01030278Y01145875D01*
X01030451Y01146024D01*
X01030625Y01146148D01*
X01030749Y01146222D01*
X01030848Y01146272D01*
X01030873Y01146297D01*
X01031145Y01146421D01*
X01031418Y01146520D01*
X01031691Y01146569D01*
X01031939Y01146619D01*
X01032137Y01146644D01*
X01032310Y01146669D01*
X01032459D01*
X01032980Y01146619D01*
D02*
G37*
G36*
X01030253Y01133902D02*
X01030749Y01133852D01*
X01031245Y01133802D01*
X01031666Y01133703D01*
X01032087Y01133579D01*
X01032459Y01133455D01*
X01032806Y01133331D01*
X01033104Y01133183D01*
X01033376Y01133059D01*
X01033600Y01132935D01*
X01033798Y01132811D01*
X01033971Y01132687D01*
X01034095Y01132588D01*
X01034194Y01132538D01*
X01034244Y01132488D01*
X01034269Y01132464D01*
X01034542Y01132166D01*
X01034790Y01131869D01*
X01034988Y01131571D01*
X01035161Y01131249D01*
X01035310Y01130927D01*
X01035459Y01130604D01*
X01035632Y01129985D01*
X01035707Y01129687D01*
X01035756Y01129439D01*
X01035781Y01129191D01*
X01035806Y01128993D01*
X01035831Y01128820D01*
Y01128696D01*
Y01128621D01*
Y01128596D01*
X01035806Y01128249D01*
X01035781Y01127902D01*
X01035657Y01127282D01*
X01035459Y01126712D01*
X01035260Y01126241D01*
X01035062Y01125869D01*
X01034963Y01125721D01*
X01034864Y01125572D01*
X01034790Y01125473D01*
X01034740Y01125398D01*
X01034690Y01125374D01*
Y01125349D01*
X01034219Y01124903D01*
X01033724Y01124531D01*
X01033178Y01124233D01*
X01032682Y01124010D01*
X01032211Y01123861D01*
X01032013Y01123812D01*
X01031839Y01123762D01*
X01031715Y01123737D01*
X01031616Y01123713D01*
X01031542Y01123688D01*
X01031517D01*
X01031245Y01125646D01*
X01031765Y01125745D01*
X01032236Y01125894D01*
X01032608Y01126068D01*
X01032930Y01126241D01*
X01033178Y01126390D01*
X01033327Y01126539D01*
X01033451Y01126638D01*
X01033476Y01126663D01*
X01033724Y01126960D01*
X01033897Y01127282D01*
X01034021Y01127629D01*
X01034095Y01127927D01*
X01034145Y01128200D01*
X01034194Y01128423D01*
Y01128572D01*
Y01128596D01*
Y01128621D01*
X01034170Y01128894D01*
X01034145Y01129142D01*
X01034021Y01129588D01*
X01033848Y01130009D01*
X01033649Y01130332D01*
X01033476Y01130604D01*
X01033302Y01130803D01*
X01033178Y01130927D01*
X01033129Y01130976D01*
X01032905Y01131125D01*
X01032657Y01131274D01*
X01032137Y01131497D01*
X01031542Y01131646D01*
X01030972Y01131745D01*
X01030476Y01131819D01*
X01030253Y01131844D01*
X01030054D01*
X01029881Y01131869D01*
X01029236D01*
X01028840Y01131819D01*
X01028468Y01131794D01*
X01028121Y01131720D01*
X01027823Y01131646D01*
X01027526Y01131571D01*
X01027278Y01131497D01*
X01027055Y01131398D01*
X01026857Y01131323D01*
X01026683Y01131249D01*
X01026534Y01131175D01*
X01026410Y01131100D01*
X01026336Y01131026D01*
X01026262Y01131001D01*
X01026212Y01130952D01*
X01026014Y01130778D01*
X01025840Y01130580D01*
X01025592Y01130158D01*
X01025394Y01129762D01*
X01025245Y01129365D01*
X01025171Y01129018D01*
X01025146Y01128745D01*
X01025121Y01128646D01*
Y01128572D01*
Y01128522D01*
Y01128497D01*
X01025146Y01128150D01*
X01025220Y01127803D01*
X01025320Y01127530D01*
X01025419Y01127282D01*
X01025543Y01127084D01*
X01025642Y01126935D01*
X01025716Y01126836D01*
X01025741Y01126812D01*
X01025989Y01126564D01*
X01026262Y01126365D01*
X01026559Y01126192D01*
X01026857Y01126043D01*
X01027129Y01125944D01*
X01027328Y01125869D01*
X01027476Y01125845D01*
X01027501Y01125820D01*
X01027526D01*
X01027228Y01123886D01*
X01026609Y01124060D01*
X01026039Y01124283D01*
X01025567Y01124531D01*
X01025171Y01124803D01*
X01024873Y01125051D01*
X01024650Y01125250D01*
X01024526Y01125398D01*
X01024477Y01125423D01*
Y01125448D01*
X01024154Y01125919D01*
X01023906Y01126440D01*
X01023733Y01126985D01*
X01023609Y01127481D01*
X01023535Y01127927D01*
X01023510Y01128101D01*
Y01128274D01*
X01023485Y01128398D01*
Y01128522D01*
Y01128572D01*
Y01128596D01*
X01023510Y01129142D01*
X01023584Y01129662D01*
X01023708Y01130158D01*
X01023832Y01130555D01*
X01023981Y01130902D01*
X01024080Y01131175D01*
X01024130Y01131274D01*
X01024179Y01131348D01*
X01024204Y01131373D01*
Y01131398D01*
X01024501Y01131844D01*
X01024848Y01132241D01*
X01025196Y01132563D01*
X01025543Y01132835D01*
X01025865Y01133034D01*
X01026113Y01133183D01*
X01026212Y01133232D01*
X01026286Y01133282D01*
X01026336Y01133307D01*
X01026361D01*
X01026906Y01133505D01*
X01027501Y01133654D01*
X01028046Y01133778D01*
X01028567Y01133852D01*
X01029038Y01133902D01*
X01029212D01*
X01029385Y01133926D01*
X01029707D01*
X01030253Y01133902D01*
D02*
G37*
G36*
X00865378Y00966470D02*
X00837438Y00994410D01*
X00893318D01*
X00865378Y00966470D01*
D02*
G37*
G36*
X00954278Y00951230D02*
X00921258D01*
Y01159510D01*
X00954278D01*
Y00951230D01*
D02*
G37*
G36*
X01035558Y01157353D02*
X01028170D01*
Y01149718D01*
X01026262D01*
Y01157353D01*
X01021180D01*
Y01148528D01*
X01019271D01*
Y01159510D01*
X01035558D01*
Y01157353D01*
D02*
G37*
G36*
Y01119969D02*
X01029112D01*
X01028617Y01119945D01*
X01028195Y01119920D01*
X01027823Y01119870D01*
X01027501Y01119796D01*
X01027253Y01119746D01*
X01027080Y01119697D01*
X01026956Y01119672D01*
X01026931Y01119647D01*
X01026658Y01119498D01*
X01026386Y01119350D01*
X01026187Y01119151D01*
X01025989Y01118978D01*
X01025865Y01118804D01*
X01025741Y01118680D01*
X01025691Y01118581D01*
X01025667Y01118556D01*
X01025518Y01118259D01*
X01025394Y01117961D01*
X01025320Y01117664D01*
X01025245Y01117416D01*
X01025220Y01117193D01*
X01025196Y01117019D01*
Y01116920D01*
Y01116870D01*
X01025220Y01116449D01*
X01025295Y01116102D01*
X01025419Y01115780D01*
X01025543Y01115532D01*
X01025667Y01115333D01*
X01025791Y01115185D01*
X01025865Y01115086D01*
X01025890Y01115061D01*
X01026187Y01114838D01*
X01026534Y01114664D01*
X01026881Y01114565D01*
X01027228Y01114466D01*
X01027576Y01114416D01*
X01027823Y01114391D01*
X01035558D01*
Y01112383D01*
X01028096D01*
X01027476Y01112408D01*
X01026956Y01112458D01*
X01026485Y01112507D01*
X01026113Y01112582D01*
X01025815Y01112681D01*
X01025617Y01112730D01*
X01025493Y01112780D01*
X01025443Y01112805D01*
X01025121Y01112978D01*
X01024824Y01113202D01*
X01024576Y01113425D01*
X01024378Y01113648D01*
X01024229Y01113871D01*
X01024105Y01114044D01*
X01024031Y01114144D01*
X01024006Y01114193D01*
X01023832Y01114565D01*
X01023708Y01114962D01*
X01023609Y01115333D01*
X01023559Y01115681D01*
X01023510Y01115978D01*
X01023485Y01116226D01*
Y01116325D01*
Y01116400D01*
Y01116424D01*
Y01116449D01*
X01023510Y01116846D01*
X01023559Y01117218D01*
X01023634Y01117565D01*
X01023733Y01117887D01*
X01024006Y01118507D01*
X01024130Y01118755D01*
X01024278Y01119003D01*
X01024452Y01119226D01*
X01024576Y01119424D01*
X01024725Y01119573D01*
X01024848Y01119721D01*
X01024948Y01119821D01*
X01025022Y01119895D01*
X01025072Y01119945D01*
X01025097Y01119969D01*
X01019271D01*
Y01121977D01*
X01035558D01*
Y01119969D01*
D02*
G37*
G36*
X01030203Y01097410D02*
X01030724Y01097361D01*
X01031195Y01097286D01*
X01031641Y01097187D01*
X01032038Y01097088D01*
X01032434Y01096964D01*
X01032757Y01096815D01*
X01033079Y01096666D01*
X01033352Y01096542D01*
X01033575Y01096394D01*
X01033773Y01096270D01*
X01033947Y01096146D01*
X01034071Y01096071D01*
X01034170Y01095997D01*
X01034219Y01095947D01*
X01034244Y01095923D01*
X01034517Y01095625D01*
X01034765Y01095303D01*
X01034988Y01094981D01*
X01035161Y01094633D01*
X01035310Y01094311D01*
X01035434Y01093964D01*
X01035632Y01093344D01*
X01035707Y01093047D01*
X01035756Y01092774D01*
X01035781Y01092526D01*
X01035806Y01092328D01*
X01035831Y01092154D01*
Y01092006D01*
Y01091931D01*
Y01091907D01*
X01035806Y01091336D01*
X01035707Y01090816D01*
X01035608Y01090345D01*
X01035459Y01089923D01*
X01035335Y01089576D01*
X01035211Y01089304D01*
X01035186Y01089204D01*
X01035137Y01089130D01*
X01035112Y01089105D01*
Y01089081D01*
X01034814Y01088609D01*
X01034492Y01088213D01*
X01034170Y01087866D01*
X01033848Y01087593D01*
X01033550Y01087370D01*
X01033327Y01087196D01*
X01033153Y01087097D01*
X01033129Y01087073D01*
X01033104D01*
X01032583Y01086849D01*
X01031988Y01086676D01*
X01031393Y01086552D01*
X01030823Y01086453D01*
X01030550Y01086428D01*
X01030302Y01086403D01*
X01030079D01*
X01029881Y01086378D01*
X01029509D01*
X01028988Y01086403D01*
X01028518Y01086453D01*
X01028046Y01086527D01*
X01027625Y01086626D01*
X01027228Y01086750D01*
X01026881Y01086874D01*
X01026534Y01087023D01*
X01026237Y01087147D01*
X01025989Y01087296D01*
X01025741Y01087444D01*
X01025543Y01087568D01*
X01025394Y01087692D01*
X01025270Y01087791D01*
X01025171Y01087866D01*
X01025121Y01087915D01*
X01025097Y01087940D01*
X01024824Y01088238D01*
X01024576Y01088560D01*
X01024353Y01088882D01*
X01024154Y01089204D01*
X01024006Y01089551D01*
X01023882Y01089874D01*
X01023683Y01090493D01*
X01023609Y01090791D01*
X01023559Y01091064D01*
X01023535Y01091287D01*
X01023510Y01091510D01*
X01023485Y01091684D01*
Y01091807D01*
Y01091882D01*
Y01091907D01*
X01023510Y01092303D01*
X01023535Y01092700D01*
X01023683Y01093419D01*
X01023906Y01094063D01*
X01024031Y01094336D01*
X01024130Y01094584D01*
X01024254Y01094832D01*
X01024378Y01095030D01*
X01024501Y01095204D01*
X01024601Y01095352D01*
X01024675Y01095476D01*
X01024749Y01095551D01*
X01024774Y01095600D01*
X01024799Y01095625D01*
X01025121Y01095947D01*
X01025468Y01096220D01*
X01025840Y01096468D01*
X01026237Y01096666D01*
X01026634Y01096840D01*
X01027030Y01096989D01*
X01027427Y01097113D01*
X01027823Y01097212D01*
X01028195Y01097286D01*
X01028542Y01097336D01*
X01028840Y01097385D01*
X01029112Y01097410D01*
X01029336D01*
X01029509Y01097435D01*
X01029658D01*
X01030203Y01097410D01*
D02*
G37*
G36*
X01030253Y01084593D02*
X01030749Y01084544D01*
X01031245Y01084494D01*
X01031666Y01084395D01*
X01032087Y01084271D01*
X01032459Y01084147D01*
X01032806Y01084023D01*
X01033104Y01083875D01*
X01033376Y01083751D01*
X01033600Y01083627D01*
X01033798Y01083503D01*
X01033971Y01083379D01*
X01034095Y01083279D01*
X01034194Y01083230D01*
X01034244Y01083180D01*
X01034269Y01083156D01*
X01034542Y01082858D01*
X01034790Y01082561D01*
X01034988Y01082263D01*
X01035161Y01081941D01*
X01035310Y01081619D01*
X01035459Y01081296D01*
X01035632Y01080676D01*
X01035707Y01080379D01*
X01035756Y01080131D01*
X01035781Y01079883D01*
X01035806Y01079685D01*
X01035831Y01079511D01*
Y01079387D01*
Y01079313D01*
Y01079288D01*
X01035806Y01078941D01*
X01035781Y01078594D01*
X01035657Y01077974D01*
X01035459Y01077404D01*
X01035260Y01076933D01*
X01035062Y01076561D01*
X01034963Y01076413D01*
X01034864Y01076264D01*
X01034790Y01076165D01*
X01034740Y01076090D01*
X01034690Y01076066D01*
Y01076041D01*
X01034219Y01075594D01*
X01033724Y01075223D01*
X01033178Y01074925D01*
X01032682Y01074702D01*
X01032211Y01074553D01*
X01032013Y01074504D01*
X01031839Y01074454D01*
X01031715Y01074429D01*
X01031616Y01074405D01*
X01031542Y01074380D01*
X01031517D01*
X01031245Y01076338D01*
X01031765Y01076437D01*
X01032236Y01076586D01*
X01032608Y01076760D01*
X01032930Y01076933D01*
X01033178Y01077082D01*
X01033327Y01077231D01*
X01033451Y01077330D01*
X01033476Y01077355D01*
X01033724Y01077652D01*
X01033897Y01077974D01*
X01034021Y01078321D01*
X01034095Y01078619D01*
X01034145Y01078892D01*
X01034194Y01079115D01*
Y01079264D01*
Y01079288D01*
Y01079313D01*
X01034170Y01079586D01*
X01034145Y01079834D01*
X01034021Y01080280D01*
X01033848Y01080701D01*
X01033649Y01081024D01*
X01033476Y01081296D01*
X01033302Y01081495D01*
X01033178Y01081619D01*
X01033129Y01081668D01*
X01032905Y01081817D01*
X01032657Y01081966D01*
X01032137Y01082189D01*
X01031542Y01082337D01*
X01030972Y01082437D01*
X01030476Y01082511D01*
X01030253Y01082536D01*
X01030054D01*
X01029881Y01082561D01*
X01029236D01*
X01028840Y01082511D01*
X01028468Y01082486D01*
X01028121Y01082412D01*
X01027823Y01082337D01*
X01027526Y01082263D01*
X01027278Y01082189D01*
X01027055Y01082090D01*
X01026857Y01082015D01*
X01026683Y01081941D01*
X01026534Y01081867D01*
X01026410Y01081792D01*
X01026336Y01081718D01*
X01026262Y01081693D01*
X01026212Y01081643D01*
X01026014Y01081470D01*
X01025840Y01081272D01*
X01025592Y01080850D01*
X01025394Y01080453D01*
X01025245Y01080057D01*
X01025171Y01079710D01*
X01025146Y01079437D01*
X01025121Y01079338D01*
Y01079264D01*
Y01079214D01*
Y01079189D01*
X01025146Y01078842D01*
X01025220Y01078495D01*
X01025320Y01078222D01*
X01025419Y01077974D01*
X01025543Y01077776D01*
X01025642Y01077627D01*
X01025716Y01077528D01*
X01025741Y01077503D01*
X01025989Y01077255D01*
X01026262Y01077057D01*
X01026559Y01076884D01*
X01026857Y01076735D01*
X01027129Y01076636D01*
X01027328Y01076561D01*
X01027476Y01076536D01*
X01027501Y01076512D01*
X01027526D01*
X01027228Y01074578D01*
X01026609Y01074752D01*
X01026039Y01074975D01*
X01025567Y01075223D01*
X01025171Y01075495D01*
X01024873Y01075743D01*
X01024650Y01075942D01*
X01024526Y01076090D01*
X01024477Y01076115D01*
Y01076140D01*
X01024154Y01076611D01*
X01023906Y01077132D01*
X01023733Y01077677D01*
X01023609Y01078173D01*
X01023535Y01078619D01*
X01023510Y01078792D01*
Y01078966D01*
X01023485Y01079090D01*
Y01079214D01*
Y01079264D01*
Y01079288D01*
X01023510Y01079834D01*
X01023584Y01080354D01*
X01023708Y01080850D01*
X01023832Y01081247D01*
X01023981Y01081594D01*
X01024080Y01081867D01*
X01024130Y01081966D01*
X01024179Y01082040D01*
X01024204Y01082065D01*
Y01082090D01*
X01024501Y01082536D01*
X01024848Y01082933D01*
X01025196Y01083255D01*
X01025543Y01083527D01*
X01025865Y01083726D01*
X01026113Y01083875D01*
X01026212Y01083924D01*
X01026286Y01083974D01*
X01026336Y01083998D01*
X01026361D01*
X01026906Y01084197D01*
X01027501Y01084345D01*
X01028046Y01084470D01*
X01028567Y01084544D01*
X01029038Y01084593D01*
X01029212D01*
X01029385Y01084618D01*
X01029707D01*
X01030253Y01084593D01*
D02*
G37*
G36*
X01035558Y01070661D02*
X01029112D01*
X01028617Y01070636D01*
X01028195Y01070612D01*
X01027823Y01070562D01*
X01027501Y01070488D01*
X01027253Y01070438D01*
X01027080Y01070388D01*
X01026956Y01070364D01*
X01026931Y01070339D01*
X01026658Y01070190D01*
X01026386Y01070041D01*
X01026187Y01069843D01*
X01025989Y01069670D01*
X01025865Y01069496D01*
X01025741Y01069372D01*
X01025691Y01069273D01*
X01025667Y01069248D01*
X01025518Y01068951D01*
X01025394Y01068653D01*
X01025320Y01068356D01*
X01025245Y01068108D01*
X01025220Y01067885D01*
X01025196Y01067711D01*
Y01067612D01*
Y01067562D01*
X01025220Y01067141D01*
X01025295Y01066794D01*
X01025419Y01066472D01*
X01025543Y01066224D01*
X01025667Y01066025D01*
X01025791Y01065877D01*
X01025865Y01065778D01*
X01025890Y01065753D01*
X01026187Y01065530D01*
X01026534Y01065356D01*
X01026881Y01065257D01*
X01027228Y01065158D01*
X01027576Y01065108D01*
X01027823Y01065083D01*
X01035558D01*
Y01063075D01*
X01028096D01*
X01027476Y01063100D01*
X01026956Y01063150D01*
X01026485Y01063199D01*
X01026113Y01063274D01*
X01025815Y01063373D01*
X01025617Y01063422D01*
X01025493Y01063472D01*
X01025443Y01063497D01*
X01025121Y01063670D01*
X01024824Y01063893D01*
X01024576Y01064117D01*
X01024378Y01064340D01*
X01024229Y01064563D01*
X01024105Y01064736D01*
X01024031Y01064836D01*
X01024006Y01064885D01*
X01023832Y01065257D01*
X01023708Y01065654D01*
X01023609Y01066025D01*
X01023559Y01066373D01*
X01023510Y01066670D01*
X01023485Y01066918D01*
Y01067017D01*
Y01067091D01*
Y01067116D01*
Y01067141D01*
X01023510Y01067538D01*
X01023559Y01067909D01*
X01023634Y01068257D01*
X01023733Y01068579D01*
X01024006Y01069199D01*
X01024130Y01069446D01*
X01024278Y01069694D01*
X01024452Y01069918D01*
X01024576Y01070116D01*
X01024725Y01070265D01*
X01024848Y01070413D01*
X01024948Y01070512D01*
X01025022Y01070587D01*
X01025072Y01070636D01*
X01025097Y01070661D01*
X01019271D01*
Y01072669D01*
X01035558D01*
Y01070661D01*
D02*
G37*
G36*
X00893318Y01131570D02*
X00867918D01*
Y01118870D01*
X00862838D01*
Y01131570D01*
X00845058D01*
Y01113790D01*
X00839978D01*
Y01141730D01*
X00893318D01*
Y01131570D01*
D02*
G37*
G36*
Y01096010D02*
X00867918D01*
Y01083310D01*
X00893318D01*
Y01073150D01*
X00839978D01*
Y01083310D01*
X00862838D01*
Y01096010D01*
X00839978D01*
Y01106170D01*
X00893318D01*
Y01096010D01*
D02*
G37*
G36*
X01035558Y01107326D02*
X01029112D01*
X01028617Y01107301D01*
X01028195Y01107277D01*
X01027823Y01107227D01*
X01027501Y01107153D01*
X01027253Y01107103D01*
X01027080Y01107054D01*
X01026956Y01107029D01*
X01026931Y01107004D01*
X01026658Y01106855D01*
X01026386Y01106706D01*
X01026187Y01106508D01*
X01025989Y01106335D01*
X01025865Y01106161D01*
X01025741Y01106037D01*
X01025691Y01105938D01*
X01025667Y01105913D01*
X01025518Y01105616D01*
X01025394Y01105318D01*
X01025320Y01105021D01*
X01025245Y01104773D01*
X01025220Y01104550D01*
X01025196Y01104376D01*
Y01104277D01*
Y01104227D01*
X01025220Y01103806D01*
X01025295Y01103459D01*
X01025419Y01103137D01*
X01025543Y01102889D01*
X01025667Y01102690D01*
X01025791Y01102542D01*
X01025865Y01102442D01*
X01025890Y01102418D01*
X01026187Y01102195D01*
X01026534Y01102021D01*
X01026881Y01101922D01*
X01027228Y01101823D01*
X01027576Y01101773D01*
X01027823Y01101748D01*
X01035558D01*
Y01099740D01*
X01028096D01*
X01027476Y01099765D01*
X01026956Y01099815D01*
X01026485Y01099864D01*
X01026113Y01099939D01*
X01025815Y01100038D01*
X01025617Y01100087D01*
X01025493Y01100137D01*
X01025443Y01100162D01*
X01025121Y01100335D01*
X01024824Y01100558D01*
X01024576Y01100781D01*
X01024378Y01101005D01*
X01024229Y01101228D01*
X01024105Y01101401D01*
X01024031Y01101500D01*
X01024006Y01101550D01*
X01023832Y01101922D01*
X01023708Y01102318D01*
X01023609Y01102690D01*
X01023559Y01103037D01*
X01023510Y01103335D01*
X01023485Y01103583D01*
Y01103682D01*
Y01103756D01*
Y01103781D01*
Y01103806D01*
X01023510Y01104203D01*
X01023559Y01104575D01*
X01023634Y01104921D01*
X01023733Y01105244D01*
X01024006Y01105864D01*
X01024130Y01106112D01*
X01024278Y01106359D01*
X01024452Y01106582D01*
X01024576Y01106781D01*
X01024725Y01106930D01*
X01024848Y01107078D01*
X01024948Y01107178D01*
X01025022Y01107252D01*
X01025072Y01107301D01*
X01025097Y01107326D01*
X01019271D01*
Y01109334D01*
X01035558D01*
Y01107326D01*
D02*
G37*
%LPC*%
G36*
X00940485Y01092676D02*
X00940191D01*
X00939950Y01092650D01*
X00939709Y01092623D01*
X00939388Y01092596D01*
X00939040Y01092542D01*
X00938692Y01092462D01*
X00937888Y01092275D01*
X00937487Y01092141D01*
X00937059Y01091980D01*
X00936657Y01091793D01*
X00936255Y01091579D01*
X00935881Y01091338D01*
X00935533Y01091043D01*
X00935506Y01091016D01*
X00935452Y01090963D01*
X00935372Y01090882D01*
X00935238Y01090749D01*
X00935104Y01090588D01*
X00934944Y01090374D01*
X00934783Y01090160D01*
X00934622Y01089892D01*
X00934462Y01089597D01*
X00934274Y01089303D01*
X00934140Y01088955D01*
X00934007Y01088580D01*
X00933873Y01088179D01*
X00933792Y01087777D01*
X00933739Y01087322D01*
X00933712Y01086867D01*
Y01086840D01*
Y01086733D01*
Y01086599D01*
X00933739Y01086385D01*
X00933766Y01086144D01*
X00933819Y01085876D01*
X00933873Y01085555D01*
X00933953Y01085234D01*
X00934060Y01084886D01*
X00934167Y01084511D01*
X00934328Y01084136D01*
X00934515Y01083761D01*
X00934729Y01083387D01*
X00934997Y01083038D01*
X00935265Y01082690D01*
X00935613Y01082369D01*
X00935640Y01082342D01*
X00935693Y01082289D01*
X00935800Y01082208D01*
X00935961Y01082101D01*
X00936175Y01081994D01*
X00936416Y01081861D01*
X00936684Y01081700D01*
X00937032Y01081566D01*
X00937407Y01081405D01*
X00937835Y01081272D01*
X00938317Y01081138D01*
X00938826Y01081004D01*
X00939388Y01080923D01*
X00939977Y01080843D01*
X00940646Y01080790D01*
X00941342D01*
Y01089223D01*
X00941476D01*
X00941583Y01089196D01*
X00941877Y01089169D01*
X00942199Y01089116D01*
X00942600Y01089008D01*
X00942975Y01088875D01*
X00943350Y01088687D01*
X00943698Y01088419D01*
X00943725Y01088393D01*
X00943832Y01088286D01*
X00943966Y01088125D01*
X00944100Y01087884D01*
X00944260Y01087616D01*
X00944394Y01087268D01*
X00944501Y01086894D01*
X00944528Y01086492D01*
Y01086465D01*
Y01086358D01*
X00944501Y01086198D01*
X00944474Y01086010D01*
X00944421Y01085823D01*
X00944340Y01085582D01*
X00944233Y01085368D01*
X00944100Y01085153D01*
X00944073Y01085127D01*
X00944019Y01085073D01*
X00943912Y01084966D01*
X00943752Y01084859D01*
X00943564Y01084725D01*
X00943323Y01084564D01*
X00943055Y01084431D01*
X00942707Y01084324D01*
X00943270Y01080977D01*
X00943296D01*
X00943350Y01081004D01*
X00943457Y01081057D01*
X00943564Y01081111D01*
X00943725Y01081164D01*
X00943912Y01081272D01*
X00944314Y01081486D01*
X00944769Y01081780D01*
X00945224Y01082128D01*
X00945679Y01082557D01*
X00946081Y01083038D01*
Y01083065D01*
X00946134Y01083092D01*
X00946161Y01083172D01*
X00946241Y01083279D01*
X00946295Y01083413D01*
X00946375Y01083601D01*
X00946562Y01084002D01*
X00946750Y01084511D01*
X00946884Y01085100D01*
X00946991Y01085769D01*
X00947044Y01086519D01*
Y01086545D01*
Y01086653D01*
X00947018Y01086840D01*
Y01087054D01*
X00946964Y01087349D01*
X00946937Y01087643D01*
X00946857Y01087991D01*
X00946777Y01088366D01*
X00946670Y01088768D01*
X00946509Y01089169D01*
X00946348Y01089597D01*
X00946134Y01089999D01*
X00945893Y01090401D01*
X00945599Y01090775D01*
X00945251Y01091124D01*
X00944876Y01091445D01*
X00944849D01*
X00944796Y01091498D01*
X00944688Y01091552D01*
X00944555Y01091632D01*
X00944394Y01091739D01*
X00944180Y01091846D01*
X00943939Y01091953D01*
X00943671Y01092060D01*
X00943377Y01092168D01*
X00943029Y01092275D01*
X00942681Y01092382D01*
X00942279Y01092489D01*
X00941422Y01092623D01*
X00940967Y01092650D01*
X00940485Y01092676D01*
D02*
G37*
G36*
X00946723Y01106731D02*
X00933980D01*
Y01103599D01*
X00935854D01*
X00935827Y01103572D01*
X00935773Y01103519D01*
X00935666Y01103438D01*
X00935506Y01103305D01*
X00935345Y01103144D01*
X00935184Y01102930D01*
X00934970Y01102716D01*
X00934783Y01102448D01*
X00934596Y01102153D01*
X00934381Y01101859D01*
X00934221Y01101511D01*
X00934033Y01101136D01*
X00933900Y01100734D01*
X00933792Y01100333D01*
X00933739Y01099878D01*
X00933712Y01099423D01*
Y01099369D01*
Y01099235D01*
X00933739Y01099021D01*
X00933766Y01098753D01*
X00933819Y01098432D01*
X00933873Y01098084D01*
X00933980Y01097736D01*
X00934114Y01097388D01*
X00934140Y01097335D01*
X00934194Y01097227D01*
X00934274Y01097067D01*
X00934381Y01096879D01*
X00934542Y01096638D01*
X00934729Y01096424D01*
X00934917Y01096183D01*
X00935158Y01095996D01*
X00935184Y01095969D01*
X00935265Y01095916D01*
X00935399Y01095835D01*
X00935559Y01095728D01*
X00935773Y01095621D01*
X00936014Y01095514D01*
X00936282Y01095407D01*
X00936577Y01095327D01*
X00936603D01*
X00936711Y01095300D01*
X00936898Y01095273D01*
X00937139Y01095219D01*
X00937460Y01095193D01*
X00937862Y01095166D01*
X00938317Y01095139D01*
X00946723D01*
Y01098512D01*
X00939548D01*
X00939147Y01098539D01*
X00938692Y01098566D01*
X00938263Y01098620D01*
X00937888Y01098673D01*
X00937728Y01098700D01*
X00937594Y01098753D01*
X00937567D01*
X00937487Y01098780D01*
X00937380Y01098834D01*
X00937246Y01098914D01*
X00936925Y01099128D01*
X00936630Y01099449D01*
X00936603Y01099476D01*
X00936577Y01099530D01*
X00936523Y01099637D01*
X00936443Y01099771D01*
X00936389Y01099931D01*
X00936336Y01100145D01*
X00936309Y01100360D01*
X00936282Y01100601D01*
Y01100627D01*
Y01100761D01*
X00936309Y01100922D01*
X00936336Y01101136D01*
X00936389Y01101377D01*
X00936496Y01101645D01*
X00936603Y01101912D01*
X00936764Y01102180D01*
X00936791Y01102207D01*
X00936844Y01102287D01*
X00936952Y01102394D01*
X00937112Y01102555D01*
X00937299Y01102689D01*
X00937514Y01102849D01*
X00937755Y01103010D01*
X00938049Y01103117D01*
X00938076D01*
X00938210Y01103144D01*
X00938397Y01103197D01*
X00938692Y01103224D01*
X00938879Y01103251D01*
X00939093Y01103278D01*
X00939334Y01103305D01*
X00939602Y01103331D01*
X00939896D01*
X00940218Y01103358D01*
X00946723D01*
Y01106731D01*
D02*
G37*
G36*
Y01078193D02*
X00933980D01*
Y01075061D01*
X00935773D01*
X00935747Y01075034D01*
X00935586Y01074927D01*
X00935372Y01074766D01*
X00935104Y01074579D01*
X00934810Y01074364D01*
X00934542Y01074124D01*
X00934301Y01073856D01*
X00934114Y01073615D01*
X00934087Y01073588D01*
X00934060Y01073508D01*
X00933980Y01073374D01*
X00933900Y01073186D01*
X00933846Y01072972D01*
X00933766Y01072731D01*
X00933739Y01072464D01*
X00933712Y01072169D01*
Y01072142D01*
Y01072116D01*
Y01071982D01*
X00933739Y01071741D01*
X00933792Y01071446D01*
X00933873Y01071125D01*
X00933980Y01070723D01*
X00934140Y01070322D01*
X00934355Y01069920D01*
X00937299Y01070965D01*
X00937273Y01070991D01*
X00937219Y01071098D01*
X00937112Y01071286D01*
X00937005Y01071473D01*
X00936925Y01071741D01*
X00936818Y01072009D01*
X00936764Y01072276D01*
X00936737Y01072571D01*
Y01072598D01*
Y01072678D01*
X00936764Y01072812D01*
X00936791Y01072972D01*
X00936844Y01073160D01*
X00936898Y01073374D01*
X00937005Y01073588D01*
X00937139Y01073775D01*
X00937166Y01073802D01*
X00937219Y01073856D01*
X00937326Y01073936D01*
X00937460Y01074043D01*
X00937647Y01074177D01*
X00937915Y01074311D01*
X00938210Y01074445D01*
X00938558Y01074552D01*
X00938611D01*
X00938665Y01074579D01*
X00938772Y01074605D01*
X00938879D01*
X00939040Y01074632D01*
X00939254Y01074659D01*
X00939468Y01074686D01*
X00939736Y01074713D01*
X00940030Y01074739D01*
X00940378Y01074766D01*
X00940780D01*
X00941208Y01074793D01*
X00941690Y01074820D01*
X00946723D01*
Y01078193D01*
D02*
G37*
G36*
X00940485Y01044916D02*
X00940191D01*
X00939950Y01044889D01*
X00939709Y01044862D01*
X00939388Y01044835D01*
X00939040Y01044782D01*
X00938692Y01044702D01*
X00937888Y01044514D01*
X00937487Y01044380D01*
X00937059Y01044220D01*
X00936657Y01044032D01*
X00936255Y01043818D01*
X00935881Y01043577D01*
X00935533Y01043283D01*
X00935506Y01043256D01*
X00935452Y01043202D01*
X00935372Y01043122D01*
X00935238Y01042988D01*
X00935104Y01042828D01*
X00934944Y01042613D01*
X00934783Y01042399D01*
X00934622Y01042131D01*
X00934462Y01041837D01*
X00934274Y01041543D01*
X00934140Y01041194D01*
X00934007Y01040820D01*
X00933873Y01040418D01*
X00933792Y01040016D01*
X00933739Y01039561D01*
X00933712Y01039106D01*
Y01039080D01*
Y01038972D01*
Y01038839D01*
X00933739Y01038624D01*
X00933766Y01038383D01*
X00933819Y01038116D01*
X00933873Y01037794D01*
X00933953Y01037473D01*
X00934060Y01037125D01*
X00934167Y01036750D01*
X00934328Y01036376D01*
X00934515Y01036001D01*
X00934729Y01035626D01*
X00934997Y01035278D01*
X00935265Y01034930D01*
X00935613Y01034609D01*
X00935640Y01034582D01*
X00935693Y01034528D01*
X00935800Y01034448D01*
X00935961Y01034341D01*
X00936175Y01034234D01*
X00936416Y01034100D01*
X00936684Y01033939D01*
X00937032Y01033805D01*
X00937407Y01033645D01*
X00937835Y01033511D01*
X00938317Y01033377D01*
X00938826Y01033243D01*
X00939388Y01033163D01*
X00939977Y01033083D01*
X00940646Y01033029D01*
X00941342D01*
Y01041462D01*
X00941476D01*
X00941583Y01041435D01*
X00941877Y01041409D01*
X00942199Y01041355D01*
X00942600Y01041248D01*
X00942975Y01041114D01*
X00943350Y01040927D01*
X00943698Y01040659D01*
X00943725Y01040632D01*
X00943832Y01040525D01*
X00943966Y01040365D01*
X00944100Y01040124D01*
X00944260Y01039856D01*
X00944394Y01039508D01*
X00944501Y01039133D01*
X00944528Y01038732D01*
Y01038705D01*
Y01038598D01*
X00944501Y01038437D01*
X00944474Y01038250D01*
X00944421Y01038062D01*
X00944340Y01037821D01*
X00944233Y01037607D01*
X00944100Y01037393D01*
X00944073Y01037366D01*
X00944019Y01037313D01*
X00943912Y01037206D01*
X00943752Y01037098D01*
X00943564Y01036964D01*
X00943323Y01036804D01*
X00943055Y01036670D01*
X00942707Y01036563D01*
X00943270Y01033216D01*
X00943296D01*
X00943350Y01033243D01*
X00943457Y01033297D01*
X00943564Y01033350D01*
X00943725Y01033404D01*
X00943912Y01033511D01*
X00944314Y01033725D01*
X00944769Y01034020D01*
X00945224Y01034368D01*
X00945679Y01034796D01*
X00946081Y01035278D01*
Y01035305D01*
X00946134Y01035331D01*
X00946161Y01035412D01*
X00946241Y01035519D01*
X00946295Y01035653D01*
X00946375Y01035840D01*
X00946562Y01036242D01*
X00946750Y01036750D01*
X00946884Y01037339D01*
X00946991Y01038009D01*
X00947044Y01038758D01*
Y01038785D01*
Y01038892D01*
X00947018Y01039080D01*
Y01039294D01*
X00946964Y01039588D01*
X00946937Y01039883D01*
X00946857Y01040231D01*
X00946777Y01040605D01*
X00946670Y01041007D01*
X00946509Y01041409D01*
X00946348Y01041837D01*
X00946134Y01042238D01*
X00945893Y01042640D01*
X00945599Y01043015D01*
X00945251Y01043363D01*
X00944876Y01043684D01*
X00944849D01*
X00944796Y01043738D01*
X00944688Y01043791D01*
X00944555Y01043872D01*
X00944394Y01043979D01*
X00944180Y01044086D01*
X00943939Y01044193D01*
X00943671Y01044300D01*
X00943377Y01044407D01*
X00943029Y01044514D01*
X00942681Y01044621D01*
X00942279Y01044728D01*
X00941422Y01044862D01*
X00940967Y01044889D01*
X00940485Y01044916D01*
D02*
G37*
G36*
X00946723Y01061621D02*
X00929134D01*
Y01058194D01*
X00940940Y01050939D01*
X00929134D01*
Y01047646D01*
X00946723D01*
Y01051207D01*
X00935184Y01058328D01*
X00946723D01*
Y01061621D01*
D02*
G37*
G36*
X00940485Y01121322D02*
X00940191D01*
X00939950Y01121295D01*
X00939709Y01121268D01*
X00939388Y01121242D01*
X00939040Y01121188D01*
X00938692Y01121108D01*
X00937888Y01120920D01*
X00937487Y01120786D01*
X00937059Y01120626D01*
X00936657Y01120438D01*
X00936255Y01120224D01*
X00935881Y01119983D01*
X00935533Y01119689D01*
X00935506Y01119662D01*
X00935452Y01119609D01*
X00935372Y01119528D01*
X00935238Y01119394D01*
X00935104Y01119234D01*
X00934944Y01119019D01*
X00934783Y01118805D01*
X00934622Y01118538D01*
X00934462Y01118243D01*
X00934274Y01117949D01*
X00934140Y01117601D01*
X00934007Y01117226D01*
X00933873Y01116824D01*
X00933792Y01116423D01*
X00933739Y01115967D01*
X00933712Y01115512D01*
Y01115486D01*
Y01115378D01*
Y01115245D01*
X00933739Y01115031D01*
X00933766Y01114790D01*
X00933819Y01114522D01*
X00933873Y01114201D01*
X00933953Y01113879D01*
X00934060Y01113531D01*
X00934167Y01113157D01*
X00934328Y01112782D01*
X00934515Y01112407D01*
X00934729Y01112032D01*
X00934997Y01111684D01*
X00935265Y01111336D01*
X00935613Y01111015D01*
X00935640Y01110988D01*
X00935693Y01110935D01*
X00935800Y01110854D01*
X00935961Y01110747D01*
X00936175Y01110640D01*
X00936416Y01110506D01*
X00936684Y01110346D01*
X00937032Y01110212D01*
X00937407Y01110051D01*
X00937835Y01109917D01*
X00938317Y01109783D01*
X00938826Y01109649D01*
X00939388Y01109569D01*
X00939977Y01109489D01*
X00940646Y01109435D01*
X00941342D01*
Y01117868D01*
X00941476D01*
X00941583Y01117841D01*
X00941877Y01117815D01*
X00942199Y01117761D01*
X00942600Y01117654D01*
X00942975Y01117520D01*
X00943350Y01117333D01*
X00943698Y01117065D01*
X00943725Y01117038D01*
X00943832Y01116931D01*
X00943966Y01116771D01*
X00944100Y01116530D01*
X00944260Y01116262D01*
X00944394Y01115914D01*
X00944501Y01115539D01*
X00944528Y01115138D01*
Y01115111D01*
Y01115004D01*
X00944501Y01114843D01*
X00944474Y01114656D01*
X00944421Y01114468D01*
X00944340Y01114227D01*
X00944233Y01114013D01*
X00944100Y01113799D01*
X00944073Y01113772D01*
X00944019Y01113719D01*
X00943912Y01113612D01*
X00943752Y01113504D01*
X00943564Y01113371D01*
X00943323Y01113210D01*
X00943055Y01113076D01*
X00942707Y01112969D01*
X00943270Y01109623D01*
X00943296D01*
X00943350Y01109649D01*
X00943457Y01109703D01*
X00943564Y01109756D01*
X00943725Y01109810D01*
X00943912Y01109917D01*
X00944314Y01110131D01*
X00944769Y01110426D01*
X00945224Y01110774D01*
X00945679Y01111202D01*
X00946081Y01111684D01*
Y01111711D01*
X00946134Y01111738D01*
X00946161Y01111818D01*
X00946241Y01111925D01*
X00946295Y01112059D01*
X00946375Y01112246D01*
X00946562Y01112648D01*
X00946750Y01113157D01*
X00946884Y01113745D01*
X00946991Y01114415D01*
X00947044Y01115164D01*
Y01115191D01*
Y01115298D01*
X00947018Y01115486D01*
Y01115700D01*
X00946964Y01115994D01*
X00946937Y01116289D01*
X00946857Y01116637D01*
X00946777Y01117012D01*
X00946670Y01117413D01*
X00946509Y01117815D01*
X00946348Y01118243D01*
X00946134Y01118645D01*
X00945893Y01119046D01*
X00945599Y01119421D01*
X00945251Y01119769D01*
X00944876Y01120090D01*
X00944849D01*
X00944796Y01120144D01*
X00944688Y01120197D01*
X00944555Y01120278D01*
X00944394Y01120385D01*
X00944180Y01120492D01*
X00943939Y01120599D01*
X00943671Y01120706D01*
X00943377Y01120813D01*
X00943029Y01120920D01*
X00942681Y01121027D01*
X00942279Y01121134D01*
X00941422Y01121268D01*
X00940967Y01121295D01*
X00940485Y01121322D01*
D02*
G37*
G36*
X00929134Y01152029D02*
Y01148388D01*
X00941235Y01145791D01*
X00929134Y01142579D01*
Y01138375D01*
X00941422Y01135270D01*
X00929134Y01132593D01*
Y01129005D01*
X00946723Y01133235D01*
Y01137037D01*
X00933578Y01140544D01*
X00946723Y01144024D01*
Y01147933D01*
X00929134Y01152029D01*
D02*
G37*
G36*
X01174774Y01016370D02*
X01174650D01*
X01174451Y01016345D01*
X01174278Y01016321D01*
X01173980Y01016221D01*
X01173856Y01016172D01*
X01173782Y01016147D01*
X01173732Y01016097D01*
X01173708D01*
X01173410Y01015850D01*
X01173212Y01015602D01*
X01173137Y01015503D01*
X01173088Y01015403D01*
X01173038Y01015354D01*
Y01015329D01*
X01172964Y01015106D01*
X01172889Y01014833D01*
X01172766Y01014263D01*
X01172716Y01013990D01*
X01172666Y01013767D01*
X01172642Y01013618D01*
Y01013594D01*
Y01013569D01*
X01172567Y01013172D01*
X01172518Y01012800D01*
X01172443Y01012453D01*
X01172394Y01012131D01*
X01172319Y01011834D01*
X01172245Y01011586D01*
X01172195Y01011338D01*
X01172146Y01011115D01*
X01172071Y01010916D01*
X01172022Y01010768D01*
X01171997Y01010619D01*
X01171947Y01010495D01*
X01171923Y01010421D01*
X01171898Y01010346D01*
X01171873Y01010297D01*
X01172617D01*
X01173088Y01010321D01*
X01173484Y01010346D01*
X01173831Y01010396D01*
X01174129Y01010445D01*
X01174352Y01010520D01*
X01174501Y01010569D01*
X01174600Y01010594D01*
X01174625Y01010619D01*
X01174947Y01010792D01*
X01175220Y01011015D01*
X01175468Y01011239D01*
X01175641Y01011437D01*
X01175815Y01011635D01*
X01175914Y01011809D01*
X01175988Y01011908D01*
X01176013Y01011957D01*
X01176187Y01012305D01*
X01176311Y01012652D01*
X01176385Y01012999D01*
X01176434Y01013296D01*
X01176484Y01013594D01*
X01176509Y01013792D01*
Y01013941D01*
Y01013966D01*
Y01013990D01*
X01176484Y01014412D01*
X01176434Y01014759D01*
X01176335Y01015081D01*
X01176236Y01015329D01*
X01176162Y01015527D01*
X01176063Y01015651D01*
X01176013Y01015751D01*
X01175988Y01015775D01*
X01175765Y01015974D01*
X01175542Y01016122D01*
X01175319Y01016221D01*
X01175121Y01016296D01*
X01174922Y01016345D01*
X01174774Y01016370D01*
D02*
G37*
G36*
Y01046714D02*
X01174650D01*
X01174451Y01046689D01*
X01174278Y01046664D01*
X01173980Y01046565D01*
X01173856Y01046515D01*
X01173782Y01046491D01*
X01173732Y01046441D01*
X01173708D01*
X01173410Y01046193D01*
X01173212Y01045945D01*
X01173137Y01045846D01*
X01173088Y01045747D01*
X01173038Y01045697D01*
Y01045673D01*
X01172964Y01045449D01*
X01172889Y01045177D01*
X01172766Y01044606D01*
X01172716Y01044334D01*
X01172666Y01044111D01*
X01172642Y01043962D01*
Y01043937D01*
Y01043912D01*
X01172567Y01043516D01*
X01172518Y01043144D01*
X01172443Y01042797D01*
X01172394Y01042475D01*
X01172319Y01042177D01*
X01172245Y01041929D01*
X01172195Y01041681D01*
X01172146Y01041458D01*
X01172071Y01041260D01*
X01172022Y01041111D01*
X01171997Y01040962D01*
X01171947Y01040838D01*
X01171923Y01040764D01*
X01171898Y01040690D01*
X01171873Y01040640D01*
X01172617D01*
X01173088Y01040665D01*
X01173484Y01040690D01*
X01173831Y01040739D01*
X01174129Y01040789D01*
X01174352Y01040863D01*
X01174501Y01040913D01*
X01174600Y01040938D01*
X01174625Y01040962D01*
X01174947Y01041136D01*
X01175220Y01041359D01*
X01175468Y01041582D01*
X01175641Y01041780D01*
X01175815Y01041979D01*
X01175914Y01042152D01*
X01175988Y01042251D01*
X01176013Y01042301D01*
X01176187Y01042648D01*
X01176311Y01042995D01*
X01176385Y01043342D01*
X01176434Y01043640D01*
X01176484Y01043937D01*
X01176509Y01044136D01*
Y01044284D01*
Y01044309D01*
Y01044334D01*
X01176484Y01044755D01*
X01176434Y01045102D01*
X01176335Y01045425D01*
X01176236Y01045673D01*
X01176162Y01045871D01*
X01176063Y01045995D01*
X01176013Y01046094D01*
X01175988Y01046119D01*
X01175765Y01046317D01*
X01175542Y01046466D01*
X01175319Y01046565D01*
X01175121Y01046639D01*
X01174922Y01046689D01*
X01174774Y01046714D01*
D02*
G37*
G36*
X00932240Y01127158D02*
X00929134D01*
Y01123785D01*
X00932240D01*
Y01127158D01*
D02*
G37*
G36*
X00946723D02*
X00933980D01*
Y01123785D01*
X00946723D01*
Y01127158D01*
D02*
G37*
G36*
X01055306Y01006578D02*
X01054661D01*
X01054265Y01006528D01*
X01053893Y01006504D01*
X01053546Y01006429D01*
X01053248Y01006380D01*
X01052951Y01006305D01*
X01052703Y01006206D01*
X01052480Y01006132D01*
X01052281Y01006057D01*
X01052108Y01005958D01*
X01051959Y01005884D01*
X01051835Y01005834D01*
X01051761Y01005760D01*
X01051686Y01005735D01*
X01051637Y01005686D01*
X01051439Y01005512D01*
X01051265Y01005339D01*
X01051017Y01004967D01*
X01050819Y01004595D01*
X01050670Y01004248D01*
X01050596Y01003950D01*
X01050571Y01003702D01*
X01050546Y01003603D01*
Y01003529D01*
Y01003504D01*
Y01003479D01*
Y01003231D01*
X01050596Y01002983D01*
X01050720Y01002537D01*
X01050918Y01002141D01*
X01051116Y01001818D01*
X01051314Y01001546D01*
X01051513Y01001347D01*
X01051637Y01001223D01*
X01051662Y01001174D01*
X01051686D01*
X01051909Y01001000D01*
X01052157Y01000851D01*
X01052728Y01000628D01*
X01053323Y01000455D01*
X01053893Y01000356D01*
X01054438Y01000281D01*
X01054661Y01000257D01*
X01054860D01*
X01055033Y01000232D01*
X01055653D01*
X01056025Y01000281D01*
X01056372Y01000306D01*
X01056694Y01000380D01*
X01056992Y01000455D01*
X01057264Y01000529D01*
X01057512Y01000603D01*
X01057710Y01000678D01*
X01057909Y01000777D01*
X01058082Y01000851D01*
X01058206Y01000926D01*
X01058330Y01001000D01*
X01058405Y01001075D01*
X01058479Y01001099D01*
X01058504Y01001149D01*
X01058529D01*
X01058727Y01001322D01*
X01058876Y01001496D01*
X01059148Y01001893D01*
X01059322Y01002264D01*
X01059471Y01002612D01*
X01059545Y01002909D01*
X01059570Y01003157D01*
X01059594Y01003256D01*
Y01003331D01*
Y01003355D01*
Y01003380D01*
X01059570Y01003628D01*
X01059545Y01003851D01*
X01059421Y01004297D01*
X01059248Y01004669D01*
X01059024Y01004991D01*
X01058826Y01005264D01*
X01058652Y01005462D01*
X01058529Y01005586D01*
X01058479Y01005636D01*
X01058256Y01005809D01*
X01058008Y01005958D01*
X01057487Y01006181D01*
X01056917Y01006355D01*
X01056372Y01006454D01*
X01055851Y01006528D01*
X01055653Y01006553D01*
X01055454D01*
X01055306Y01006578D01*
D02*
G37*
G36*
X01053942Y01062034D02*
X01053397Y01061960D01*
X01052901Y01061836D01*
X01052480Y01061662D01*
X01052133Y01061489D01*
X01051835Y01061315D01*
X01051637Y01061167D01*
X01051513Y01061067D01*
X01051463Y01061018D01*
X01051141Y01060646D01*
X01050918Y01060249D01*
X01050744Y01059877D01*
X01050645Y01059505D01*
X01050571Y01059183D01*
X01050546Y01058911D01*
X01050521Y01058811D01*
Y01058737D01*
Y01058712D01*
Y01058687D01*
X01050546Y01058415D01*
X01050571Y01058142D01*
X01050695Y01057671D01*
X01050893Y01057250D01*
X01051116Y01056878D01*
X01051339Y01056605D01*
X01051513Y01056382D01*
X01051662Y01056258D01*
X01051686Y01056208D01*
X01051711D01*
X01052009Y01055985D01*
X01052381Y01055836D01*
X01052752Y01055688D01*
X01053099Y01055589D01*
X01053422Y01055514D01*
X01053694Y01055465D01*
X01053794D01*
X01053868Y01055440D01*
X01053942D01*
Y01062034D01*
D02*
G37*
G36*
Y01130257D02*
X01053397Y01130183D01*
X01052901Y01130059D01*
X01052480Y01129885D01*
X01052133Y01129712D01*
X01051835Y01129538D01*
X01051637Y01129390D01*
X01051513Y01129290D01*
X01051463Y01129241D01*
X01051141Y01128869D01*
X01050918Y01128472D01*
X01050744Y01128101D01*
X01050645Y01127729D01*
X01050571Y01127406D01*
X01050546Y01127134D01*
X01050521Y01127035D01*
Y01126960D01*
Y01126935D01*
Y01126911D01*
X01050546Y01126638D01*
X01050571Y01126365D01*
X01050695Y01125894D01*
X01050893Y01125473D01*
X01051116Y01125101D01*
X01051339Y01124828D01*
X01051513Y01124605D01*
X01051662Y01124481D01*
X01051686Y01124432D01*
X01051711D01*
X01052009Y01124209D01*
X01052381Y01124060D01*
X01052752Y01123911D01*
X01053099Y01123812D01*
X01053422Y01123737D01*
X01053694Y01123688D01*
X01053794D01*
X01053868Y01123663D01*
X01053942D01*
Y01130257D01*
D02*
G37*
G36*
X00943270Y00994344D02*
X00943082D01*
X00942895Y00994317D01*
X00942627Y00994291D01*
X00942333Y00994210D01*
X00942011Y00994130D01*
X00941690Y00993996D01*
X00941369Y00993836D01*
X00941342Y00993809D01*
X00941235Y00993728D01*
X00941074Y00993621D01*
X00940887Y00993461D01*
X00940673Y00993273D01*
X00940459Y00993032D01*
X00940244Y00992738D01*
X00940057Y00992417D01*
X00940030Y00992363D01*
X00939977Y00992229D01*
X00939896Y00992015D01*
X00939789Y00991721D01*
X00939655Y00991346D01*
X00939521Y00990891D01*
X00939388Y00990355D01*
X00939254Y00989739D01*
Y00989713D01*
X00939227Y00989632D01*
X00939200Y00989525D01*
X00939174Y00989365D01*
X00939147Y00989150D01*
X00939093Y00988936D01*
X00938986Y00988428D01*
X00938852Y00987892D01*
X00938718Y00987357D01*
X00938585Y00986848D01*
X00938504Y00986634D01*
X00938424Y00986447D01*
X00937942D01*
X00937781Y00986473D01*
X00937567Y00986500D01*
X00937326Y00986554D01*
X00937112Y00986661D01*
X00936898Y00986768D01*
X00936711Y00986928D01*
X00936684Y00986955D01*
X00936630Y00987036D01*
X00936577Y00987143D01*
X00936496Y00987330D01*
X00936416Y00987571D01*
X00936336Y00987892D01*
X00936309Y00988294D01*
X00936282Y00988749D01*
Y00988776D01*
Y00988910D01*
X00936309Y00989070D01*
X00936336Y00989258D01*
X00936443Y00989739D01*
X00936523Y00989954D01*
X00936657Y00990168D01*
X00936684Y00990194D01*
X00936737Y00990248D01*
X00936818Y00990355D01*
X00936952Y00990462D01*
X00937112Y00990596D01*
X00937326Y00990730D01*
X00937594Y00990864D01*
X00937888Y00990971D01*
X00937326Y00993996D01*
X00937299D01*
X00937246Y00993969D01*
X00937139Y00993943D01*
X00937032Y00993889D01*
X00936711Y00993755D01*
X00936309Y00993595D01*
X00935854Y00993354D01*
X00935425Y00993032D01*
X00934997Y00992657D01*
X00934622Y00992229D01*
Y00992202D01*
X00934596Y00992176D01*
X00934542Y00992095D01*
X00934489Y00991988D01*
X00934408Y00991854D01*
X00934328Y00991694D01*
X00934248Y00991506D01*
X00934167Y00991292D01*
X00934087Y00991051D01*
X00934007Y00990757D01*
X00933926Y00990462D01*
X00933846Y00990114D01*
X00933792Y00989766D01*
X00933739Y00989365D01*
X00933712Y00988963D01*
Y00988508D01*
Y00988481D01*
Y00988401D01*
Y00988294D01*
Y00988133D01*
X00933739Y00987946D01*
Y00987732D01*
X00933766Y00987223D01*
X00933846Y00986687D01*
X00933926Y00986125D01*
X00934060Y00985590D01*
X00934140Y00985349D01*
X00934248Y00985135D01*
X00934274Y00985081D01*
X00934355Y00984947D01*
X00934462Y00984760D01*
X00934622Y00984519D01*
X00934810Y00984278D01*
X00935051Y00984010D01*
X00935318Y00983769D01*
X00935613Y00983582D01*
X00935640Y00983555D01*
X00935773Y00983502D01*
X00935988Y00983448D01*
X00936309Y00983341D01*
X00936496Y00983314D01*
X00936711Y00983261D01*
X00936952Y00983234D01*
X00937246Y00983207D01*
X00937540Y00983180D01*
X00937888Y00983154D01*
X00938236Y00983127D01*
X00938638D01*
X00942547Y00983180D01*
X00943109D01*
X00943484Y00983154D01*
X00943885D01*
X00944314Y00983100D01*
X00944688Y00983073D01*
X00945036Y00983020D01*
X00945063D01*
X00945170Y00982993D01*
X00945331Y00982939D01*
X00945545Y00982886D01*
X00945786Y00982806D01*
X00946081Y00982699D01*
X00946375Y00982565D01*
X00946723Y00982404D01*
Y00985724D01*
X00946696D01*
X00946670Y00985751D01*
X00946589Y00985777D01*
X00946482Y00985804D01*
X00946348Y00985857D01*
X00946188Y00985938D01*
X00945974Y00985991D01*
X00945759Y00986072D01*
X00945706D01*
X00945599Y00986125D01*
X00945465Y00986152D01*
X00945358Y00986179D01*
X00945385Y00986206D01*
X00945492Y00986339D01*
X00945652Y00986500D01*
X00945840Y00986741D01*
X00946054Y00987009D01*
X00946268Y00987330D01*
X00946455Y00987651D01*
X00946643Y00988026D01*
X00946670Y00988080D01*
X00946696Y00988187D01*
X00946777Y00988401D01*
X00946830Y00988669D01*
X00946910Y00988963D01*
X00946991Y00989311D01*
X00947018Y00989713D01*
X00947044Y00990114D01*
Y00990141D01*
Y00990194D01*
Y00990302D01*
X00947018Y00990435D01*
Y00990596D01*
X00946991Y00990810D01*
X00946910Y00991239D01*
X00946777Y00991747D01*
X00946616Y00992256D01*
X00946348Y00992765D01*
X00946000Y00993220D01*
X00945947Y00993273D01*
X00945813Y00993407D01*
X00945572Y00993568D01*
X00945251Y00993782D01*
X00944849Y00993996D01*
X00944394Y00994157D01*
X00943858Y00994291D01*
X00943270Y00994344D01*
D02*
G37*
G36*
X00936657Y00966207D02*
X00933980D01*
Y00964654D01*
X00931463D01*
X00929482Y00961281D01*
X00933980D01*
Y00958979D01*
X00936657D01*
Y00961281D01*
X00942654D01*
X00942975Y00961254D01*
X00943511D01*
X00943618Y00961228D01*
X00943725D01*
X00943832Y00961174D01*
X00943966Y00961067D01*
X00944100Y00960933D01*
X00944126Y00960880D01*
X00944180Y00960773D01*
X00944233Y00960585D01*
X00944260Y00960371D01*
Y00960344D01*
Y00960291D01*
X00944233Y00960184D01*
X00944207Y00960023D01*
X00944180Y00959836D01*
X00944126Y00959595D01*
X00944046Y00959327D01*
X00943939Y00959006D01*
X00946562Y00958711D01*
X00946589Y00958765D01*
X00946643Y00958925D01*
X00946723Y00959166D01*
X00946803Y00959488D01*
X00946884Y00959889D01*
X00946964Y00960344D01*
X00947018Y00960853D01*
X00947044Y00961388D01*
Y00961415D01*
Y00961549D01*
X00947018Y00961710D01*
Y00961924D01*
X00946964Y00962191D01*
X00946910Y00962459D01*
X00946857Y00962754D01*
X00946750Y00963021D01*
X00946723Y00963048D01*
X00946696Y00963129D01*
X00946643Y00963262D01*
X00946536Y00963423D01*
X00946295Y00963771D01*
X00946134Y00963958D01*
X00945974Y00964092D01*
X00945947Y00964119D01*
X00945893Y00964146D01*
X00945759Y00964199D01*
X00945626Y00964280D01*
X00945411Y00964360D01*
X00945197Y00964440D01*
X00944929Y00964494D01*
X00944635Y00964547D01*
X00944608D01*
X00944501Y00964574D01*
X00944340D01*
X00944126Y00964601D01*
X00943805Y00964628D01*
X00943377D01*
X00942868Y00964654D01*
X00936657D01*
Y00966207D01*
D02*
G37*
G36*
X00940351Y00980557D02*
X00940030D01*
X00939816Y00980530D01*
X00939548Y00980503D01*
X00939227Y00980476D01*
X00938879Y00980423D01*
X00938531Y00980369D01*
X00937728Y00980182D01*
X00936898Y00979914D01*
X00936496Y00979754D01*
X00936122Y00979539D01*
X00935747Y00979325D01*
X00935425Y00979058D01*
X00935399Y00979031D01*
X00935345Y00978977D01*
X00935265Y00978897D01*
X00935158Y00978790D01*
X00935024Y00978629D01*
X00934890Y00978442D01*
X00934729Y00978228D01*
X00934569Y00978014D01*
X00934408Y00977746D01*
X00934248Y00977451D01*
X00933980Y00976782D01*
X00933873Y00976434D01*
X00933792Y00976032D01*
X00933739Y00975631D01*
X00933712Y00975202D01*
Y00975176D01*
Y00975095D01*
Y00974988D01*
X00933739Y00974854D01*
X00933766Y00974667D01*
X00933819Y00974453D01*
X00933926Y00973944D01*
X00934140Y00973382D01*
X00934301Y00973061D01*
X00934462Y00972739D01*
X00934676Y00972445D01*
X00934917Y00972124D01*
X00935184Y00971803D01*
X00935506Y00971508D01*
X00929134D01*
Y00968135D01*
X00946723D01*
Y00971267D01*
X00944876D01*
X00944929Y00971294D01*
X00945063Y00971401D01*
X00945251Y00971588D01*
X00945492Y00971803D01*
X00945733Y00972070D01*
X00946027Y00972391D01*
X00946268Y00972739D01*
X00946509Y00973141D01*
X00946536Y00973195D01*
X00946589Y00973328D01*
X00946670Y00973516D01*
X00946777Y00973783D01*
X00946884Y00974105D01*
X00946964Y00974480D01*
X00947018Y00974854D01*
X00947044Y00975256D01*
Y00975283D01*
Y00975363D01*
Y00975470D01*
X00947018Y00975631D01*
X00946991Y00975818D01*
X00946937Y00976032D01*
X00946830Y00976541D01*
X00946616Y00977130D01*
X00946482Y00977451D01*
X00946295Y00977773D01*
X00946107Y00978094D01*
X00945866Y00978388D01*
X00945599Y00978709D01*
X00945277Y00979004D01*
X00945251Y00979031D01*
X00945197Y00979058D01*
X00945090Y00979138D01*
X00944956Y00979245D01*
X00944769Y00979352D01*
X00944555Y00979486D01*
X00944287Y00979647D01*
X00943992Y00979780D01*
X00943671Y00979914D01*
X00943296Y00980075D01*
X00942895Y00980209D01*
X00942440Y00980316D01*
X00941984Y00980423D01*
X00941476Y00980476D01*
X00940914Y00980530D01*
X00940351Y00980557D01*
D02*
G37*
G36*
X01053942Y01104971D02*
X01053397Y01104897D01*
X01052901Y01104773D01*
X01052480Y01104599D01*
X01052133Y01104426D01*
X01051835Y01104252D01*
X01051637Y01104103D01*
X01051513Y01104004D01*
X01051463Y01103955D01*
X01051141Y01103583D01*
X01050918Y01103186D01*
X01050744Y01102814D01*
X01050645Y01102442D01*
X01050571Y01102120D01*
X01050546Y01101848D01*
X01050521Y01101748D01*
Y01101674D01*
Y01101649D01*
Y01101624D01*
X01050546Y01101352D01*
X01050571Y01101079D01*
X01050695Y01100608D01*
X01050893Y01100187D01*
X01051116Y01099815D01*
X01051339Y01099542D01*
X01051513Y01099319D01*
X01051662Y01099195D01*
X01051686Y01099145D01*
X01051711D01*
X01052009Y01098922D01*
X01052381Y01098773D01*
X01052752Y01098625D01*
X01053099Y01098526D01*
X01053422Y01098451D01*
X01053694Y01098402D01*
X01053794D01*
X01053868Y01098377D01*
X01053942D01*
Y01104971D01*
D02*
G37*
G36*
X01032534Y01144537D02*
X01032410D01*
X01032211Y01144512D01*
X01032038Y01144487D01*
X01031740Y01144388D01*
X01031616Y01144338D01*
X01031542Y01144314D01*
X01031492Y01144264D01*
X01031468D01*
X01031170Y01144016D01*
X01030972Y01143768D01*
X01030897Y01143669D01*
X01030848Y01143570D01*
X01030798Y01143520D01*
Y01143495D01*
X01030724Y01143272D01*
X01030649Y01143000D01*
X01030526Y01142429D01*
X01030476Y01142157D01*
X01030426Y01141934D01*
X01030402Y01141785D01*
Y01141760D01*
Y01141735D01*
X01030327Y01141339D01*
X01030278Y01140967D01*
X01030203Y01140620D01*
X01030154Y01140297D01*
X01030079Y01140000D01*
X01030005Y01139752D01*
X01029955Y01139504D01*
X01029906Y01139281D01*
X01029831Y01139083D01*
X01029782Y01138934D01*
X01029757Y01138785D01*
X01029707Y01138661D01*
X01029683Y01138587D01*
X01029658Y01138512D01*
X01029633Y01138463D01*
X01030377D01*
X01030848Y01138488D01*
X01031245Y01138512D01*
X01031591Y01138562D01*
X01031889Y01138612D01*
X01032112Y01138686D01*
X01032261Y01138736D01*
X01032360Y01138760D01*
X01032385Y01138785D01*
X01032707Y01138959D01*
X01032980Y01139182D01*
X01033228Y01139405D01*
X01033401Y01139603D01*
X01033575Y01139802D01*
X01033674Y01139975D01*
X01033748Y01140074D01*
X01033773Y01140124D01*
X01033947Y01140471D01*
X01034071Y01140818D01*
X01034145Y01141165D01*
X01034194Y01141463D01*
X01034244Y01141760D01*
X01034269Y01141958D01*
Y01142107D01*
Y01142132D01*
Y01142157D01*
X01034244Y01142578D01*
X01034194Y01142925D01*
X01034095Y01143248D01*
X01033996Y01143495D01*
X01033922Y01143694D01*
X01033823Y01143818D01*
X01033773Y01143917D01*
X01033748Y01143942D01*
X01033525Y01144140D01*
X01033302Y01144289D01*
X01033079Y01144388D01*
X01032881Y01144462D01*
X01032682Y01144512D01*
X01032534Y01144537D01*
D02*
G37*
G36*
X01057934Y01019097D02*
X01057810D01*
X01057611Y01019072D01*
X01057438Y01019048D01*
X01057140Y01018948D01*
X01057016Y01018899D01*
X01056942Y01018874D01*
X01056892Y01018824D01*
X01056868D01*
X01056570Y01018577D01*
X01056372Y01018329D01*
X01056297Y01018230D01*
X01056248Y01018130D01*
X01056198Y01018081D01*
Y01018056D01*
X01056124Y01017833D01*
X01056049Y01017560D01*
X01055926Y01016990D01*
X01055876Y01016717D01*
X01055826Y01016494D01*
X01055802Y01016345D01*
Y01016321D01*
Y01016296D01*
X01055727Y01015899D01*
X01055678Y01015527D01*
X01055603Y01015180D01*
X01055554Y01014858D01*
X01055479Y01014560D01*
X01055405Y01014313D01*
X01055355Y01014065D01*
X01055306Y01013842D01*
X01055231Y01013643D01*
X01055182Y01013494D01*
X01055157Y01013346D01*
X01055107Y01013222D01*
X01055083Y01013148D01*
X01055058Y01013073D01*
X01055033Y01013024D01*
X01055777D01*
X01056248Y01013048D01*
X01056645Y01013073D01*
X01056992Y01013123D01*
X01057289Y01013172D01*
X01057512Y01013247D01*
X01057661Y01013296D01*
X01057760Y01013321D01*
X01057785Y01013346D01*
X01058107Y01013519D01*
X01058380Y01013742D01*
X01058628Y01013966D01*
X01058801Y01014164D01*
X01058975Y01014362D01*
X01059074Y01014536D01*
X01059148Y01014635D01*
X01059173Y01014685D01*
X01059347Y01015032D01*
X01059471Y01015379D01*
X01059545Y01015726D01*
X01059594Y01016023D01*
X01059644Y01016321D01*
X01059669Y01016519D01*
Y01016668D01*
Y01016693D01*
Y01016717D01*
X01059644Y01017139D01*
X01059594Y01017486D01*
X01059495Y01017808D01*
X01059396Y01018056D01*
X01059322Y01018254D01*
X01059223Y01018378D01*
X01059173Y01018477D01*
X01059148Y01018502D01*
X01058925Y01018700D01*
X01058702Y01018849D01*
X01058479Y01018948D01*
X01058281Y01019023D01*
X01058082Y01019072D01*
X01057934Y01019097D01*
D02*
G37*
G36*
X01029906Y01095377D02*
X01029261D01*
X01028889Y01095328D01*
X01028518Y01095278D01*
X01028195Y01095229D01*
X01027873Y01095154D01*
X01027600Y01095080D01*
X01027352Y01094981D01*
X01027129Y01094881D01*
X01026931Y01094807D01*
X01026757Y01094708D01*
X01026609Y01094633D01*
X01026485Y01094559D01*
X01026410Y01094510D01*
X01026336Y01094460D01*
X01026286Y01094410D01*
X01026088Y01094212D01*
X01025915Y01094014D01*
X01025617Y01093592D01*
X01025419Y01093171D01*
X01025295Y01092774D01*
X01025196Y01092427D01*
X01025171Y01092154D01*
X01025146Y01092055D01*
Y01091981D01*
Y01091931D01*
Y01091907D01*
Y01091634D01*
X01025196Y01091386D01*
X01025320Y01090915D01*
X01025518Y01090493D01*
X01025716Y01090122D01*
X01025915Y01089849D01*
X01026113Y01089626D01*
X01026237Y01089502D01*
X01026262Y01089452D01*
X01026286D01*
X01026757Y01089105D01*
X01027278Y01088857D01*
X01027848Y01088684D01*
X01028369Y01088560D01*
X01028865Y01088485D01*
X01029063Y01088461D01*
X01029236D01*
X01029410Y01088436D01*
X01030030D01*
X01030426Y01088485D01*
X01030798Y01088535D01*
X01031121Y01088585D01*
X01031443Y01088659D01*
X01031740Y01088758D01*
X01031988Y01088833D01*
X01032211Y01088932D01*
X01032410Y01089031D01*
X01032583Y01089105D01*
X01032732Y01089204D01*
X01032856Y01089279D01*
X01032955Y01089328D01*
X01033029Y01089378D01*
X01033054Y01089427D01*
X01033079D01*
X01033277Y01089626D01*
X01033451Y01089824D01*
X01033724Y01090221D01*
X01033922Y01090642D01*
X01034046Y01091039D01*
X01034145Y01091386D01*
X01034170Y01091659D01*
X01034194Y01091758D01*
Y01091832D01*
Y01091882D01*
Y01091907D01*
X01034170Y01092179D01*
X01034145Y01092452D01*
X01034021Y01092923D01*
X01033848Y01093369D01*
X01033624Y01093716D01*
X01033426Y01094014D01*
X01033252Y01094237D01*
X01033129Y01094361D01*
X01033079Y01094410D01*
X01032856Y01094584D01*
X01032608Y01094733D01*
X01032063Y01094981D01*
X01031492Y01095129D01*
X01030947Y01095253D01*
X01030451Y01095328D01*
X01030228Y01095352D01*
X01030054D01*
X01029906Y01095377D01*
D02*
G37*
G36*
X00942065Y01030325D02*
X00933980D01*
Y01026952D01*
X00940753D01*
X00941289Y01026925D01*
X00941877D01*
X00942413Y01026872D01*
X00942654D01*
X00942868Y01026845D01*
X00943055Y01026818D01*
X00943189Y01026791D01*
X00943216D01*
X00943296Y01026765D01*
X00943403Y01026711D01*
X00943537Y01026631D01*
X00943832Y01026416D01*
X00943992Y01026283D01*
X00944126Y01026122D01*
X00944153Y01026095D01*
X00944180Y01026042D01*
X00944233Y01025908D01*
X00944287Y01025774D01*
X00944367Y01025587D01*
X00944421Y01025372D01*
X00944447Y01025132D01*
X00944474Y01024864D01*
Y01024837D01*
Y01024730D01*
X00944447Y01024569D01*
X00944421Y01024355D01*
X00944367Y01024114D01*
X00944287Y01023846D01*
X00944180Y01023605D01*
X00944019Y01023338D01*
X00943992Y01023311D01*
X00943939Y01023231D01*
X00943832Y01023097D01*
X00943698Y01022963D01*
X00943511Y01022802D01*
X00943323Y01022642D01*
X00943082Y01022508D01*
X00942841Y01022401D01*
X00942814D01*
X00942681Y01022347D01*
X00942600D01*
X00942466Y01022320D01*
X00942306Y01022294D01*
X00942145Y01022267D01*
X00941931Y01022240D01*
X00941690Y01022213D01*
X00941396Y01022187D01*
X00941074D01*
X00940726Y01022160D01*
X00940325Y01022133D01*
X00933980D01*
Y01018760D01*
X00946723D01*
Y01021892D01*
X00944822D01*
X00944876Y01021919D01*
X00944983Y01022026D01*
X00945170Y01022160D01*
X00945411Y01022374D01*
X00945679Y01022642D01*
X00945947Y01022963D01*
X00946214Y01023338D01*
X00946455Y01023739D01*
X00946482Y01023793D01*
X00946536Y01023927D01*
X00946643Y01024168D01*
X00946750Y01024462D01*
X00946857Y01024810D01*
X00946964Y01025212D01*
X00947018Y01025667D01*
X00947044Y01026122D01*
Y01026149D01*
Y01026176D01*
Y01026336D01*
X00947018Y01026577D01*
X00946964Y01026898D01*
X00946910Y01027246D01*
X00946803Y01027621D01*
X00946670Y01028023D01*
X00946482Y01028424D01*
X00946455Y01028478D01*
X00946375Y01028585D01*
X00946241Y01028772D01*
X00946081Y01028987D01*
X00945840Y01029228D01*
X00945572Y01029469D01*
X00945251Y01029709D01*
X00944903Y01029897D01*
X00944849Y01029924D01*
X00944715Y01029950D01*
X00944474Y01030031D01*
X00944153Y01030111D01*
X00943752Y01030191D01*
X00943270Y01030245D01*
X00942707Y01030298D01*
X00942065Y01030325D01*
D02*
G37*
G36*
X01028542Y01005413D02*
X01027997Y01005339D01*
X01027501Y01005215D01*
X01027080Y01005041D01*
X01026733Y01004867D01*
X01026435Y01004694D01*
X01026237Y01004545D01*
X01026113Y01004446D01*
X01026063Y01004397D01*
X01025741Y01004025D01*
X01025518Y01003628D01*
X01025344Y01003256D01*
X01025245Y01002884D01*
X01025171Y01002562D01*
X01025146Y01002289D01*
X01025121Y01002190D01*
Y01002116D01*
Y01002091D01*
Y01002066D01*
X01025146Y01001794D01*
X01025171Y01001521D01*
X01025295Y01001050D01*
X01025493Y01000628D01*
X01025716Y01000257D01*
X01025939Y00999984D01*
X01026113Y00999761D01*
X01026262Y00999637D01*
X01026286Y00999587D01*
X01026311D01*
X01026609Y00999364D01*
X01026981Y00999215D01*
X01027352Y00999066D01*
X01027699Y00998967D01*
X01028022Y00998893D01*
X01028294Y00998843D01*
X01028394D01*
X01028468Y00998819D01*
X01028542D01*
Y01005413D01*
D02*
G37*
G36*
X00936657Y01003018D02*
X00933980D01*
Y01001465D01*
X00931463D01*
X00929482Y00998092D01*
X00933980D01*
Y00995790D01*
X00936657D01*
Y00998092D01*
X00942654D01*
X00942975Y00998065D01*
X00943511D01*
X00943618Y00998039D01*
X00943725D01*
X00943832Y00997985D01*
X00943966Y00997878D01*
X00944100Y00997744D01*
X00944126Y00997691D01*
X00944180Y00997583D01*
X00944233Y00997396D01*
X00944260Y00997182D01*
Y00997155D01*
Y00997102D01*
X00944233Y00996994D01*
X00944207Y00996834D01*
X00944180Y00996646D01*
X00944126Y00996406D01*
X00944046Y00996138D01*
X00943939Y00995817D01*
X00946562Y00995522D01*
X00946589Y00995576D01*
X00946643Y00995736D01*
X00946723Y00995977D01*
X00946803Y00996299D01*
X00946884Y00996700D01*
X00946964Y00997155D01*
X00947018Y00997664D01*
X00947044Y00998199D01*
Y00998226D01*
Y00998360D01*
X00947018Y00998521D01*
Y00998735D01*
X00946964Y00999002D01*
X00946910Y00999270D01*
X00946857Y00999565D01*
X00946750Y00999832D01*
X00946723Y00999859D01*
X00946696Y00999939D01*
X00946643Y01000073D01*
X00946536Y01000234D01*
X00946295Y01000582D01*
X00946134Y01000769D01*
X00945974Y01000903D01*
X00945947Y01000930D01*
X00945893Y01000957D01*
X00945759Y01001010D01*
X00945626Y01001091D01*
X00945411Y01001171D01*
X00945197Y01001251D01*
X00944929Y01001305D01*
X00944635Y01001358D01*
X00944608D01*
X00944501Y01001385D01*
X00944340D01*
X00944126Y01001412D01*
X00943805Y01001439D01*
X00943377D01*
X00942868Y01001465D01*
X00936657D01*
Y01003018D01*
D02*
G37*
G36*
X00943136Y01016458D02*
X00942627Y01013084D01*
X00942681D01*
X00942788Y01013031D01*
X00942975Y01012977D01*
X00943189Y01012897D01*
X00943430Y01012790D01*
X00943671Y01012629D01*
X00943912Y01012442D01*
X00944126Y01012228D01*
X00944153Y01012201D01*
X00944207Y01012094D01*
X00944287Y01011960D01*
X00944367Y01011746D01*
X00944447Y01011478D01*
X00944528Y01011157D01*
X00944581Y01010809D01*
X00944608Y01010380D01*
Y01010354D01*
Y01010327D01*
Y01010166D01*
X00944581Y01009925D01*
X00944555Y01009658D01*
X00944501Y01009336D01*
X00944421Y01009015D01*
X00944314Y01008694D01*
X00944153Y01008426D01*
X00944126Y01008399D01*
X00944100Y01008346D01*
X00944019Y01008292D01*
X00943912Y01008185D01*
X00943618Y01008051D01*
X00943430Y01007998D01*
X00943243Y01007971D01*
X00943163D01*
X00943002Y01007998D01*
X00942814Y01008078D01*
X00942600Y01008212D01*
X00942547Y01008265D01*
X00942520Y01008346D01*
X00942440Y01008453D01*
X00942386Y01008613D01*
X00942306Y01008801D01*
X00942225Y01009069D01*
X00942145Y01009363D01*
Y01009417D01*
X00942092Y01009550D01*
X00942065Y01009738D01*
X00941984Y01010005D01*
X00941904Y01010327D01*
X00941824Y01010702D01*
X00941717Y01011103D01*
X00941610Y01011532D01*
X00941369Y01012415D01*
X00941235Y01012843D01*
X00941074Y01013272D01*
X00940940Y01013646D01*
X00940807Y01013995D01*
X00940646Y01014289D01*
X00940512Y01014530D01*
Y01014557D01*
X00940459Y01014584D01*
X00940325Y01014771D01*
X00940084Y01015012D01*
X00939762Y01015279D01*
X00939361Y01015547D01*
X00938852Y01015788D01*
X00938290Y01015976D01*
X00937969Y01016002D01*
X00937647Y01016029D01*
X00937487D01*
X00937380Y01016002D01*
X00937059Y01015949D01*
X00936684Y01015869D01*
X00936229Y01015708D01*
X00935773Y01015494D01*
X00935292Y01015172D01*
X00935078Y01014958D01*
X00934863Y01014744D01*
X00934837Y01014717D01*
X00934810Y01014691D01*
X00934756Y01014610D01*
X00934676Y01014503D01*
X00934596Y01014342D01*
X00934489Y01014182D01*
X00934381Y01013968D01*
X00934274Y01013754D01*
X00934167Y01013486D01*
X00934087Y01013165D01*
X00933980Y01012843D01*
X00933900Y01012468D01*
X00933819Y01012067D01*
X00933766Y01011639D01*
X00933712Y01011183D01*
Y01010675D01*
Y01010648D01*
Y01010568D01*
Y01010434D01*
Y01010247D01*
X00933739Y01010032D01*
X00933766Y01009765D01*
X00933819Y01009202D01*
X00933926Y01008587D01*
X00934060Y01007917D01*
X00934274Y01007328D01*
X00934408Y01007034D01*
X00934569Y01006793D01*
Y01006766D01*
X00934596Y01006739D01*
X00934729Y01006579D01*
X00934917Y01006365D01*
X00935211Y01006097D01*
X00935559Y01005802D01*
X00935988Y01005508D01*
X00936470Y01005240D01*
X00937059Y01005026D01*
X00937647Y01008212D01*
X00937621D01*
X00937540Y01008265D01*
X00937407Y01008319D01*
X00937246Y01008399D01*
X00937059Y01008506D01*
X00936871Y01008640D01*
X00936684Y01008801D01*
X00936523Y01009015D01*
X00936496Y01009042D01*
X00936470Y01009122D01*
X00936389Y01009256D01*
X00936309Y01009417D01*
X00936255Y01009658D01*
X00936175Y01009925D01*
X00936148Y01010247D01*
X00936122Y01010621D01*
Y01010648D01*
Y01010675D01*
Y01010835D01*
X00936148Y01011076D01*
X00936175Y01011371D01*
X00936282Y01011987D01*
X00936363Y01012281D01*
X00936496Y01012522D01*
Y01012549D01*
X00936550Y01012576D01*
X00936684Y01012710D01*
X00936898Y01012843D01*
X00937032Y01012870D01*
X00937192Y01012897D01*
X00937246D01*
X00937407Y01012843D01*
X00937621Y01012763D01*
X00937701Y01012683D01*
X00937808Y01012576D01*
X00937835Y01012549D01*
X00937862Y01012468D01*
X00937942Y01012281D01*
X00937996Y01012174D01*
X00938049Y01012013D01*
X00938129Y01011826D01*
X00938183Y01011612D01*
X00938263Y01011344D01*
X00938370Y01011050D01*
X00938451Y01010728D01*
X00938558Y01010354D01*
X00938665Y01009925D01*
X00938772Y01009443D01*
Y01009417D01*
X00938799Y01009336D01*
X00938826Y01009176D01*
X00938879Y01009015D01*
X00938933Y01008774D01*
X00939013Y01008533D01*
X00939174Y01007944D01*
X00939388Y01007328D01*
X00939655Y01006713D01*
X00939950Y01006150D01*
X00940110Y01005883D01*
X00940271Y01005668D01*
X00940325Y01005615D01*
X00940432Y01005508D01*
X00940646Y01005321D01*
X00940914Y01005133D01*
X00941262Y01004946D01*
X00941717Y01004758D01*
X00942199Y01004651D01*
X00942788Y01004598D01*
X00942948D01*
X00943082Y01004624D01*
X00943216Y01004651D01*
X00943403Y01004678D01*
X00943805Y01004785D01*
X00944287Y01004946D01*
X00944796Y01005213D01*
X00945036Y01005374D01*
X00945304Y01005588D01*
X00945545Y01005802D01*
X00945786Y01006070D01*
Y01006097D01*
X00945840Y01006124D01*
X00945893Y01006231D01*
X00945974Y01006338D01*
X00946081Y01006498D01*
X00946188Y01006686D01*
X00946295Y01006900D01*
X00946402Y01007141D01*
X00946536Y01007436D01*
X00946643Y01007757D01*
X00946750Y01008105D01*
X00946857Y01008506D01*
X00946937Y01008908D01*
X00946991Y01009363D01*
X00947018Y01009872D01*
X00947044Y01010380D01*
Y01010407D01*
Y01010487D01*
Y01010621D01*
X00947018Y01010809D01*
Y01011023D01*
X00946991Y01011291D01*
X00946964Y01011558D01*
X00946910Y01011880D01*
X00946777Y01012522D01*
X00946616Y01013218D01*
X00946348Y01013887D01*
X00946000Y01014503D01*
Y01014530D01*
X00945947Y01014557D01*
X00945893Y01014637D01*
X00945813Y01014744D01*
X00945572Y01015012D01*
X00945251Y01015306D01*
X00944849Y01015628D01*
X00944340Y01015949D01*
X00943778Y01016243D01*
X00943136Y01016458D01*
D02*
G37*
%LPD*%
G36*
X00939281Y01084136D02*
X00939147D01*
X00939040Y01084163D01*
X00938772Y01084190D01*
X00938451Y01084243D01*
X00938103Y01084350D01*
X00937728Y01084484D01*
X00937380Y01084671D01*
X00937059Y01084912D01*
X00937032Y01084939D01*
X00936925Y01085046D01*
X00936818Y01085180D01*
X00936657Y01085394D01*
X00936523Y01085635D01*
X00936389Y01085930D01*
X00936309Y01086278D01*
X00936282Y01086653D01*
Y01086706D01*
Y01086840D01*
X00936336Y01087027D01*
X00936389Y01087295D01*
X00936496Y01087590D01*
X00936630Y01087884D01*
X00936844Y01088179D01*
X00937112Y01088473D01*
X00937139Y01088500D01*
X00937246Y01088580D01*
X00937433Y01088687D01*
X00937674Y01088821D01*
X00937996Y01088955D01*
X00938370Y01089062D01*
X00938799Y01089142D01*
X00939281Y01089169D01*
Y01084136D01*
D02*
G37*
G36*
Y01036376D02*
X00939147D01*
X00939040Y01036402D01*
X00938772Y01036429D01*
X00938451Y01036483D01*
X00938103Y01036590D01*
X00937728Y01036724D01*
X00937380Y01036911D01*
X00937059Y01037152D01*
X00937032Y01037179D01*
X00936925Y01037286D01*
X00936818Y01037420D01*
X00936657Y01037634D01*
X00936523Y01037875D01*
X00936389Y01038169D01*
X00936309Y01038517D01*
X00936282Y01038892D01*
Y01038946D01*
Y01039080D01*
X00936336Y01039267D01*
X00936389Y01039535D01*
X00936496Y01039829D01*
X00936630Y01040124D01*
X00936844Y01040418D01*
X00937112Y01040713D01*
X00937139Y01040739D01*
X00937246Y01040820D01*
X00937433Y01040927D01*
X00937674Y01041061D01*
X00937996Y01041194D01*
X00938370Y01041301D01*
X00938799Y01041382D01*
X00939281Y01041409D01*
Y01036376D01*
D02*
G37*
G36*
X00943189Y00990944D02*
X00943350Y00990917D01*
X00943537Y00990837D01*
X00943752Y00990757D01*
X00943966Y00990623D01*
X00944153Y00990462D01*
X00944180Y00990435D01*
X00944233Y00990355D01*
X00944314Y00990248D01*
X00944394Y00990088D01*
X00944501Y00989900D01*
X00944581Y00989659D01*
X00944635Y00989418D01*
X00944662Y00989124D01*
Y00989070D01*
Y00988963D01*
X00944635Y00988802D01*
X00944581Y00988561D01*
X00944528Y00988294D01*
X00944421Y00987999D01*
X00944260Y00987705D01*
X00944073Y00987383D01*
X00944046Y00987357D01*
X00943992Y00987276D01*
X00943885Y00987196D01*
X00943752Y00987062D01*
X00943591Y00986928D01*
X00943403Y00986795D01*
X00943189Y00986687D01*
X00942948Y00986580D01*
X00942922D01*
X00942868Y00986554D01*
X00942761Y00986527D01*
X00942573Y00986500D01*
X00942359D01*
X00942065Y00986473D01*
X00941744Y00986447D01*
X00940619D01*
Y00986473D01*
X00940673Y00986580D01*
X00940699Y00986741D01*
X00940780Y00986955D01*
X00940860Y00987250D01*
X00940940Y00987598D01*
X00941048Y00988026D01*
X00941155Y00988508D01*
Y00988535D01*
Y00988561D01*
X00941208Y00988722D01*
X00941262Y00988963D01*
X00941342Y00989258D01*
X00941422Y00989552D01*
X00941529Y00989873D01*
X00941637Y00990114D01*
X00941744Y00990328D01*
X00941770Y00990355D01*
X00941824Y00990435D01*
X00941931Y00990543D01*
X00942065Y00990650D01*
X00942225Y00990757D01*
X00942440Y00990864D01*
X00942654Y00990944D01*
X00942922Y00990971D01*
X00943029D01*
X00943189Y00990944D01*
D02*
G37*
G36*
X00940619Y00977076D02*
X00940807D01*
X00941262Y00977023D01*
X00941744Y00976969D01*
X00942225Y00976889D01*
X00942681Y00976755D01*
X00942895Y00976648D01*
X00943082Y00976568D01*
X00943109D01*
X00943136Y00976541D01*
X00943296Y00976407D01*
X00943484Y00976220D01*
X00943725Y00975979D01*
X00943966Y00975658D01*
X00944180Y00975256D01*
X00944340Y00974801D01*
X00944367Y00974560D01*
X00944394Y00974292D01*
Y00974265D01*
Y00974239D01*
X00944367Y00974105D01*
X00944340Y00973891D01*
X00944260Y00973623D01*
X00944153Y00973302D01*
X00943966Y00972980D01*
X00943725Y00972659D01*
X00943403Y00972338D01*
X00943350Y00972311D01*
X00943216Y00972204D01*
X00942975Y00972070D01*
X00942654Y00971909D01*
X00942252Y00971776D01*
X00941744Y00971642D01*
X00941128Y00971535D01*
X00940432Y00971508D01*
X00940084D01*
X00939896Y00971535D01*
X00939682Y00971562D01*
X00939200Y00971615D01*
X00938692Y00971695D01*
X00938183Y00971856D01*
X00937674Y00972043D01*
X00937460Y00972177D01*
X00937273Y00972311D01*
X00937219Y00972338D01*
X00937112Y00972445D01*
X00936952Y00972632D01*
X00936764Y00972847D01*
X00936603Y00973141D01*
X00936443Y00973489D01*
X00936336Y00973891D01*
X00936282Y00974319D01*
Y00974372D01*
X00936309Y00974506D01*
X00936336Y00974721D01*
X00936389Y00975015D01*
X00936523Y00975310D01*
X00936684Y00975658D01*
X00936925Y00975979D01*
X00937246Y00976300D01*
X00937299Y00976327D01*
X00937433Y00976434D01*
X00937647Y00976541D01*
X00937969Y00976702D01*
X00938370Y00976835D01*
X00938852Y00976969D01*
X00939441Y00977076D01*
X00940110Y00977103D01*
X00940459D01*
X00940619Y00977076D01*
D02*
G37*
G36*
X00939281Y01112782D02*
X00939147D01*
X00939040Y01112809D01*
X00938772Y01112835D01*
X00938451Y01112889D01*
X00938103Y01112996D01*
X00937728Y01113130D01*
X00937380Y01113317D01*
X00937059Y01113558D01*
X00937032Y01113585D01*
X00936925Y01113692D01*
X00936818Y01113826D01*
X00936657Y01114040D01*
X00936523Y01114281D01*
X00936389Y01114575D01*
X00936309Y01114923D01*
X00936282Y01115298D01*
Y01115352D01*
Y01115486D01*
X00936336Y01115673D01*
X00936389Y01115941D01*
X00936496Y01116235D01*
X00936630Y01116530D01*
X00936844Y01116824D01*
X00937112Y01117119D01*
X00937139Y01117145D01*
X00937246Y01117226D01*
X00937433Y01117333D01*
X00937674Y01117467D01*
X00937996Y01117601D01*
X00938370Y01117708D01*
X00938799Y01117788D01*
X00939281Y01117815D01*
Y01112782D01*
D02*
G37*
D11*
X00921258Y00951230D02*
Y01159510D01*
X00918718Y00951230D02*
X00954278D01*
X00918718Y00948690D02*
X00954278D01*
Y01159510D01*
X00918718D02*
X00954278D01*
X00814578Y01054100D02*
X00918718D01*
X00814578Y00948690D02*
Y01159510D01*
Y00948690D02*
X00918718D01*
Y01159510D01*
X00814578D02*
X00918718D01*
D39*
X01063498Y01362710D02*
D03*
Y01388110D02*
D03*
Y01337310D02*
D03*
X00997458Y01362710D02*
D03*
Y01388110D02*
D03*
Y01337310D02*
D03*
X00552958Y01350010D02*
D03*
Y01324610D02*
D03*
X00616458Y01350010D02*
D03*
Y01324610D02*
D03*
D40*
X01030478Y01362710D02*
D03*
Y01337310D02*
D03*
X01149858Y01527810D02*
D03*
X01124458D02*
D03*
X00616458D02*
D03*
X00641858D02*
D03*
X01167638Y01428750D02*
D03*
X01187638D02*
D03*
X01147638D02*
D03*
D41*
X00705358Y01413510D02*
D03*
X00603758D02*
D03*
X01060958Y01477010D02*
D03*
X01162558D02*
D03*
X00565658Y01527810D02*
D03*
Y01629410D02*
D03*
X00641858D02*
D03*
X00616458D02*
D03*
X01124458D02*
D03*
X01149858D02*
D03*
X01200658Y01527810D02*
D03*
Y01629410D02*
D03*
X00705358Y01446530D02*
D03*
X00603758D02*
D03*
Y01479550D02*
D03*
X00705358D02*
D03*
X00669798Y01527810D02*
D03*
Y01578610D02*
D03*
Y01604010D02*
D03*
Y01553210D02*
D03*
X01208638Y01428750D02*
D03*
X01126638D02*
D03*
D42*
X00657352Y00812292D02*
D03*
X01108202Y00812800D02*
D03*
X00789178D02*
D03*
X00976376D02*
D03*
X00657352Y01273175D02*
D03*
X01108202D02*
D03*
X00789178D02*
D03*
X00976376D02*
D03*
D43*
X00561340Y01412240D02*
D03*
X00535940D02*
D03*
X00561340Y01437640D02*
D03*
X00535940D02*
D03*
X00561340Y01463040D02*
D03*
X00756158Y01565910D02*
D03*
X00781558Y01540510D02*
D03*
Y01565910D02*
D03*
X00806958Y01540510D02*
D03*
Y01565910D02*
D03*
X00832358Y01540510D02*
D03*
Y01565910D02*
D03*
X00857758Y01540510D02*
D03*
Y01565910D02*
D03*
X00883158Y01540510D02*
D03*
Y01565910D02*
D03*
X00908558Y01540510D02*
D03*
Y01565910D02*
D03*
X00933958Y01540510D02*
D03*
Y01565910D02*
D03*
X00959358Y01540510D02*
D03*
Y01565910D02*
D03*
X00984758Y01540510D02*
D03*
Y01565910D02*
D03*
X01010158Y01540510D02*
D03*
Y01565910D02*
D03*
D44*
X00535940Y01463040D02*
D03*
D45*
X00756158Y01540510D02*
D03*
D46*
X00803275Y01634617D02*
D03*
X00798068Y01647190D02*
D03*
X00803275Y01659763D02*
D03*
X00815848Y01664970D02*
D03*
X00828421Y01659763D02*
D03*
X00833628Y01647190D02*
D03*
X00828421Y01634617D02*
D03*
X00815848Y01629410D02*
D03*
X00950468D02*
D03*
X00963041Y01634617D02*
D03*
X00968248Y01647190D02*
D03*
X00963041Y01659763D02*
D03*
X00950468Y01664970D02*
D03*
X00937895Y01659763D02*
D03*
X00932688Y01647190D02*
D03*
X00937895Y01634617D02*
D03*
D47*
X00815848Y01647190D02*
D03*
X00950468D02*
D03*
D48*
X00862838Y01311910D02*
X00890778D01*
X00870458Y01324610D02*
X00883158Y01311910D01*
X00870458Y01299210D02*
X00883158Y01311910D01*
X00870458Y01299210D02*
Y01324610D01*
X00883158Y01299210D02*
Y01324610D01*
X00880618D02*
X00883158D01*
Y01299210D02*
X00885698D01*
D49*
X00916408Y01311910D02*
D03*
X00849908D02*
D03*
D50*
X00692658Y01383030D02*
D03*
X01157478Y01357630D02*
D03*
Y01385570D02*
D03*
X00751078Y01494790D02*
D03*
D51*
X00713658Y01383030D02*
D03*
X01136478Y01357630D02*
D03*
Y01385570D02*
D03*
X00772078Y01494790D02*
D03*
D52*
X00989838Y01482090D02*
D03*
X00771398Y01449070D02*
D03*
X00946658Y01385570D02*
D03*
D53*
X00974989Y01467241D02*
D03*
X00786247Y01463919D02*
D03*
X00931809Y01370721D02*
D03*
D54*
X00951040Y01450224D02*
D03*
X00945383Y01455881D02*
D03*
X00939726Y01461537D02*
D03*
X00934070Y01467194D02*
D03*
X00928413Y01472851D02*
D03*
X00922756Y01478508D02*
D03*
X00917099Y01484165D02*
D03*
X00911442Y01489822D02*
D03*
X00905785Y01495478D02*
D03*
X00900129Y01501135D02*
D03*
X00894472Y01506792D02*
D03*
X00815276Y01427596D02*
D03*
X00820933Y01421939D02*
D03*
X00826590Y01416283D02*
D03*
X00832246Y01410626D02*
D03*
X00837903Y01404969D02*
D03*
X00843560Y01399312D02*
D03*
X00849217Y01393655D02*
D03*
X00854874Y01387998D02*
D03*
X00860531Y01382342D02*
D03*
X00866187Y01376685D02*
D03*
X00871844Y01371028D02*
D03*
D55*
Y01506792D02*
D03*
X00866187Y01501135D02*
D03*
X00860531Y01495478D02*
D03*
X00854874Y01489822D02*
D03*
X00849217Y01484165D02*
D03*
X00843560Y01478508D02*
D03*
X00837903Y01472851D02*
D03*
X00832246Y01467194D02*
D03*
X00826590Y01461537D02*
D03*
X00820933Y01455881D02*
D03*
X00815276Y01450224D02*
D03*
X00894472Y01371028D02*
D03*
X00900129Y01376685D02*
D03*
X00905785Y01382342D02*
D03*
X00911442Y01387998D02*
D03*
X00917099Y01393655D02*
D03*
X00922756Y01399312D02*
D03*
X00928413Y01404969D02*
D03*
X00934070Y01410626D02*
D03*
X00939726Y01416283D02*
D03*
X00945383Y01421939D02*
D03*
X00951040Y01427596D02*
D03*
D56*
X01213358Y01339250D02*
D03*
Y01365250D02*
D03*
Y01358750D02*
D03*
Y01345750D02*
D03*
Y01352250D02*
D03*
D57*
X01241858Y01314750D02*
D03*
Y01389750D02*
D03*
D58*
Y01363750D02*
D03*
Y01340750D02*
D03*
D59*
X00781558Y01380490D02*
D03*
Y01399490D02*
D03*
Y01389990D02*
D03*
M02*
